<svg width="240" height="31" viewBox="0 0 240 31" fill="none" xmlns="http://www.w3.org/2000/svg">
<path d="M28.2213 4.87852C25.9007 2.37189 22.8473 0.66425 19.4981 0V1.0872C22.6615 1.8239 25.48 3.61658 27.4898 6.17018C29.4996 8.72377 30.5809 11.8861 30.5557 15.1368C30.5306 18.3874 29.4005 21.5326 27.3514 24.0547C25.3023 26.5768 22.4564 28.3256 19.2819 29.0132C17.1097 29.4181 14.8813 29.4181 12.7091 29.0132C9.55407 28.3211 6.72631 26.5798 4.68664 24.0733C2.64697 21.5667 1.51566 18.4426 1.4771 15.2102C1.43853 11.9777 2.49498 8.82746 4.47426 6.27287C6.45355 3.71828 9.23896 1.90997 12.3765 1.14267V0.0554705C9.1132 0.742067 6.14404 2.42761 3.88053 4.87852C1.3425 7.6583 -0.0443805 11.3001 0.00108343 15.0654C0.0253677 18.6727 1.27211 22.1648 3.53733 24.9706C5.80254 27.7764 8.95212 29.7297 12.4707 30.5108C13.6185 30.724 14.7839 30.8271 15.9512 30.8187C17.1382 30.8249 18.3237 30.7321 19.4953 30.5413C23.0439 29.7875 26.2282 27.8414 28.5191 25.0262C30.8101 22.2111 32.0701 18.6962 32.0897 15.0654C32.1384 11.3015 30.7556 7.65984 28.2213 4.87852Z" fill="white"/>
<path d="M8.08705 15.3792C8.08428 17.1371 8.67262 18.8447 9.75735 20.2272C10.8421 21.6097 12.3601 22.5866 14.0669 23.0007C14.7245 23.1364 15.3935 23.2088 16.0649 23.217C16.703 23.2222 17.34 23.1618 17.9658 23.0368C19.6911 22.6331 21.2281 21.6545 22.3247 20.2617C23.4213 18.8688 24.0124 17.1442 24.0011 15.3709C24.0093 13.9333 23.597 12.5248 22.8151 11.3188C22.0332 10.1129 20.9158 9.16231 19.6007 8.58426L19.4982 8.53711V9.61598C20.6519 10.2827 21.58 11.2795 22.1632 12.4783C22.7464 13.6771 22.9581 15.0231 22.771 16.3433C22.5839 17.6634 22.0065 18.8974 21.1132 19.8865C20.2199 20.8757 19.0514 21.5748 17.758 21.8941C16.6064 22.1048 15.4263 22.1048 14.2748 21.8941C12.9969 21.58 11.8404 20.8946 10.9508 19.9242C10.0612 18.9538 9.47827 17.7417 9.27536 16.4404C9.07245 15.1392 9.25862 13.8069 9.81046 12.6114C10.3623 11.4158 11.2551 10.4103 12.3766 9.72138V8.58426C11.0826 9.18165 9.98905 10.1411 9.22788 11.3469C8.46671 12.5526 8.07049 13.9531 8.08705 15.3792Z" fill="white"/>
<path d="M19.5175 5.10134L19.6921 5.15681C21.858 5.90678 23.7203 7.34357 24.9964 9.24907C26.2724 11.1546 26.8924 13.4247 26.7623 15.7149C26.6322 18.0051 25.7592 20.1903 24.2756 21.9388C22.792 23.6873 20.779 24.9036 18.5421 25.4031C16.8581 25.7386 15.1246 25.7386 13.4406 25.4031C11.2296 24.8823 9.24619 23.66 7.78622 21.9185C6.32625 20.177 5.46802 18.0097 5.33962 15.74C5.21121 13.4703 5.8195 11.2199 7.07372 9.32454C8.32793 7.42922 10.1608 5.99061 12.2989 5.22337H12.3765V4.14727L12.1327 4.22215C9.77499 4.91735 7.70667 6.3601 6.23892 8.33331C4.77117 10.3065 3.98339 12.7035 3.99413 15.1634C3.99707 17.8464 4.90991 20.4488 6.58322 22.5448C8.25654 24.6408 10.5912 26.1062 13.2051 26.701C14.1163 26.8899 15.0457 26.9764 15.9761 26.959C16.9091 26.9573 17.8404 26.8803 18.761 26.7288C21.3907 26.1367 23.7431 24.6717 25.4355 22.572C27.1279 20.4722 28.0609 17.8612 28.0828 15.1634C28.0948 12.6845 27.2957 10.2697 25.8076 8.28797C24.3195 6.30626 22.2242 4.86658 19.8417 4.18887L19.5064 4.0918L19.5175 5.10134Z" fill="white"/>
<path d="M59.7835 5.15506C57.9361 3.60747 55.384 2.83182 52.1271 2.82812H42.3814V27.9113H45.9311V5.94272H52.0274C54.2969 5.94272 56.0232 6.43085 57.2203 7.39879C57.8237 7.90743 58.2999 8.55032 58.6107 9.27606C58.9215 10.0018 59.0584 10.7903 59.0104 11.5784C59.056 12.3677 58.9169 13.1568 58.6042 13.8829C58.2915 14.609 57.8139 15.252 57.2092 15.7608C56.0121 16.7232 54.2858 17.2085 52.0163 17.2085H49.636V20.3231H52.1299C55.3776 20.3231 57.9297 19.5475 59.7863 17.9962C60.7084 17.2146 61.4389 16.2314 61.9212 15.1225C62.4036 14.0137 62.625 12.8087 62.5684 11.6006C62.6314 10.3841 62.4128 9.16956 61.9298 8.05154C61.4467 6.93353 60.7122 5.94227 59.7835 5.15506Z" fill="white"/>
<path d="M67.6919 12.1094V8.91994H64.3999V27.907H67.8388V18.4523C67.8388 16.3963 68.3708 14.8145 69.4349 13.7069C70.1335 13.0875 70.9541 12.6216 71.8438 12.3392C72.7335 12.0569 73.6725 11.9644 74.6001 12.0678V8.73966C73.135 8.70112 71.6804 8.99705 70.3465 9.60498C69.2188 10.137 68.2891 11.014 67.6919 12.1094Z" fill="white"/>
<path d="M120.184 8.73738C118.696 8.71281 117.222 9.0287 115.875 9.66094C114.659 10.2286 113.624 11.1212 112.882 12.2403C112.287 11.1196 111.364 10.208 110.236 9.62766C109.016 9.00839 107.663 8.69885 106.296 8.72629C104.979 8.70365 103.673 8.96767 102.469 9.50008C101.38 9.98936 100.442 10.7623 99.7531 11.7383V8.90934H96.4583V27.8964H99.8916V18.1533C99.8916 16.1194 100.404 14.5607 101.43 13.4772C101.972 12.9263 102.625 12.4966 103.345 12.2164C104.065 11.9363 104.837 11.8121 105.608 11.852C106.278 11.8081 106.949 11.9093 107.576 12.1486C108.203 12.3879 108.771 12.7597 109.241 13.2387C110.08 14.1632 110.502 15.5564 110.507 17.4183V27.8992H113.946V18.1533C113.946 16.1259 114.456 14.57 115.487 13.4772C116.028 12.9256 116.681 12.4955 117.4 12.2153C118.12 11.9351 118.892 11.8112 119.663 11.852C120.333 11.8081 121.004 11.9093 121.631 12.1486C122.258 12.3879 122.826 12.7597 123.296 13.2387C124.097 14.1512 124.529 15.5434 124.529 17.3628V27.902H127.968V16.9829C127.968 14.2593 127.271 12.2061 125.878 10.823C125.12 10.1072 124.224 9.55322 123.245 9.19468C122.266 8.83615 121.225 8.68056 120.184 8.73738Z" fill="white"/>
<path d="M173.831 8.7356C172.5 8.71901 171.179 8.97575 169.951 9.48998C168.868 9.94373 167.915 10.6617 167.18 11.5784V2.82812H163.722V27.9113H167.164V18.157C167.164 16.1296 167.698 14.5765 168.771 13.481C169.356 12.9253 170.047 12.4949 170.804 12.2159C171.561 11.9369 172.366 11.8153 173.171 11.8585C173.865 11.8101 174.562 11.9085 175.216 12.1475C175.869 12.3864 176.465 12.7604 176.965 13.2452C177.846 14.1697 178.289 15.5639 178.295 17.4276V27.9002H181.725V16.9811C181.725 14.2853 181.016 12.2366 179.597 10.8351C178.826 10.1159 177.918 9.55944 176.927 9.19875C175.937 8.83807 174.884 8.68055 173.831 8.7356Z" fill="white"/>
<path d="M197.906 9.97836C196.422 9.13489 194.738 8.70578 193.032 8.73585C191.325 8.71501 189.643 9.1435 188.155 9.97836C186.717 10.7957 185.539 12.0033 184.757 13.4618C183.919 14.9905 183.491 16.7105 183.516 18.4541C183.488 20.2074 183.928 21.9364 184.791 23.4629C185.628 24.9503 186.879 26.1617 188.393 26.9492C189.878 27.6805 191.497 28.098 193.149 28.1758C194.802 28.2535 196.453 27.9899 198 27.4012C199.235 26.903 200.333 26.1166 201.203 25.1076L199.308 22.8888C198.617 23.647 197.768 24.245 196.822 24.6412C195.876 25.0373 194.855 25.222 193.83 25.1825C192.142 25.2369 190.488 24.6961 189.158 23.6543C188.543 23.1626 188.032 22.5533 187.654 21.8619C187.277 21.1705 187.041 20.4108 186.96 19.6272H202.359C202.4 19.2829 202.423 18.9367 202.428 18.59C202.464 16.8206 202.052 15.0709 201.231 13.5034C200.481 12.0349 199.328 10.8118 197.906 9.97836ZM186.969 17.084C187.101 15.5756 187.793 14.1717 188.908 13.1484C190.064 12.1708 191.529 11.6345 193.043 11.6345C194.556 11.6345 196.021 12.1708 197.177 13.1484C198.285 14.1716 198.975 15.5682 199.117 17.0701L186.969 17.084Z" fill="white"/>
<path d="M144.139 9.97836C142.656 9.13498 140.974 8.70586 139.268 8.73584C137.563 8.71611 135.884 9.14456 134.396 9.97836C132.96 10.7973 131.782 12.0045 130.999 13.4618C130.161 14.9902 129.734 16.7106 129.76 18.4541C129.733 20.2074 130.173 21.9364 131.035 23.4629C131.873 24.95 133.124 26.1613 134.637 26.9492C136.122 27.6804 137.741 28.098 139.394 28.1758C141.047 28.2535 142.698 27.9899 144.245 27.4012C145.48 26.903 146.578 26.1166 147.448 25.1076L145.555 22.8888C144.864 23.6468 144.015 24.2448 143.069 24.6409C142.123 25.037 141.102 25.2219 140.077 25.1825C138.389 25.2384 136.735 24.6973 135.405 23.6543C134.789 23.1631 134.278 22.5539 133.9 21.8625C133.522 21.171 133.286 20.4111 133.205 19.6272H148.598C148.639 19.2829 148.662 18.9367 148.667 18.5899C148.719 16.815 148.321 15.0558 147.512 13.4757C146.745 12.011 145.575 10.7972 144.139 9.97836ZM133.202 17.084C133.335 15.5756 134.027 14.1717 135.142 13.1484C136.298 12.1706 137.764 11.6342 139.278 11.6342C140.792 11.6342 142.257 12.1706 143.413 13.1484C144.522 14.1706 145.213 15.5678 145.353 17.0701L133.202 17.084Z" fill="white"/>
<path d="M218.68 18.738C218.794 20.4345 218.233 22.1074 217.12 23.3918C216.561 23.9557 215.89 24.3953 215.15 24.682C214.41 24.9688 213.618 25.0962 212.825 25.0559C212.131 25.1044 211.434 25.0059 210.781 24.767C210.127 24.5281 209.531 24.154 209.031 23.6692C208.148 22.7207 207.707 21.3339 207.707 19.4868V8.94766H204.268V19.8723C204.268 22.5996 204.997 24.6602 206.454 26.0544C207.912 27.4485 209.903 28.1446 212.429 28.1428C213.713 28.1459 214.982 27.8606 216.142 27.308C217.234 26.8 218.177 26.0174 218.877 25.0365V27.8987H222.136V8.91992H218.694L218.68 18.738Z" fill="white"/>
<path d="M238.972 19.4896C238.316 18.7765 237.482 18.2503 236.556 17.9641C235.342 17.6052 234.105 17.3272 232.854 17.1321C231.712 16.9213 230.82 16.7272 230.188 16.5608C229.605 16.4193 229.059 16.1504 228.592 15.7731C228.38 15.5933 228.212 15.3673 228.101 15.1125C227.991 14.8577 227.939 14.5809 227.952 14.3032C227.954 13.9134 228.061 13.5313 228.262 13.1974C228.463 12.8634 228.75 12.59 229.094 12.4061C230.118 11.8753 231.268 11.6345 232.419 11.71C234.35 11.6646 236.252 12.1883 237.889 13.216L239.385 10.4703C238.423 9.88673 237.372 9.46337 236.273 9.21666C235.036 8.9082 233.766 8.74715 232.491 8.73685C230.453 8.63407 228.435 9.18076 226.727 10.2983C226.052 10.7537 225.501 11.3713 225.125 12.0947C224.75 12.818 224.561 13.624 224.577 14.4391C224.504 15.5741 224.88 16.6923 225.622 17.5537C226.3 18.288 227.161 18.8303 228.115 19.1262C229.34 19.4961 230.59 19.7742 231.856 19.9583C232.965 20.1469 233.84 20.3216 234.453 20.4741C234.991 20.6128 235.494 20.8653 235.927 21.2146C236.132 21.3807 236.294 21.5931 236.4 21.8341C236.507 22.0752 236.554 22.3382 236.539 22.6014C236.539 24.3209 235.036 25.1807 232.028 25.1807C230.808 25.1771 229.594 24.9959 228.426 24.6426C227.337 24.3384 226.307 23.8537 225.378 23.2088L223.942 25.9323C224.95 26.6748 226.091 27.2162 227.304 27.527C228.759 27.9486 230.267 28.1596 231.782 28.1538C234.307 28.1538 236.305 27.6454 237.775 26.6284C238.47 26.195 239.039 25.5881 239.428 24.8674C239.817 24.1466 240.011 23.337 239.992 22.5182C240.059 21.4143 239.693 20.3278 238.972 19.4896Z" fill="white"/>
<path d="M159.191 25.2168C158.787 25.2413 158.382 25.1798 158.002 25.0364C157.623 24.893 157.279 24.6709 156.991 24.3848C156.441 23.7254 156.167 22.8787 156.226 22.0218V11.7489H161.879V8.91997H156.226V2.81836L152.788 4.39368V8.91442H149.59V11.7434H152.815V22.1965C152.762 23.0001 152.873 23.8061 153.144 24.5646C153.414 25.3232 153.837 26.0181 154.386 26.6063C155.605 27.6641 157.192 28.1956 158.801 28.0846C159.577 28.0865 160.35 27.9716 161.092 27.7434C161.361 27.6577 161.624 27.5549 161.879 27.4356V24.3265C161.116 24.9313 160.164 25.2466 159.191 25.2168Z" fill="white"/>
<path d="M79.6407 26.8552C78.1608 26.0436 76.9341 24.8379 76.0965 23.3717C75.2573 21.8268 74.8177 20.0963 74.8177 18.3379C74.8177 16.5794 75.2573 14.8489 76.0965 13.304C76.9276 11.8321 78.1558 10.624 79.6407 9.8178C81.2195 9.00316 82.97 8.57812 84.7463 8.57812C86.5226 8.57812 88.2731 9.00316 89.8519 9.8178C91.3322 10.6288 92.556 11.8384 93.385 13.3096C94.2251 14.8527 94.6653 16.5819 94.6653 18.3393C94.6653 20.0966 94.2251 21.8258 93.385 23.3689C92.5493 24.8335 91.327 26.0397 89.8519 26.8552C88.2776 27.6845 86.5253 28.1178 84.7463 28.1178C82.9673 28.1178 81.2149 27.6845 79.6407 26.8552ZM88.0507 24.2426C89.0204 23.6793 89.8125 22.8548 90.3369 21.8629C90.8817 20.7748 91.1655 19.5744 91.1655 18.3573C91.1655 17.1401 90.8817 15.9398 90.3369 14.8516C89.8113 13.8648 89.0179 13.0466 88.048 12.4914C87.0345 11.9452 85.9015 11.6593 84.7504 11.6593C83.5994 11.6593 82.4664 11.9452 81.4529 12.4914C80.4821 13.05 79.685 13.867 79.1502 14.8516C78.5966 15.9297 78.3079 17.1244 78.3079 18.3365C78.3079 19.5486 78.5966 20.7432 79.1502 21.8213C79.6849 22.8118 80.4815 23.636 81.4529 24.2037C82.4643 24.7565 83.5981 25.0461 84.7504 25.0461C85.9028 25.0461 87.0366 24.7565 88.048 24.2037L88.0507 24.2426Z" fill="white"/>
</svg>
