<svg width="128" height="128" viewBox="0 0 128 128" fill="none" xmlns="http://www.w3.org/2000/svg">
<path d="M120 64C120 69.2 116.25 73.15 112.95 76.6C111.05 78.55 109.1 80.6 108.35 82.35C107.6 84.1 107.65 86.7 107.6 89.35C107.55 94.2 107.45 99.75 103.6 103.6C99.75 107.45 94.2 107.55 89.35 107.6C86.7 107.65 84 107.7 82.35 108.35C80.7 109 78.55 111.05 76.6 112.95C73.15 116.25 69.2 120 64 120C58.8 120 54.85 116.25 51.4 112.95C49.45 111.05 47.4 109.1 45.65 108.35C43.9 107.6 41.3 107.65 38.65 107.6C33.8 107.55 28.25 107.45 24.4 103.6C20.55 99.75 20.45 94.2 20.4 89.35C20.35 86.7 20.3 84 19.65 82.35C19 80.7 16.95 78.55 15.05 76.6C11.75 73.15 8 69.2 8 64C8 58.8 11.75 54.85 15.05 51.4C16.95 49.45 18.9 47.4 19.65 45.65C20.4 43.9 20.35 41.3 20.4 38.65C20.45 33.8 20.55 28.25 24.4 24.4C28.25 20.55 33.8 20.45 38.65 20.4C41.3 20.35 44 20.3 45.65 19.65C47.3 19 49.45 16.95 51.4 15.05C54.85 11.75 58.8 8 64 8C69.2 8 73.15 11.75 76.6 15.05C78.55 16.95 80.6 18.9 82.35 19.65C84.1 20.4 86.7 20.35 89.35 20.4C94.2 20.45 99.75 20.55 103.6 24.4C107.45 28.25 107.55 33.8 107.6 38.65C107.65 41.3 107.7 44 108.35 45.65C109 47.3 111.05 49.45 112.95 51.4C116.25 54.85 120 58.8 120 64Z" fill="#55C090"/>
<path d="M38.5978 80C38.3185 80 38.1169 79.8759 37.9927 79.6276C37.8686 79.3794 37.8686 79.0536 37.9927 78.6502L49.5826 46.3942C49.7067 46.0528 49.8463 45.8201 50.0015 45.696C50.1566 45.5408 50.4204 45.4633 50.7927 45.4633H57.7745C58.4572 45.4633 58.9227 45.8046 59.1709 46.4873L70.6676 78.7433C70.7607 78.9915 70.7607 79.2708 70.6676 79.5811C70.5745 79.8604 70.3884 80 70.1091 80H63.2669C62.8015 80 62.5067 79.7828 62.3825 79.3484L59.9622 72.5527C59.9312 72.3976 59.8691 72.2735 59.776 72.1804C59.7139 72.0873 59.5743 72.0407 59.3571 72.0407H48C47.6897 72.0407 47.488 72.1959 47.3949 72.5062L44.928 79.3949C44.8659 79.5811 44.7573 79.7362 44.6022 79.8604C44.4781 79.9535 44.2608 80 43.9505 80H38.5978ZM57.4487 65.8502C57.8832 65.8502 58.0228 65.5864 57.8676 65.0589L53.9578 54.1673C53.8647 53.9811 53.7561 53.888 53.632 53.888C53.5389 53.888 53.4458 53.9966 53.3527 54.2138L49.3964 65.0589C49.1792 65.5864 49.3188 65.8502 49.8153 65.8502H57.4487Z" fill="white"/>
<path d="M82.9316 45.4633C83.4281 45.4633 83.6764 45.7425 83.6764 46.3011V78.8829C83.6764 79.2863 83.5678 79.5811 83.3505 79.7673C83.1644 79.9224 82.8541 80 82.4196 80H76.5549C76.1515 80 75.8722 79.9224 75.7171 79.7673C75.593 79.6121 75.5309 79.3639 75.5309 79.0225V46.3476C75.5309 45.7581 75.7792 45.4633 76.2756 45.4633H82.9316Z" fill="white"/>
</svg>
