<svg width="28" height="28" viewBox="0 0 28 28" fill="none" xmlns="http://www.w3.org/2000/svg">
<path d="M23.475 19.4255L23.475 19.4261C23.464 20.4856 23.4396 21.6645 22.6184 22.4807C21.7971 23.297 20.6107 23.3213 19.5447 23.3322L19.5441 23.3322L19.5404 23.3323C19.2522 23.3377 18.959 23.3432 18.6925 23.365C18.4258 23.3869 18.1805 23.4255 17.9913 23.4996C17.8009 23.5741 17.5866 23.7265 17.3697 23.908C17.1517 24.0903 16.9261 24.3064 16.713 24.5128C15.9542 25.2342 15.1082 26.0282 14 26.0282C12.8918 26.0282 12.0458 25.2342 11.287 24.5128C11.0739 24.3064 10.8537 24.0957 10.6385 23.9161C10.4238 23.7369 10.2104 23.5854 10.0104 23.5003C9.80939 23.4146 9.56322 23.376 9.29866 23.3568C9.09134 23.3418 8.86851 23.3385 8.64324 23.3352C8.58087 23.3343 8.51832 23.3334 8.45586 23.3322L8.45533 23.3322C7.38927 23.3213 6.20286 23.297 5.38156 22.4807C4.56041 21.6645 4.53599 20.4856 4.525 19.4261L4.52499 19.4255L4.52492 19.4217C4.51948 19.1353 4.51395 18.8438 4.49197 18.579C4.46997 18.3138 4.43113 18.0699 4.35654 17.8817C4.28149 17.6923 4.12815 17.4793 3.94555 17.2637C3.76211 17.0471 3.54467 16.8228 3.33703 16.611C2.61115 15.8567 1.8125 15.016 1.8125 13.915C1.8125 12.814 2.61115 11.9733 3.33703 11.219C3.54468 11.0072 3.75667 10.7883 3.93739 10.5744C4.11767 10.361 4.2701 10.1488 4.35583 9.95002C4.44205 9.75006 4.48093 9.50525 4.50022 9.24224C4.51534 9.03613 4.51864 8.8146 4.52197 8.59067C4.52289 8.5287 4.52381 8.46655 4.52499 8.40449L4.525 8.40395C4.53599 7.34438 4.56041 6.16551 5.38156 5.34934C6.20286 4.53302 7.38927 4.50874 8.45533 4.49781L8.45586 4.4978L8.45966 4.49773C8.74781 4.49233 9.04105 4.48683 9.30745 4.46499C9.57421 4.44313 9.81952 4.40453 10.0087 4.33045C10.1991 4.25589 10.4134 4.10354 10.6303 3.92203C10.8483 3.73971 11.0739 3.52359 11.287 3.31721C12.0457 2.59586 12.8918 1.80176 14 1.80176C15.1082 1.80176 15.9543 2.59586 16.713 3.31721C16.9261 3.5236 17.1463 3.7343 17.3615 3.91392C17.5762 4.09312 17.7896 4.24458 17.9896 4.32975C18.1906 4.41539 18.4368 4.45402 18.7013 4.47319C18.9087 4.48822 19.1315 4.49149 19.3568 4.4948C19.4191 4.49572 19.4817 4.49663 19.5441 4.49781L19.5447 4.49781C20.6107 4.50874 21.7971 4.53302 22.6184 5.34934C23.4396 6.16551 23.464 7.34438 23.475 8.40395L23.475 8.40449L23.4751 8.4083C23.4805 8.69468 23.4861 8.98617 23.508 9.25099C23.53 9.51617 23.5689 9.76011 23.6435 9.9483C23.7185 10.1377 23.8718 10.3507 24.0545 10.5663C24.2379 10.7829 24.4553 11.0072 24.663 11.219C25.3888 11.9733 26.1875 12.814 26.1875 13.915C26.1875 15.016 25.3888 15.8567 24.663 16.611C24.4553 16.8228 24.2433 17.0417 24.0626 17.2556C23.8823 17.469 23.7299 17.6812 23.6442 17.88C23.558 18.0799 23.5191 18.3248 23.4998 18.5878C23.4847 18.7939 23.4814 19.0154 23.478 19.2394C23.4771 19.3013 23.4762 19.3635 23.475 19.4255Z" fill="#55C090" stroke="#55C090" stroke-width="0.125"/>
<path d="M8.4121 18.1699C8.3521 18.1699 8.30876 18.1433 8.2821 18.0899C8.25543 18.0366 8.25543 17.9666 8.2821 17.8799L10.7721 10.9499C10.7988 10.8766 10.8288 10.8266 10.8621 10.7999C10.8954 10.7666 10.9521 10.7499 11.0321 10.7499H12.5321C12.6788 10.7499 12.7788 10.8233 12.8321 10.9699L15.3021 17.8999C15.3221 17.9533 15.3221 18.0133 15.3021 18.0799C15.2821 18.1399 15.2421 18.1699 15.1821 18.1699H13.7121C13.6121 18.1699 13.5488 18.1233 13.5221 18.0299L13.0021 16.5699C12.9954 16.5366 12.9821 16.5099 12.9621 16.4899C12.9488 16.4699 12.9188 16.4599 12.8721 16.4599H10.4321C10.3654 16.4599 10.3221 16.4933 10.3021 16.5599L9.7721 18.0399C9.75876 18.0799 9.73543 18.1133 9.7021 18.1399C9.67543 18.1599 9.62876 18.1699 9.5621 18.1699H8.4121ZM12.4621 15.1299C12.5554 15.1299 12.5854 15.0733 12.5521 14.9599L11.7121 12.6199C11.6921 12.5799 11.6688 12.5599 11.6421 12.5599C11.6221 12.5599 11.6021 12.5833 11.5821 12.6299L10.7321 14.9599C10.6854 15.0733 10.7154 15.1299 10.8221 15.1299H12.4621ZM18.0369 10.7499C18.1436 10.7499 18.1969 10.8099 18.1969 10.9299V17.9299C18.1969 18.0166 18.1736 18.0799 18.1269 18.1199C18.0869 18.1533 18.0203 18.1699 17.9269 18.1699H16.6669C16.5803 18.1699 16.5203 18.1533 16.4869 18.1199C16.4603 18.0866 16.4469 18.0333 16.4469 17.9599V10.9399C16.4469 10.8133 16.5003 10.7499 16.6069 10.7499H18.0369Z" fill="#1B1A33"/>
</svg>
