<svg width="24" height="25" viewBox="0 0 24 25" fill="none" xmlns="http://www.w3.org/2000/svg">
<path d="M20.1125 17.7519L20.1125 17.7525C20.1031 18.6669 20.0818 19.6798 19.3808 20.3808C18.6798 21.0818 17.6669 21.1031 16.7525 21.1125L16.7519 21.1125L16.7484 21.1126C16.5016 21.1172 16.25 21.122 16.0214 21.1408C15.7925 21.1597 15.5812 21.1931 15.4177 21.2575C15.2531 21.3223 15.0685 21.4545 14.8824 21.6112C14.6954 21.7686 14.5017 21.9552 14.3191 22.1332C13.6681 22.7558 12.9456 23.4375 12 23.4375C11.0544 23.4375 10.3319 22.7558 9.68091 22.1332C9.49826 21.9552 9.3093 21.7733 9.12457 21.6182C8.94035 21.4635 8.75661 21.3322 8.584 21.2582C8.41026 21.1837 8.19803 21.1503 7.97095 21.1338C7.79294 21.1208 7.60158 21.118 7.40843 21.1151C7.35503 21.1143 7.30149 21.1135 7.24805 21.1125L7.24752 21.1125C6.33305 21.1031 5.32017 21.0818 4.61919 20.3808C3.91822 19.6798 3.89692 18.6669 3.8875 17.7525L3.88749 17.7519L3.88742 17.7485C3.88277 17.5017 3.87802 17.2501 3.85916 17.0214C3.84029 16.7925 3.80692 16.5812 3.74253 16.4177C3.67766 16.2531 3.54546 16.0685 3.38883 15.8824C3.23138 15.6954 3.0448 15.5017 2.86685 15.3191C2.24417 14.6681 1.5625 13.9456 1.5625 13C1.5625 12.0544 2.24417 11.3319 2.86685 10.6809C3.04481 10.4983 3.22672 10.3093 3.38185 10.1246C3.53654 9.94035 3.66784 9.75661 3.74182 9.584C3.81628 9.41026 3.84968 9.19803 3.86624 8.97095C3.87922 8.79294 3.88205 8.60157 3.8849 8.40843C3.88569 8.35502 3.88648 8.30148 3.88749 8.24805L3.8875 8.24752C3.89692 7.33305 3.91822 6.32017 4.61919 5.61919C5.32017 4.91822 6.33305 4.89692 7.24752 4.8875L7.24805 4.88749L7.25147 4.88742C7.49834 4.88277 7.74993 4.87802 7.97857 4.85916C8.20746 4.84029 8.41882 4.80692 8.58228 4.74253C8.74693 4.67766 8.93152 4.54546 9.11759 4.38883C9.30464 4.23138 9.49827 4.0448 9.6809 3.86685C10.3319 3.24417 11.0544 2.5625 12 2.5625C12.9456 2.5625 13.6681 3.24417 14.3191 3.86685C14.5017 4.04481 14.6907 4.22672 14.8754 4.38185C15.0596 4.53654 15.2434 4.66784 15.416 4.74182C15.5897 4.81628 15.802 4.84968 16.029 4.86624C16.2071 4.87922 16.3984 4.88205 16.5916 4.8849C16.645 4.88569 16.6985 4.88648 16.7519 4.88749L16.7525 4.8875C17.6669 4.89692 18.6798 4.91822 19.3808 5.61919C20.0818 6.32017 20.1031 7.33305 20.1125 8.24752L20.1125 8.24805L20.1126 8.25157C20.1172 8.4984 20.122 8.74996 20.1408 8.97858C20.1597 9.20746 20.1931 9.41882 20.2575 9.58228C20.3223 9.74693 20.4545 9.93152 20.6112 10.1176C20.7686 10.3046 20.9552 10.4983 21.1332 10.6809C21.7558 11.3319 22.4375 12.0544 22.4375 13C22.4375 13.9456 21.7558 14.6681 21.1332 15.3191C20.9552 15.5017 20.7733 15.6907 20.6182 15.8754C20.4635 16.0596 20.3322 16.2434 20.2582 16.416C20.1837 16.5897 20.1503 16.802 20.1338 17.029C20.1208 17.2071 20.118 17.3984 20.1151 17.5916C20.1143 17.645 20.1135 17.6985 20.1125 17.7519Z" fill="#55C090" stroke="#55C090" stroke-width="0.125"/>
<path d="M6.49543 16C6.43543 16 6.3921 15.9733 6.36543 15.92C6.33876 15.8667 6.33876 15.7967 6.36543 15.71L8.85543 8.78C8.8821 8.70667 8.9121 8.65667 8.94543 8.63C8.97876 8.59667 9.03543 8.58 9.11543 8.58H10.6154C10.7621 8.58 10.8621 8.65333 10.9154 8.8L13.3854 15.73C13.4054 15.7833 13.4054 15.8433 13.3854 15.91C13.3654 15.97 13.3254 16 13.2654 16H11.7954C11.6954 16 11.6321 15.9533 11.6054 15.86L11.0854 14.4C11.0788 14.3667 11.0654 14.34 11.0454 14.32C11.0321 14.3 11.0021 14.29 10.9554 14.29H8.51543C8.44876 14.29 8.40543 14.3233 8.38543 14.39L7.85543 15.87C7.8421 15.91 7.81876 15.9433 7.78543 15.97C7.75876 15.99 7.7121 16 7.64543 16H6.49543ZM10.5454 12.96C10.6388 12.96 10.6688 12.9033 10.6354 12.79L9.79543 10.45C9.77543 10.41 9.7521 10.39 9.72543 10.39C9.70543 10.39 9.68543 10.4133 9.66543 10.46L8.81543 12.79C8.76876 12.9033 8.79876 12.96 8.90543 12.96H10.5454ZM16.1203 8.58C16.2269 8.58 16.2803 8.64 16.2803 8.76V15.76C16.2803 15.8467 16.2569 15.91 16.2103 15.95C16.1703 15.9833 16.1036 16 16.0103 16H14.7503C14.6636 16 14.6036 15.9833 14.5703 15.95C14.5436 15.9167 14.5303 15.8633 14.5303 15.79V8.77C14.5303 8.64333 14.5836 8.58 14.6903 8.58H16.1203Z" fill="white"/>
</svg>
