<svg width="15" height="17" viewBox="0 0 15 17" fill="none" xmlns="http://www.w3.org/2000/svg">
    <path d="M11.9118 8.90029C11.9079 7.58932 12.5379 6.6016 13.8095 5.87644C13.1018 4.91358 12.0302 4.38192 10.6135 4.27439C9.27247 4.17064 7.80408 5.00599 7.26754 5.0045C6.70077 5.00292 5.40293 4.2956 4.38275 4.29276C2.27427 4.31904 0.0292996 5.87022 0.0204789 9.03865C0.0178735 9.97453 0.196548 10.9419 0.556504 11.9407C1.0365 13.253 2.7732 16.4727 4.59458 16.4242C5.54681 16.4054 6.2211 15.7893 7.46044 15.7928C8.66199 15.7961 9.28366 16.4372 10.3454 16.4402C12.1818 16.4203 13.7694 13.5027 14.234 12.1895C11.7735 11.086 11.9116 8.96816 11.9118 8.90029ZM9.78952 3.02901C10.8243 1.87453 10.7327 0.820507 10.7036 0.441784C9.79281 0.489257 8.73713 1.02213 8.13451 1.68129C7.47131 2.38672 7.07969 3.26079 7.16007 4.24691C8.14605 4.3211 9.04666 3.84495 9.78952 3.02901Z"
          fill="white" fill-opacity="0.87"/>
</svg>
