<svg width="17" height="20" viewBox="0 0 17 20" fill="none" xmlns="http://www.w3.org/2000/svg">
<path d="M1.85392 7.41412C1.85274 6.56888 2.01886 5.73177 2.34271 4.95103C2.66657 4.1703 3.14174 3.46138 3.74086 2.86515C4.33997 2.26891 5.05116 1.79715 5.83345 1.47706C6.61573 1.15697 7.45363 0.994875 8.29886 1.00012C11.8257 1.02634 14.6468 3.95789 14.6468 7.49464V8.12681C14.6468 11.3175 15.3143 13.169 15.9023 14.1809C15.9656 14.289 15.9993 14.412 16 14.5373C16.0007 14.6626 15.9683 14.7858 15.9061 14.8946C15.8439 15.0034 15.7542 15.0939 15.6459 15.157C15.5375 15.22 15.4145 15.2533 15.2892 15.2537H1.21077C1.08544 15.2533 0.962421 15.22 0.854109 15.1569C0.745797 15.0939 0.656029 15.0034 0.593859 14.8946C0.53169 14.7857 0.499319 14.6625 0.500011 14.5371C0.500703 14.4118 0.534435 14.2889 0.597803 14.1808C1.18606 13.1688 1.85391 11.3173 1.85391 8.12681L1.85392 7.41412Z" stroke="white" stroke-linecap="round" stroke-linejoin="round"/>
<path d="M5.39929 15.2539V15.9666C5.39929 16.7227 5.69964 17.4478 6.23426 17.9824C6.76887 18.517 7.49397 18.8173 8.25004 18.8173C9.0061 18.8173 9.7312 18.517 10.2658 17.9824C10.8004 17.4478 11.1008 16.7227 11.1008 15.9666V15.2539" stroke="white" stroke-linecap="round" stroke-linejoin="round"/>
</svg>
