<svg width="25" height="25" viewBox="0 0 25 25" fill="none" xmlns="http://www.w3.org/2000/svg">
<path d="M9.50005 9.78741H15.5" stroke="white" stroke-opacity="0.6" stroke-linecap="round" stroke-linejoin="round"/>
<path d="M9.50005 12.7874H15.5" stroke="white" stroke-opacity="0.6" stroke-linecap="round" stroke-linejoin="round"/>
<path d="M14.5315 18.4016L13.1431 20.7156C13.0764 20.8266 12.9822 20.9185 12.8695 20.9823C12.7568 21.0462 12.6295 21.0797 12.5 21.0797C12.3704 21.0797 12.2431 21.0462 12.1304 20.9823C12.0177 20.9185 11.9235 20.8266 11.8568 20.7156L10.4684 18.4016C10.4018 18.2905 10.3075 18.1986 10.1948 18.1348C10.0821 18.071 9.95483 18.0374 9.82531 18.0374H4.24995C4.05104 18.0374 3.86028 17.9584 3.71962 17.8178C3.57897 17.6771 3.49995 17.4863 3.49995 17.2874V5.28748C3.49995 5.08856 3.57897 4.8978 3.71962 4.75715C3.86028 4.61649 4.05104 4.53748 4.24995 4.53748H20.75C20.9489 4.53748 21.1396 4.61649 21.2803 4.75715C21.4209 4.8978 21.5 5.08856 21.5 5.28748V17.2875C21.5 17.4864 21.4209 17.6772 21.2803 17.8178C21.1396 17.9585 20.9489 18.0375 20.75 18.0375L15.1746 18.0374C15.0451 18.0374 14.9178 18.071 14.8051 18.1348C14.6924 18.1986 14.5981 18.2905 14.5315 18.4016V18.4016Z" stroke="white" stroke-opacity="0.6" stroke-linecap="round" stroke-linejoin="round"/>
</svg>
