<svg width="34" height="33" viewBox="0 0 34 33" fill="none" xmlns="http://www.w3.org/2000/svg">
<path d="M17.2299 10.5C18.377 10.5 19.3069 9.60457 19.3069 8.5C19.3069 7.39543 18.377 6.5 17.2299 6.5C16.0827 6.5 15.1528 7.39543 15.1528 8.5C15.1528 9.60457 16.0827 10.5 17.2299 10.5Z" fill="white"/>
<path d="M17.2299 18.5C18.377 18.5 19.3069 17.6046 19.3069 16.5C19.3069 15.3954 18.377 14.5 17.2299 14.5C16.0827 14.5 15.1528 15.3954 15.1528 16.5C15.1528 17.6046 16.0827 18.5 17.2299 18.5Z" fill="white"/>
<path d="M17.2299 26.5C18.377 26.5 19.3069 25.6046 19.3069 24.5C19.3069 23.3954 18.377 22.5 17.2299 22.5C16.0827 22.5 15.1528 23.3954 15.1528 24.5C15.1528 25.6046 16.0827 26.5 17.2299 26.5Z" fill="white"/>
</svg>
