<svg width="185" height="116" viewBox="0 0 185 116" fill="none" xmlns="http://www.w3.org/2000/svg">
<path d="M53.94 41.8439V83.5832C53.94 84.4347 54.2783 85.2514 54.8804 85.8535C55.4825 86.4557 56.2992 86.7939 57.1507 86.7939H127.786C128.638 86.7939 129.455 86.4557 130.057 85.8535C130.659 85.2514 130.997 84.4347 130.997 83.5832V41.8439L92.4686 16.1582L53.94 41.8439Z" stroke="#C3C3C3" stroke-width="2" stroke-linecap="round" stroke-linejoin="round"/>
<path d="M85.4451 64.3184L54.9434 85.8703" stroke="#C3C3C3" stroke-width="2" stroke-linecap="round" stroke-linejoin="round"/>
<path d="M129.994 85.8703L99.4921 64.3184" stroke="#C3C3C3" stroke-width="2" stroke-linecap="round" stroke-linejoin="round"/>
<path d="M130.997 41.8438L99.492 64.3187H85.4451L53.94 41.8438" stroke="#C3C3C3" stroke-width="2" stroke-linecap="round" stroke-linejoin="round"/>
<path d="M165.627 99.6088H19.144C18.9282 99.6088 18.7321 99.4322 18.7321 99.1966V8.32436C18.7321 8.10842 18.9086 7.91211 19.144 7.91211H165.627C165.843 7.91211 166.039 8.08879 166.039 8.32436V99.1966C166.039 99.4322 165.862 99.6088 165.627 99.6088ZM19.5559 98.804H165.235V8.73661H19.5559V98.804Z" fill="#C3C3C3"/>
<path d="M112.824 109.011H71.9666C71.9077 109.011 71.8293 108.992 71.7704 108.952L68.3771 107.048H10.6508C10.435 107.048 10.2389 106.872 10.2389 106.636V7.57759C10.2585 3.39618 13.6519 0 17.8102 0H166.98C171.158 0 174.552 3.39618 174.552 7.57759V106.675C174.552 106.891 174.375 107.087 174.14 107.087H116.414L113.02 108.992C112.961 108.992 112.883 109.011 112.824 109.011ZM72.0646 108.206H112.706L116.1 106.302C116.159 106.263 116.217 106.243 116.296 106.243H173.708V7.57759C173.708 3.84769 170.668 0.824505 166.961 0.824505H17.8102C14.0834 0.824505 11.0627 3.86732 11.0627 7.57759V106.263H68.4751C68.534 106.263 68.6124 106.283 68.6713 106.322L72.0646 108.206ZM165.647 99.6081H19.1636C18.9478 99.6081 18.7517 99.4314 18.7517 99.1958V8.32358C18.7517 8.10763 18.9282 7.91132 19.1636 7.91132H165.647C165.862 7.91132 166.059 8.088 166.059 8.32358V99.1958C166.039 99.4314 165.862 99.6081 165.647 99.6081ZM19.5559 98.8032H165.235V8.73583H19.5559V98.8032Z" fill="#C3C3C3"/>
<path d="M165.627 99.6088H19.144C18.9282 99.6088 18.7321 99.4322 18.7321 99.1966V8.32436C18.7321 8.10842 18.9086 7.91211 19.144 7.91211H165.627C165.843 7.91211 166.039 8.08879 166.039 8.32436V99.1966C166.039 99.4322 165.862 99.6088 165.627 99.6088ZM19.5559 98.804H165.235V8.73661H19.5559V98.804Z" fill="#C3C3C3"/>
<path d="M92.3855 6.63449C91.1302 6.63449 90.1102 5.61367 90.1102 4.35728C90.1102 3.10089 91.1302 2.08008 92.3855 2.08008C93.6409 2.08008 94.6609 3.10089 94.6609 4.35728C94.6609 5.61367 93.6409 6.63449 92.3855 6.63449ZM92.3855 2.90458C91.5813 2.90458 90.9144 3.55241 90.9144 4.35728C90.9144 5.16216 91.5617 5.82961 92.3855 5.82961C93.1898 5.82961 93.837 5.18179 93.837 4.35728C93.8567 3.57204 93.2094 2.90458 92.3855 2.90458Z" fill="#C3C3C3"/>
<path d="M176.709 116.001H8.25782C5.27637 116.001 2.51069 114.509 0.902279 111.976L0.784591 111.8C0.274607 111.014 0.0196148 110.111 0 109.189V106.656C0 106.44 0.176533 106.244 0.41191 106.244H184.398C184.614 106.244 184.81 106.421 184.81 106.656V109.444C184.81 110.386 184.536 111.289 184.045 112.055C182.398 114.528 179.652 116.001 176.709 116.001ZM0.804205 107.069V109.169C0.804205 109.954 1.03958 110.72 1.45149 111.368L1.56918 111.545C3.04029 113.822 5.53136 115.196 8.25782 115.196H176.709C179.397 115.196 181.868 113.861 183.339 111.623C183.751 110.995 183.967 110.249 183.987 109.464V107.088H0.804205V107.069Z" fill="#C3C3C3"/>
<path d="M184.104 111.114H0.686507C0.470745 111.114 0.274597 110.937 0.274597 110.701C0.274597 110.485 0.45113 110.289 0.686507 110.289H184.124C184.34 110.289 184.536 110.466 184.536 110.701C184.516 110.937 184.34 111.114 184.104 111.114Z" fill="#C3C3C3"/>
<path d="M8.59129 114.391C8.49322 114.391 8.37553 114.351 8.29707 114.273L6.43367 112.408C6.27675 112.251 6.27675 111.996 6.43367 111.838C6.59059 111.681 6.84558 111.681 7.0025 111.838L8.8659 113.703C9.02282 113.86 9.02282 114.116 8.8659 114.273C8.80705 114.351 8.68936 114.391 8.59129 114.391Z" fill="#C3C3C3"/>
<path d="M11.4158 114.391C11.3177 114.391 11.2001 114.351 11.1216 114.273L9.25819 112.408C9.10127 112.251 9.10127 111.996 9.25819 111.838C9.41511 111.681 9.6701 111.681 9.82702 111.838L11.6904 113.703C11.8473 113.86 11.8473 114.116 11.6904 114.273C11.6316 114.351 11.5139 114.391 11.4158 114.391Z" fill="#C3C3C3"/>
<path d="M14.2403 114.391C14.1423 114.391 14.0246 114.351 13.9461 114.273L12.0827 112.408C11.9258 112.251 11.9258 111.996 12.0827 111.838C12.2396 111.681 12.4946 111.681 12.6515 111.838L14.5149 113.703C14.6719 113.86 14.6719 114.116 14.5149 114.273C14.4365 114.351 14.3384 114.391 14.2403 114.391Z" fill="#C3C3C3"/>
<path d="M17.0649 114.391C16.9668 114.391 16.8491 114.351 16.7706 114.273L14.9072 112.408C14.7503 112.251 14.7503 111.996 14.9072 111.838C15.0642 111.681 15.3191 111.681 15.4761 111.838L17.3395 113.703C17.4964 113.86 17.4964 114.116 17.3395 114.273C17.261 114.351 17.1629 114.391 17.0649 114.391Z" fill="#C3C3C3"/>
<path d="M19.8894 114.391C19.7913 114.391 19.6736 114.351 19.5952 114.273L17.7318 112.408C17.5748 112.251 17.5748 111.996 17.7318 111.838C17.8887 111.681 18.1437 111.681 18.3006 111.838L20.164 113.703C20.3209 113.86 20.3209 114.116 20.164 114.273C20.0855 114.351 19.9875 114.391 19.8894 114.391Z" fill="#C3C3C3"/>
<path d="M176.199 114.391C176.101 114.391 175.984 114.351 175.905 114.273C175.748 114.116 175.748 113.86 175.905 113.703L177.769 111.838C177.926 111.681 178.181 111.681 178.337 111.838C178.494 111.996 178.494 112.251 178.337 112.408L176.474 114.273C176.396 114.351 176.298 114.391 176.199 114.391Z" fill="#C3C3C3"/>
<path d="M173.375 114.391C173.277 114.391 173.159 114.351 173.081 114.273C172.924 114.116 172.924 113.86 173.081 113.703L174.944 111.838C175.101 111.681 175.356 111.681 175.513 111.838C175.67 111.996 175.67 112.251 175.513 112.408L173.65 114.273C173.571 114.351 173.473 114.391 173.375 114.391Z" fill="#C3C3C3"/>
<path d="M170.55 114.391C170.452 114.391 170.335 114.351 170.256 114.273C170.099 114.116 170.099 113.86 170.256 113.703L172.12 111.838C172.276 111.681 172.531 111.681 172.688 111.838C172.845 111.996 172.845 112.251 172.688 112.408L170.825 114.273C170.747 114.351 170.648 114.391 170.55 114.391Z" fill="#C3C3C3"/>
<path d="M167.726 114.391C167.628 114.391 167.51 114.351 167.432 114.273C167.275 114.116 167.275 113.86 167.432 113.703L169.295 111.838C169.452 111.681 169.707 111.681 169.864 111.838C170.021 111.996 170.021 112.251 169.864 112.408L168 114.273C167.942 114.351 167.824 114.391 167.726 114.391Z" fill="#C3C3C3"/>
<path d="M164.901 114.391C164.803 114.391 164.686 114.351 164.607 114.273C164.45 114.116 164.45 113.86 164.607 113.703L166.471 111.838C166.627 111.681 166.882 111.681 167.039 111.838C167.196 111.996 167.196 112.251 167.039 112.408L165.176 114.273C165.117 114.351 165.019 114.391 164.901 114.391Z" fill="#C3C3C3"/>
<path d="M65.6229 50.0461V23.8633H119.646V49.3833L99.4286 63.9661H85.5086L65.6229 50.0461Z" fill="#714EFD"/>
</svg>
