<svg width="118" height="118" viewBox="0 0 118 118" fill="none" xmlns="http://www.w3.org/2000/svg">
<path d="M118 59C118 64.4786 114.049 68.6402 110.572 72.275C108.571 74.3295 106.516 76.4893 105.726 78.333C104.936 80.1768 104.988 82.9161 104.936 85.708C104.883 90.8179 104.778 96.6652 100.721 100.721C96.6652 104.778 90.8179 104.883 85.708 104.936C82.9161 104.988 80.0714 105.041 78.333 105.726C76.5946 106.411 74.3295 108.571 72.275 110.572C68.6402 114.049 64.4786 118 59 118C53.5214 118 49.3598 114.049 45.725 110.572C43.6705 108.571 41.5107 106.516 39.667 105.726C37.8232 104.936 35.0839 104.988 32.292 104.936C27.1821 104.883 21.3348 104.778 17.2786 100.721C13.2223 96.6652 13.117 90.8179 13.0643 85.708C13.0116 82.9161 12.9589 80.0714 12.2741 78.333C11.5893 76.5946 9.42946 74.3295 7.42768 72.275C3.95089 68.6402 0 64.4786 0 59C0 53.5214 3.95089 49.3598 7.42768 45.725C9.42946 43.6705 11.4839 41.5107 12.2741 39.667C13.0643 37.8232 13.0116 35.0839 13.0643 32.292C13.117 27.1821 13.2223 21.3348 17.2786 17.2786C21.3348 13.2223 27.1821 13.117 32.292 13.0643C35.0839 13.0116 37.9286 12.9589 39.667 12.2741C41.4054 11.5893 43.6705 9.42946 45.725 7.42768C49.3598 3.95089 53.5214 0 59 0C64.4786 0 68.6402 3.95089 72.275 7.42768C74.3295 9.42946 76.4893 11.4839 78.333 12.2741C80.1768 13.0643 82.9161 13.0116 85.708 13.0643C90.8179 13.117 96.6652 13.2223 100.721 17.2786C104.778 21.3348 104.883 27.1821 104.936 32.292C104.988 35.0839 105.041 37.9286 105.726 39.667C106.411 41.4054 108.571 43.6705 110.572 45.725C114.049 49.3598 118 53.5214 118 59Z" fill="#55C090"/>
<path d="M38.0747 47.1078C38.0747 46.6239 38.2785 46.3819 38.686 46.3819H57.6379C58.02 46.3819 58.2111 46.5984 58.2111 47.0314L58.1729 50.4703C58.1729 51.0052 57.9181 51.2727 57.4087 51.2727H45.4873C45.2326 51.2727 45.0415 51.3236 44.9142 51.4255C44.8123 51.5274 44.7613 51.6803 44.7613 51.884V57.8065C44.7613 58.2141 44.9524 58.4179 45.3345 58.4179H53.6259C54.0335 58.4179 54.2373 58.6217 54.2373 59.0292V62.6591C54.2373 63.0157 54.0462 63.1941 53.6642 63.1941H45.2963C44.9396 63.1941 44.7613 63.3596 44.7613 63.6908V73.8545C44.7613 74.1857 44.6849 74.4149 44.5321 74.5423C44.3792 74.6697 44.1245 74.7333 43.7679 74.7333H38.9153C38.6096 74.7333 38.3931 74.6697 38.2657 74.5423C38.1384 74.4149 38.0747 74.2111 38.0747 73.9309V47.1078Z" fill="white"/>
<path d="M57.4209 74.7333C57.0388 74.7333 56.8478 74.5168 56.8478 74.0838C56.8478 73.88 56.8733 73.7272 56.9242 73.6253L66.4384 47.1461C66.5403 46.8659 66.6549 46.6748 66.7823 46.5729C66.9351 46.4455 67.1516 46.3819 67.4318 46.3819H73.1633C73.4435 46.3819 73.6855 46.4583 73.8892 46.6111C74.093 46.764 74.2331 46.9677 74.3095 47.2225L83.7473 73.7017C83.7982 73.8545 83.8237 73.9691 83.8237 74.0456C83.8237 74.2494 83.7728 74.4149 83.6709 74.5423C83.5945 74.6697 83.4671 74.7333 83.2888 74.7333H77.672C77.2899 74.7333 77.0479 74.555 76.946 74.1984L74.9591 68.6198C74.9082 68.467 74.8445 68.3651 74.7681 68.3141C74.7171 68.2377 74.6152 68.1995 74.4624 68.1995H65.1393C64.8845 68.1995 64.7189 68.3269 64.6425 68.5816L62.6174 74.2366C62.4646 74.5678 62.1971 74.7333 61.815 74.7333H57.4209ZM72.8958 63.1176C73.1505 63.1176 73.2779 63.0157 73.2779 62.812C73.2779 62.6591 73.2651 62.5445 73.2397 62.4681L70.0301 53.5271C69.9537 53.3742 69.8645 53.2978 69.7626 53.2978C69.6862 53.2978 69.6098 53.3869 69.5333 53.5653L66.2855 62.4681C66.2346 62.6209 66.2091 62.7355 66.2091 62.812C66.2091 63.0157 66.3492 63.1176 66.6294 63.1176H72.8958Z" fill="white"/>
</svg>
