<svg width="22" height="22" viewBox="0 0 22 22" fill="none" xmlns="http://www.w3.org/2000/svg">
<path d="M19.3421 3.38466C17.8311 1.65088 15.8001 0.462401 13.5581 0V0.775086C18.0437 1.86664 20.9625 5.82329 20.9507 10.4705C20.939 15.1176 17.6797 19.2148 13.2176 20.181C10.5437 20.6092 8.73539 20.1675 8.71362 20.1624C4.28508 19.1589 1.06098 15.0854 1.04756 10.4705C1.02464 8.25215 1.74114 6.09042 3.08206 4.33217C4.42299 2.57395 6.31059 1.32123 8.44186 0.775086V0C6.21135 0.492591 4.18919 1.67594 2.65794 3.38466C0.917111 5.3247 -0.0320824 7.85714 0.000828024 10.4738C0.0159252 15.6134 3.61074 20.132 8.55592 21.2184C9.33819 21.3642 10.1324 21.435 10.9279 21.43C11.7413 21.4332 12.5537 21.3693 13.3568 21.2388C18.3523 20.1861 21.984 15.6541 21.9991 10.4721C22.0328 7.85581 21.0835 5.32365 19.3421 3.38466Z" fill="white"/>
<path d="M5.50139 10.3538C5.49991 11.5753 5.90599 12.7617 6.65428 13.722C7.40251 14.6823 8.44942 15.3605 9.62631 15.6475C10.0821 15.7387 10.5456 15.7846 11.0102 15.7845C11.4494 15.7869 11.8877 15.7449 12.3186 15.6593C13.5097 15.3857 14.5729 14.7113 15.3336 13.7471C16.0942 12.7829 16.507 11.5861 16.5039 10.3538C16.5039 8.27396 15.4672 6.53423 13.5616 5.64746V6.42256C14.0955 6.73787 14.5461 7.17847 14.8751 7.70704C15.3007 8.32545 15.5707 9.03913 15.6619 9.78635C15.7531 10.5336 15.6627 11.292 15.3985 11.9961C15.1344 12.7002 14.7043 13.3289 14.1455 13.828C13.5867 14.327 12.9159 14.6814 12.1912 14.8605C11.3964 15.0044 10.5824 15.001 9.78899 14.8504C8.91866 14.6242 8.13268 14.1467 7.52739 13.4765C6.92204 12.8063 6.52379 11.9724 6.38131 11.0771C6.23883 10.1819 6.35838 9.26421 6.72532 8.43654C7.09226 7.60881 7.6906 6.90711 8.44705 6.41746V5.64746C7.55761 6.06068 6.80597 6.72513 6.28318 7.56045C5.76037 8.39576 5.48882 9.36603 5.50139 10.3538Z" fill="white"/>
<path d="M13.558 3.45395C15.0253 4.00403 16.2845 5.00502 17.1578 6.31568C17.8153 7.30836 18.2243 8.44712 18.3496 9.63435C18.4748 10.8215 18.3126 12.0217 17.877 13.1317C17.4413 14.2418 16.7451 15.2286 15.8482 16.0075C14.9513 16.7864 13.8805 17.3341 12.7276 17.6035C11.5635 17.83 10.3666 17.8236 9.20492 17.5849C7.68223 17.209 6.31916 16.3504 5.31601 15.135C4.31285 13.9198 3.72248 12.4119 3.63162 10.8331C3.54077 9.25423 3.95423 7.68762 4.81125 6.36335C5.66828 5.03913 6.92369 4.02709 8.393 3.47595L8.44001 3.46072V2.74993L8.32926 2.78209C4.91396 3.87534 2.68461 6.87246 2.68461 10.4247C2.67916 12.3039 3.30539 14.1294 4.46104 15.6032C5.6132 17.0729 7.22822 18.1016 9.03888 18.5191C9.66599 18.6418 10.3041 18.6985 10.9428 18.6883C11.5918 18.6878 12.2397 18.6347 12.8803 18.5292C14.7022 18.1089 16.3295 17.0788 17.4972 15.6066C18.665 14.1344 19.3045 12.3068 19.3117 10.4212C19.3117 6.83522 16.6646 3.77549 13.7861 2.81424L13.5563 2.74316L13.558 3.45395Z" fill="white"/>
</svg>
