<svg width="27" height="25" viewBox="0 0 27 25" fill="none" xmlns="http://www.w3.org/2000/svg">
<path d="M23.4974 15.8L23.5274 15.7062C24.3006 13.6303 24.3006 11.3697 23.5274 9.29375L23.4974 9.2C22.7705 7.31222 21.4412 5.68031 19.6905 4.52624C17.9397 3.37218 15.8525 2.75197 13.7127 2.75V2.75C11.5729 2.75197 9.48565 3.37218 7.73492 4.52624C5.98418 5.68031 4.65493 7.31222 3.92797 9.2L3.89799 9.29375C3.12482 11.3697 3.12482 13.6303 3.89799 15.7062L3.92797 15.8C4.6574 17.6863 5.98727 19.3167 7.73746 20.4704C9.48764 21.6241 11.5736 22.2453 13.7127 22.25V22.25C15.8525 22.248 17.9397 21.6278 19.6905 20.4738C21.4412 19.3197 22.7705 17.6878 23.4974 15.8ZM13.7127 4.775C14.877 5.89841 15.7492 7.25871 16.2613 8.75H11.1641C11.6762 7.25871 12.5484 5.89841 13.7127 4.775V4.775ZM11.1641 16.25H16.2613C15.7492 17.7413 14.877 19.1016 13.7127 20.225C12.5484 19.1016 11.6762 17.7413 11.1641 16.25V16.25ZM10.7443 14.75C10.4379 13.2638 10.4379 11.7362 10.7443 10.25H16.6811C16.9875 11.7362 16.9875 13.2638 16.6811 14.75H10.7443ZM18.3102 10.25H22.1781C22.618 11.7216 22.618 13.2784 22.1781 14.75H18.3102C18.5767 13.2604 18.5767 11.7396 18.3102 10.25V10.25ZM21.5485 8.75H17.9504C17.4695 7.1706 16.6499 5.69994 15.5417 4.42813C16.8212 4.68728 18.0236 5.2093 19.0623 5.95661C20.1009 6.70393 20.95 7.65795 21.5485 8.75V8.75ZM15.5417 20.5719C16.6499 19.3001 17.4695 17.8294 17.9504 16.25H21.5485C20.95 17.3421 20.1009 18.2961 19.0623 19.0434C18.0236 19.7907 16.8212 20.3127 15.5417 20.5719V20.5719Z" fill="white"/>
</svg>
