<svg width="12" height="12" viewBox="0 0 12 12" fill="none" xmlns="http://www.w3.org/2000/svg">
<path d="M10.3873 8.12362C10.7096 7.46226 10.8764 6.73592 10.8748 6.00019C10.8734 4.92636 10.5181 3.88294 9.86394 3.03136C9.20978 2.17977 8.29323 1.5675 7.25608 1.28925H7.23264C6.47214 1.08903 5.67445 1.07612 4.90787 1.25164C4.1413 1.42716 3.42869 1.78588 2.83108 2.29706L2.77014 2.35331C2.0281 3.00821 1.50319 3.87364 1.26532 4.83434C1.02745 5.79503 1.08791 6.8054 1.43866 7.73087C1.7894 8.65635 2.41377 9.453 3.22862 10.0147C4.04347 10.5765 5.01012 10.8766 5.99983 10.8752H6.11233C6.99751 10.8533 7.86014 10.5915 8.60811 10.1176C9.35608 9.6437 9.96132 8.97558 10.3592 8.18456L10.3873 8.12362ZM10.1248 6.00019C10.124 6.49128 10.0367 6.9784 9.86702 7.43925L7.69202 6.10331C7.6023 6.04692 7.50165 6.01017 7.3967 5.9955L6.32795 5.85488C6.19067 5.83712 6.05116 5.85747 5.92467 5.91369C5.79817 5.96991 5.68958 6.05983 5.61077 6.17362H5.20764L5.02952 5.80331C4.97962 5.70105 4.90737 5.6113 4.81812 5.54072C4.72887 5.47013 4.6249 5.4205 4.51389 5.3955L4.20452 5.32987L4.3217 5.05331C4.3509 4.98542 4.39927 4.92753 4.46088 4.88673C4.5225 4.84593 4.59468 4.824 4.66858 4.82363H5.42327C5.54953 4.82306 5.67363 4.79083 5.7842 4.72988L6.35608 4.41113C6.40654 4.38377 6.45372 4.35074 6.4967 4.31269L7.75764 3.16894C7.8674 3.0727 7.94607 2.946 7.98363 2.80493C8.02119 2.66387 8.01595 2.51483 7.96858 2.37675C8.62068 2.73092 9.16516 3.25445 9.54465 3.89215C9.92414 4.52985 10.1246 5.25811 10.1248 6.00019ZM1.87483 6.00019C1.87376 5.35336 2.02639 4.71553 2.32014 4.13925L2.80764 5.44706C2.85222 5.5642 2.92528 5.6684 3.02021 5.75023C3.11514 5.83207 3.22896 5.88898 3.35139 5.91581L3.6092 5.97206H3.61389L4.17639 6.09394C4.23207 6.1052 4.28436 6.12928 4.32911 6.16426C4.37386 6.19925 4.40984 6.24418 4.4342 6.2955L4.53264 6.50175C4.59466 6.62798 4.69073 6.73437 4.81 6.80892C4.92927 6.88346 5.06699 6.92319 5.20764 6.92362H5.26389L4.90295 7.72987C4.84196 7.86362 4.82188 8.01241 4.84523 8.15754C4.86859 8.30266 4.93433 8.43764 5.0342 8.5455L5.78889 9.36112C5.82775 9.40457 5.85635 9.45619 5.87257 9.51217C5.8888 9.56816 5.89224 9.62707 5.88264 9.68456L5.79827 10.1205C4.74076 10.0676 3.74397 9.61057 3.01381 8.84377C2.28365 8.07697 1.87591 7.05901 1.87483 6.00019Z" fill="white" fill-opacity="0.6"/>
</svg>
