<svg width="21" height="20" viewBox="0 0 21 20" fill="none" xmlns="http://www.w3.org/2000/svg">
<path d="M18.0236 3.12479C16.6055 1.55288 14.8101 0.444929 12.6337 0V0.715116C16.8128 1.72379 19.5326 5.37669 19.5214 9.66652C19.5091 13.9677 16.4742 17.7375 12.316 18.6299C9.82432 19.026 8.1395 18.6181 8.11855 18.6129C3.9921 17.6871 0.988344 13.926 0.976079 9.66652C0.963815 5.4163 3.75924 1.7706 7.86628 0.715116V0C5.74556 0.462931 3.86434 1.58785 2.47591 3.12684C0.849858 4.92713 -0.00660486 7.19035 3.83542e-05 9.67064C0.0133248 14.4152 3.36457 18.5862 7.97189 19.5892C8.70091 19.7238 9.44087 19.7892 10.182 19.7847C10.9401 19.7869 11.6972 19.7278 12.4458 19.6077C17.1002 18.6366 20.4846 14.4573 20.5 9.66858C20.5066 7.18984 19.6501 4.92662 18.0236 3.12479Z" fill="#878786"/>
<path d="M5.12494 9.55879C5.12358 10.6857 5.50264 11.7804 6.20116 12.6667C6.89968 13.5529 7.87706 14.1793 8.97609 14.4451C9.40035 14.5295 9.83198 14.5717 10.2646 14.5709C10.6741 14.5737 11.0829 14.5352 11.4846 14.4559C12.5938 14.1994 13.5827 13.5752 14.2895 12.6855C14.9962 11.7959 15.3789 10.6935 15.3749 9.55879C15.3749 7.63847 14.4087 6.03248 12.6337 5.21484V5.92996C13.1824 6.24597 13.4951 6.5972 13.857 7.11563C14.2548 7.68628 14.5073 8.34478 14.5927 9.03434C14.6782 9.72391 14.594 10.4238 14.3475 11.0738C14.1009 11.7237 13.6994 12.3041 13.1776 12.7649C12.6558 13.2257 12.0293 13.5531 11.3521 13.7189C10.6116 13.8509 9.85308 13.8476 9.1137 13.7091C8.29908 13.5016 7.56337 13.0607 6.99751 12.441C6.43165 11.8212 6.06046 11.0499 5.92984 10.2222C5.79922 9.39448 5.91489 8.5468 6.26255 7.78392C6.61021 7.02104 7.15484 6.37233 7.86622 5.92566V5.21484C6.13702 6.04327 5.12494 7.66826 5.12494 9.55879Z" fill="#878786"/>
<path d="M12.6337 3.18873C13.9149 3.65057 15.1718 4.59558 15.9883 5.82404C16.8049 7.0525 17.2017 8.51467 17.1189 9.98979C17.036 11.4649 16.4781 12.8729 15.5292 14.0012C14.5804 15.1295 13.2921 15.9168 11.859 16.2443C11.7931 16.2593 10.2325 16.5944 8.57875 16.2273C7.16022 15.8888 5.88828 15.099 4.95211 13.9754C4.01593 12.8518 3.46553 11.4545 3.38277 9.99118C3.30002 8.5279 3.68932 7.07684 4.49278 5.85384C5.29624 4.63083 6.45032 3.7016 7.82155 3.20362L7.86624 3.18873V2.5332L7.76195 2.563C4.58051 3.57133 2.5029 6.33889 2.5029 9.61882C2.49826 11.3551 3.08216 13.0411 4.15838 14.3991C5.2346 15.757 6.73891 16.7059 8.42341 17.0893C8.4517 17.0955 9.12708 17.2527 10.198 17.2527C10.8028 17.2523 11.4065 17.2033 12.0035 17.1063C15.4709 16.3421 17.9914 13.1935 17.9971 9.62037C17.9971 6.31097 15.5292 3.48669 12.8482 2.59939L12.6337 2.5332V3.18873Z" fill="#878786"/>
</svg>
