<svg width="24" height="25" viewBox="0 0 24 25" fill="none" xmlns="http://www.w3.org/2000/svg">
<path d="M2.99945 9.78748H7.49945V19.5375H2.99945C2.80054 19.5375 2.60977 19.4585 2.46912 19.3178C2.32847 19.1772 2.24945 18.9864 2.24945 18.7875V10.5375C2.24945 10.3386 2.32847 10.1478 2.46912 10.0071C2.60977 9.86649 2.80054 9.78748 2.99945 9.78748V9.78748Z" stroke="white" stroke-opacity="0.6" stroke-linecap="round" stroke-linejoin="round"/>
<path d="M7.49945 9.78748L11.2495 2.28748C11.6434 2.28748 12.0335 2.36507 12.3975 2.51584C12.7615 2.6666 13.0922 2.88758 13.3708 3.16616C13.6493 3.44473 13.8703 3.77545 14.0211 4.13943C14.1719 4.5034 14.2495 4.89351 14.2495 5.28748V7.53748H20.0503C20.263 7.53748 20.4732 7.58271 20.6671 7.67017C20.861 7.75763 21.034 7.88532 21.1748 8.04477C21.3156 8.20422 21.4208 8.39178 21.4835 8.59501C21.5463 8.79823 21.5651 9.01248 21.5387 9.22353L20.4137 18.2235C20.3683 18.5863 20.1921 18.92 19.918 19.162C19.6439 19.404 19.2909 19.5375 18.9253 19.5375H7.49945" stroke="white" stroke-opacity="0.6" stroke-linecap="round" stroke-linejoin="round"/>
</svg>
