<svg width="26" height="25" viewBox="0 0 26 25" fill="none" xmlns="http://www.w3.org/2000/svg">
<path d="M23.7586 0.5H1.82187C0.816703 0.5 0 1.27679 0 2.23036V22.7697C0 23.7233 0.816703 24.5001 1.82187 24.5001H23.7586C24.7638 24.5001 25.5862 23.7233 25.5862 22.7697V2.23036C25.5862 1.27679 24.7638 0.5 23.7586 0.5ZM7.73297 21.0715H3.94073V9.61788H7.73869V21.0715H7.73297ZM5.83685 8.05359C4.62037 8.05359 3.63804 7.1268 3.63804 5.99109C3.63804 4.85537 4.62037 3.92858 5.83685 3.92858C7.04763 3.92858 8.03567 4.85537 8.03567 5.99109C8.03567 7.13216 7.05334 8.05359 5.83685 8.05359ZM21.9482 21.0715H18.1559V15.5C18.1559 14.1715 18.1274 12.4625 16.1856 12.4625C14.2095 12.4625 13.9068 13.909 13.9068 15.4036V21.0715H10.1145V9.61788H13.7526V11.1822H13.804C14.3123 10.2822 15.5516 9.33395 17.3963 9.33395C21.2343 9.33395 21.9482 11.7072 21.9482 14.7929V21.0715Z" fill="white" fill-opacity="0.87"/>
</svg>
