<svg width="16" height="17" viewBox="0 0 16 17" fill="none" xmlns="http://www.w3.org/2000/svg">
    <path d="M14.8571 0.779297H1.13929C0.510714 0.779297 0 1.29715 0 1.93287V15.6257C0 16.2614 0.510714 16.7793 1.13929 16.7793H14.8571C15.4857 16.7793 16 16.2614 16 15.6257V1.93287C16 1.29715 15.4857 0.779297 14.8571 0.779297ZM4.83571 14.4936H2.46429V6.85787H4.83929V14.4936H4.83571ZM3.65 5.81501C2.88929 5.81501 2.275 5.19715 2.275 4.44001C2.275 3.68287 2.88929 3.06501 3.65 3.06501C4.40714 3.06501 5.025 3.68287 5.025 4.44001C5.025 5.20073 4.41071 5.81501 3.65 5.81501ZM13.725 14.4936H11.3536V10.7793C11.3536 9.89358 11.3357 8.7543 10.1214 8.7543C8.88571 8.7543 8.69643 9.71858 8.69643 10.715V14.4936H6.325V6.85787H8.6V7.90073H8.63214C8.95 7.30073 9.725 6.66858 10.8786 6.66858C13.2786 6.66858 13.725 8.25073 13.725 10.3079V14.4936Z"
          fill="white" fill-opacity="0.87"/>
</svg>
