<svg width="96" height="95" viewBox="0 0 96 95" fill="none" xmlns="http://www.w3.org/2000/svg">
    <path d="M84.4016 15.5263C77.8082 7.96392 68.9459 2.78007 59.1627 0.763184V4.14393C78.736 8.90503 91.4726 26.1631 91.4213 46.4328C91.3701 66.7026 77.1476 84.5733 57.6768 88.7882C46.0089 90.6557 38.1181 88.7291 38.023 88.707C18.6985 84.3297 4.62976 66.5623 4.5712 46.4328C4.47114 36.7571 7.59769 27.328 13.449 19.6591C19.3003 11.9901 27.5371 6.52607 36.8371 4.14393V0.763184C27.1042 2.91175 18.2801 8.07325 11.5983 15.5263C4.00192 23.9883 -0.139996 35.0342 0.00361321 46.4476C0.0694919 68.8654 15.7559 88.5741 37.3349 93.3131C40.7485 93.9485 44.214 94.2574 47.6852 94.2358C51.2349 94.2497 54.7797 93.9707 58.2843 93.4016C80.0829 88.8103 95.9303 69.0425 95.9962 46.4402C96.1431 35.0285 92.0006 23.9837 84.4016 15.5263Z"
          fill="url(#paint0_linear_248_4070)"/>
    <path d="M24.0054 45.9235C23.999 51.2513 25.771 56.4262 29.0362 60.6147C32.3013 64.8032 36.8695 67.7615 42.005 69.013C43.9937 69.411 46.0163 69.6113 48.0438 69.6109C49.9603 69.6212 51.873 69.4382 53.7533 69.0647C58.9505 67.8713 63.5903 64.9299 66.9095 60.7241C70.2287 56.5183 72.0297 51.2986 72.0164 45.9235C72.0164 36.8516 67.4927 29.2634 59.1774 25.3954V28.7762C61.507 30.1515 63.4731 32.0734 64.9088 34.3788C66.7659 37.0763 67.9443 40.189 68.3422 43.4483C68.7402 46.7076 68.3457 50.0155 67.1929 53.0868C66.0401 56.158 64.1636 58.9003 61.7252 61.0769C59.2869 63.2536 56.36 64.7993 53.197 65.5806C49.7294 66.2082 46.1773 66.1931 42.715 65.5363C38.9172 64.5498 35.4874 62.4671 32.846 59.5438C30.2047 56.6204 28.4667 52.9834 27.845 49.0786C27.2234 45.1737 27.7451 41.1708 29.3462 37.5606C30.9474 33.9504 33.5584 30.8898 36.8591 28.754V25.3954C32.9779 27.1977 29.6981 30.096 27.4168 33.7394C25.1355 37.3828 23.9506 41.615 24.0054 45.9235Z"
          fill="url(#paint1_linear_248_4070)"/>
    <path d="M59.1627 15.8289C65.5658 18.2283 71.0603 22.5943 74.8711 28.3111C77.7403 32.6409 79.5249 37.6081 80.0715 42.7863C80.6181 47.9646 79.9105 53.1993 78.0094 58.0411C76.1083 62.883 73.0705 67.1872 69.1567 70.5846C65.2429 73.9819 60.5701 76.3707 55.5394 77.5461C50.4596 78.5337 45.2369 78.5061 40.1677 77.4649C33.5232 75.8253 27.5753 72.0799 23.1979 66.7791C18.8205 61.4783 16.2443 54.9015 15.8478 48.0149C15.4514 41.1284 17.2556 34.2951 20.9953 28.5191C24.735 22.7431 30.2132 18.3288 36.6249 15.9249L36.8298 15.8585V12.7582L36.3467 12.8985C21.4435 17.6669 11.7154 30.7397 11.7154 46.2335C11.6916 54.4301 14.4243 62.3927 19.4671 68.8211C24.4947 75.2314 31.5421 79.7184 39.443 81.5395C42.1795 82.0749 44.9638 82.3223 47.7511 82.2777C50.5831 82.2756 53.4104 82.0435 56.2055 81.5838C64.1558 79.7503 71.2567 75.2572 76.3525 68.8359C81.4482 62.4146 84.2387 54.443 84.2698 46.2188C84.2698 30.5773 72.7191 17.2314 60.1582 13.0387L59.1554 12.7287L59.1627 15.8289Z"
          fill="url(#paint2_linear_248_4070)"/>
    <defs>
        <linearGradient id="paint0_linear_248_4070" x1="17.1189" y1="94.2368" x2="144" y2="94.2368"
                        gradientUnits="userSpaceOnUse">
            <stop stop-color="#844AFF"/>
            <stop offset="1" stop-color="#00AAE0"/>
        </linearGradient>
        <linearGradient id="paint1_linear_248_4070" x1="17.1189" y1="94.2368" x2="144" y2="94.2368"
                        gradientUnits="userSpaceOnUse">
            <stop stop-color="#844AFF"/>
            <stop offset="1" stop-color="#00AAE0"/>
        </linearGradient>
        <linearGradient id="paint2_linear_248_4070" x1="17.1189" y1="94.2368" x2="144" y2="94.2368"
                        gradientUnits="userSpaceOnUse">
            <stop stop-color="#844AFF"/>
            <stop offset="1" stop-color="#00AAE0"/>
        </linearGradient>
    </defs>
</svg>
