<svg width="240" height="31" viewBox="0 0 240 31" fill="none" xmlns="http://www.w3.org/2000/svg">
    <path d="M28.2213 4.87852C25.9007 2.37189 22.8473 0.66425 19.4981 0V1.0872C22.6615 1.8239 25.48 3.61658 27.4898 6.17018C29.4996 8.72377 30.5809 11.8861 30.5557 15.1368C30.5306 18.3874 29.4005 21.5326 27.3514 24.0547C25.3023 26.5768 22.4564 28.3256 19.2819 29.0132C17.1097 29.4181 14.8813 29.4181 12.7091 29.0132C9.55407 28.3211 6.72631 26.5798 4.68664 24.0733C2.64697 21.5667 1.51566 18.4426 1.4771 15.2102C1.43853 11.9777 2.49498 8.82746 4.47426 6.27287C6.45355 3.71828 9.23896 1.90997 12.3765 1.14267V0.0554705C9.1132 0.742067 6.14404 2.42761 3.88053 4.87852C1.3425 7.6583 -0.0443805 11.3001 0.00108343 15.0654C0.0253677 18.6727 1.27211 22.1648 3.53733 24.9706C5.80254 27.7764 8.95212 29.7297 12.4707 30.5108C13.6185 30.724 14.7839 30.8271 15.9512 30.8187C17.1382 30.8249 18.3237 30.7321 19.4953 30.5413C23.0439 29.7875 26.2282 27.8414 28.5191 25.0262C30.8101 22.2111 32.0701 18.6962 32.0897 15.0654C32.1384 11.3015 30.7556 7.65984 28.2213 4.87852Z"
          fill="white"/>
    <path d="M8.08705 15.3783C8.08428 17.1361 8.67262 18.8437 9.75735 20.2262C10.8421 21.6087 12.3601 22.5856 14.0669 22.9997C14.7245 23.1354 15.3935 23.2079 16.0649 23.2161C16.703 23.2212 17.34 23.1608 17.9658 23.0358C19.6911 22.6321 21.2281 21.6536 22.3247 20.2607C23.4213 18.8678 24.0124 17.1433 24.0011 15.3699C24.0093 13.9323 23.597 12.5238 22.8151 11.3178C22.0332 10.1119 20.9158 9.16134 19.6007 8.58328L19.4982 8.53613V9.61501C20.6519 10.2817 21.58 11.2785 22.1632 12.4773C22.7464 13.6761 22.9581 15.0221 22.771 16.3423C22.5839 17.6624 22.0065 18.8964 21.1132 19.8856C20.2199 20.8747 19.0514 21.5739 17.758 21.8931C16.6064 22.1039 15.4263 22.1039 14.2748 21.8931C12.9969 21.579 11.8404 20.8936 10.9508 19.9232C10.0612 18.9528 9.47827 17.7407 9.27536 16.4395C9.07245 15.1382 9.25862 13.806 9.81046 12.6104C10.3623 11.4148 11.2551 10.4093 12.3766 9.7204V8.58328C11.0826 9.18067 9.98905 10.1401 9.22788 11.3459C8.46671 12.5516 8.07049 13.9521 8.08705 15.3783Z"
          fill="white"/>
    <path d="M19.5175 5.10036L19.6921 5.15583C21.858 5.90581 23.7203 7.3426 24.9964 9.2481C26.2724 11.1536 26.8924 13.4238 26.7623 15.714C26.6322 18.0042 25.7592 20.1894 24.2756 21.9379C22.792 23.6863 20.779 24.9026 18.5421 25.4021C16.8581 25.7377 15.1246 25.7377 13.4406 25.4021C11.2296 24.8813 9.24619 23.659 7.78622 21.9175C6.32625 20.176 5.46802 18.0087 5.33962 15.739C5.21121 13.4693 5.8195 11.2189 7.07372 9.32357C8.32793 7.42824 10.1608 5.98963 12.2989 5.22239H12.3765V4.14629L12.1327 4.22117C9.77499 4.91637 7.70667 6.35912 6.23892 8.33234C4.77117 10.3056 3.98339 12.7025 3.99413 15.1625C3.99707 17.8454 4.90991 20.4478 6.58322 22.5438C8.25654 24.6398 10.5912 26.1052 13.2051 26.7001C14.1163 26.889 15.0457 26.9755 15.9761 26.958C16.9091 26.9563 17.8404 26.8793 18.761 26.7278C21.3907 26.1357 23.7431 24.6707 25.4355 22.571C27.1279 20.4712 28.0609 17.8602 28.0828 15.1625C28.0948 12.6835 27.2957 10.2687 25.8076 8.28699C24.3195 6.30528 22.2242 4.86561 19.8417 4.18789L19.5064 4.09082L19.5175 5.10036Z"
          fill="white"/>
    <path d="M59.7835 5.15604C57.9361 3.60844 55.384 2.8328 52.1271 2.8291H42.3814V27.9123H45.9311V5.9437H52.0274C54.2969 5.9437 56.0232 6.43183 57.2203 7.39976C57.8237 7.90841 58.2999 8.5513 58.6107 9.27703C58.9215 10.0028 59.0584 10.7912 59.0104 11.5794C59.056 12.3687 58.9169 13.1578 58.6042 13.8839C58.2915 14.6099 57.8139 15.2529 57.2092 15.7617C56.0121 16.7241 54.2858 17.2095 52.0163 17.2095H49.636V20.3241H52.1299C55.3776 20.3241 57.9297 19.5484 59.7863 17.9972C60.7084 17.2156 61.4389 16.2324 61.9212 15.1235C62.4036 14.0146 62.625 12.8097 62.5684 11.6016C62.6314 10.3851 62.4128 9.17054 61.9298 8.05252C61.4467 6.9345 60.7122 5.94325 59.7835 5.15604Z"
          fill="white"/>
    <path d="M67.6919 12.1094V8.91994H64.3999V27.907H67.8388V18.4523C67.8388 16.3963 68.3708 14.8145 69.4349 13.7069C70.1335 13.0875 70.9541 12.6216 71.8438 12.3392C72.7335 12.0569 73.6725 11.9644 74.6001 12.0678V8.73966C73.135 8.70112 71.6804 8.99705 70.3465 9.60498C69.2188 10.137 68.2891 11.014 67.6919 12.1094Z"
          fill="white"/>
    <path d="M120.184 8.7364C118.696 8.71183 117.222 9.02772 115.875 9.65997C114.659 10.2277 113.624 11.1202 112.882 12.2393C112.287 11.1186 111.364 10.207 110.236 9.62668C109.016 9.00742 107.663 8.69787 106.296 8.72531C104.979 8.70267 103.673 8.9667 102.469 9.49911C101.38 9.98838 100.442 10.7613 99.7531 11.7373V8.90836H96.4583V27.8955H99.8916V18.1523C99.8916 16.1184 100.404 14.5597 101.43 13.4762C101.972 12.9253 102.625 12.4956 103.345 12.2155C104.065 11.9353 104.837 11.8111 105.608 11.851C106.278 11.8071 106.949 11.9083 107.576 12.1476C108.203 12.387 108.771 12.7588 109.241 13.2377C110.08 14.1622 110.502 15.5554 110.507 17.4173V27.8982H113.946V18.1523C113.946 16.1249 114.456 14.569 115.487 13.4762C116.028 12.9246 116.681 12.4945 117.4 12.2143C118.12 11.9341 118.892 11.8103 119.663 11.851C120.333 11.8071 121.004 11.9083 121.631 12.1476C122.258 12.387 122.826 12.7588 123.296 13.2377C124.097 14.1502 124.529 15.5425 124.529 17.3619V27.901H127.968V16.9819C127.968 14.2584 127.271 12.2051 125.878 10.822C125.12 10.1062 124.224 9.55224 123.245 9.19371C122.266 8.83517 121.225 8.67959 120.184 8.7364Z"
          fill="white"/>
    <path d="M173.831 8.73657C172.5 8.71998 171.179 8.97673 169.951 9.49095C168.868 9.94471 167.915 10.6627 167.18 11.5794V2.8291H163.722V27.9123H167.164V18.158C167.164 16.1306 167.698 14.5775 168.771 13.482C169.356 12.9263 170.047 12.4958 170.804 12.2169C171.561 11.9379 172.366 11.8163 173.171 11.8595C173.865 11.8111 174.562 11.9095 175.216 12.1484C175.869 12.3874 176.465 12.7614 176.965 13.2462C177.846 14.1707 178.289 15.5648 178.295 17.4286V27.9012H181.725V16.9821C181.725 14.2863 181.016 12.2376 179.597 10.8361C178.826 10.1169 177.918 9.56042 176.927 9.19973C175.937 8.83904 174.884 8.68153 173.831 8.73657Z"
          fill="white"/>
    <path d="M197.906 9.97934C196.422 9.13587 194.738 8.70676 193.032 8.73683C191.325 8.71599 189.643 9.14448 188.155 9.97934C186.717 10.7967 185.539 12.0043 184.757 13.4628C183.919 14.9914 183.491 16.7115 183.516 18.455C183.488 20.2084 183.928 21.9373 184.791 23.4639C185.628 24.9513 186.879 26.1626 188.393 26.9501C189.878 27.6814 191.497 28.099 193.149 28.1767C194.802 28.2545 196.453 27.9909 198 27.4022C199.235 26.904 200.333 26.1176 201.203 25.1086L199.308 22.8898C198.617 23.648 197.768 24.246 196.822 24.6421C195.876 25.0383 194.855 25.223 193.83 25.1834C192.142 25.2379 190.488 24.697 189.158 23.6553C188.543 23.1636 188.032 22.5543 187.654 21.8629C187.277 21.1715 187.041 20.4118 186.96 19.6282H202.359C202.4 19.2839 202.423 18.9377 202.428 18.5909C202.464 16.8216 202.052 15.0719 201.231 13.5044C200.481 12.0359 199.328 10.8128 197.906 9.97934ZM186.969 17.0849C187.101 15.5766 187.793 14.1726 188.908 13.1494C190.064 12.1718 191.529 11.6355 193.043 11.6355C194.556 11.6355 196.021 12.1718 197.177 13.1494C198.285 14.1726 198.975 15.5692 199.117 17.0711L186.969 17.0849Z"
          fill="white"/>
    <path d="M144.139 9.97933C142.656 9.13596 140.974 8.70684 139.268 8.73682C137.563 8.71708 135.884 9.14553 134.396 9.97933C132.96 10.7983 131.782 12.0055 130.999 13.4628C130.161 14.9912 129.734 16.7116 129.76 18.455C129.733 20.2084 130.173 21.9373 131.035 23.4639C131.873 24.951 133.124 26.1622 134.637 26.9501C136.122 27.6814 137.741 28.099 139.394 28.1767C141.047 28.2545 142.698 27.9909 144.245 27.4022C145.48 26.904 146.578 26.1176 147.448 25.1086L145.555 22.8898C144.864 23.6478 144.015 24.2457 143.069 24.6419C142.123 25.038 141.102 25.2228 140.077 25.1834C138.389 25.2393 136.735 24.6983 135.405 23.6553C134.789 23.164 134.278 22.5549 133.9 21.8634C133.522 21.172 133.286 20.4121 133.205 19.6282H148.598C148.639 19.2839 148.662 18.9377 148.667 18.5909C148.719 16.816 148.321 15.0568 147.512 13.4767C146.745 12.012 145.575 10.7982 144.139 9.97933ZM133.202 17.0849C133.335 15.5766 134.027 14.1726 135.142 13.1494C136.298 12.1716 137.764 11.6352 139.278 11.6352C140.792 11.6352 142.257 12.1716 143.413 13.1494C144.522 14.1716 145.213 15.5688 145.353 17.0711L133.202 17.0849Z"
          fill="white"/>
    <path d="M218.68 18.738C218.794 20.4345 218.233 22.1074 217.12 23.3918C216.561 23.9557 215.89 24.3953 215.15 24.682C214.41 24.9688 213.618 25.0962 212.825 25.0559C212.131 25.1044 211.434 25.0059 210.781 24.767C210.127 24.5281 209.531 24.154 209.031 23.6692C208.148 22.7207 207.707 21.3339 207.707 19.4868V8.94766H204.268V19.8723C204.268 22.5996 204.997 24.6602 206.454 26.0544C207.912 27.4485 209.903 28.1446 212.429 28.1428C213.713 28.1459 214.982 27.8606 216.142 27.308C217.234 26.8 218.177 26.0174 218.877 25.0365V27.8987H222.136V8.91992H218.694L218.68 18.738Z"
          fill="white"/>
    <path d="M238.972 19.4886C238.316 18.7756 237.482 18.2493 236.556 17.9632C235.342 17.6042 234.105 17.3262 232.854 17.1311C231.712 16.9204 230.82 16.7262 230.188 16.5598C229.605 16.4184 229.059 16.1494 228.592 15.7721C228.38 15.5923 228.212 15.3664 228.101 15.1116C227.991 14.8567 227.939 14.5799 227.952 14.3022C227.954 13.9124 228.061 13.5303 228.262 13.1964C228.463 12.8624 228.75 12.5891 229.094 12.4052C230.118 11.8743 231.268 11.6336 232.419 11.709C234.35 11.6636 236.252 12.1873 237.889 13.215L239.385 10.4693C238.423 9.88576 237.372 9.46239 236.273 9.21568C235.036 8.90723 233.766 8.74617 232.491 8.73587C230.453 8.6331 228.435 9.17979 226.727 10.2973C226.052 10.7527 225.501 11.3703 225.125 12.0937C224.75 12.817 224.561 13.623 224.577 14.4381C224.504 15.5731 224.88 16.6913 225.622 17.5527C226.3 18.287 227.161 18.8293 228.115 19.1253C229.34 19.4951 230.59 19.7733 231.856 19.9573C232.965 20.1459 233.84 20.3206 234.453 20.4732C234.991 20.6119 235.494 20.8644 235.927 21.2137C236.132 21.3797 236.294 21.5921 236.4 21.8332C236.507 22.0743 236.554 22.3372 236.539 22.6004C236.539 24.3199 235.036 25.1797 232.028 25.1797C230.808 25.1762 229.594 24.9949 228.426 24.6417C227.337 24.3374 226.307 23.8527 225.378 23.2078L223.942 25.9313C224.95 26.6738 226.091 27.2152 227.304 27.5261C228.759 27.9476 230.267 28.1587 231.782 28.1529C234.307 28.1529 236.305 27.6444 237.775 26.6275C238.47 26.1941 239.039 25.5871 239.428 24.8664C239.817 24.1457 240.011 23.336 239.992 22.5172C240.059 21.4133 239.693 20.3268 238.972 19.4886Z"
          fill="white"/>
    <path d="M159.191 25.2158C158.787 25.2403 158.382 25.1788 158.002 25.0354C157.623 24.892 157.279 24.67 156.991 24.3838C156.441 23.7244 156.167 22.8778 156.226 22.0208V11.7479H161.879V8.91899H156.226V2.81738L152.788 4.39271V8.91345H149.59V11.7424H152.815V22.1955C152.762 22.9991 152.873 23.8051 153.144 24.5636C153.414 25.3222 153.837 26.0171 154.386 26.6053C155.605 27.6631 157.192 28.1946 158.801 28.0836C159.577 28.0856 160.35 27.9706 161.092 27.7425C161.361 27.6567 161.624 27.5539 161.879 27.4346V24.3256C161.116 24.9303 160.164 25.2457 159.191 25.2158Z"
          fill="white"/>
    <path d="M79.6407 26.8552C78.1608 26.0436 76.9341 24.8379 76.0965 23.3717C75.2573 21.8268 74.8177 20.0963 74.8177 18.3379C74.8177 16.5794 75.2573 14.8489 76.0965 13.304C76.9276 11.8321 78.1558 10.624 79.6407 9.8178C81.2195 9.00316 82.97 8.57812 84.7463 8.57812C86.5226 8.57812 88.2731 9.00316 89.8519 9.8178C91.3322 10.6288 92.556 11.8384 93.385 13.3096C94.2251 14.8527 94.6653 16.5819 94.6653 18.3393C94.6653 20.0966 94.2251 21.8258 93.385 23.3689C92.5493 24.8335 91.327 26.0397 89.8519 26.8552C88.2776 27.6845 86.5253 28.1178 84.7463 28.1178C82.9673 28.1178 81.2149 27.6845 79.6407 26.8552ZM88.0507 24.2426C89.0204 23.6793 89.8125 22.8548 90.3369 21.8629C90.8817 20.7748 91.1655 19.5744 91.1655 18.3573C91.1655 17.1401 90.8817 15.9398 90.3369 14.8516C89.8113 13.8648 89.0179 13.0466 88.048 12.4914C87.0345 11.9452 85.9015 11.6593 84.7504 11.6593C83.5994 11.6593 82.4664 11.9452 81.4529 12.4914C80.4821 13.05 79.685 13.867 79.1502 14.8516C78.5966 15.9297 78.3079 17.1244 78.3079 18.3365C78.3079 19.5486 78.5966 20.7432 79.1502 21.8213C79.6849 22.8118 80.4815 23.636 81.4529 24.2037C82.4643 24.7565 83.5981 25.0461 84.7504 25.0461C85.9028 25.0461 87.0366 24.7565 88.048 24.2037L88.0507 24.2426Z"
          fill="white"/>
</svg>
