<svg width="189" height="33" viewBox="0 0 189 33" fill="none" xmlns="http://www.w3.org/2000/svg">
    <g clip-path="url(#clip0_3584_19277)">
        <path d="M29.7844 5.21198C27.4577 2.54215 24.3303 0.712042 20.8779 0V1.19354C27.7851 2.87441 32.2797 8.96717 32.2616 16.1233C32.2435 23.2793 27.2246 29.5884 20.3535 31.0764C16.2361 31.7357 13.4515 31.0556 13.4179 31.0477C6.59851 29.5024 1.63379 23.2298 1.61312 16.1233C1.57782 12.7073 2.68114 9.37851 4.746 6.67102C6.81087 3.96357 9.71754 2.03453 12.9995 1.19354V0C9.56474 0.758531 6.45086 2.58075 4.0929 5.21198C1.41224 8.1994 -0.0494031 12.099 0.00127506 16.1284C0.0245229 24.0428 5.5601 31.0008 13.1751 32.6738C14.3797 32.8982 15.6027 33.0073 16.8276 32.9996C18.0803 33.0045 19.3311 32.9061 20.5679 32.7051C28.2604 31.0842 33.8528 24.1054 33.876 16.1259C33.9278 12.097 32.466 8.19778 29.7844 5.21198Z"
              fill="url(#paint0_linear_3584_19277)"/>
        <path d="M8.47122 15.9436C8.46894 17.8245 9.09426 19.6514 10.2465 21.1301C11.3987 22.6088 13.0108 23.6533 14.8231 24.0951C15.5249 24.2356 16.2386 24.3063 16.9542 24.3061C17.6305 24.3098 18.3054 24.2452 18.969 24.1133C20.803 23.692 22.4403 22.6535 23.6116 21.1687C24.7829 19.684 25.4185 17.8411 25.4138 15.9436C25.4138 12.7408 23.8174 10.0618 20.883 8.69629V9.88985C21.7051 10.3754 22.399 11.0539 22.9056 11.8678C23.561 12.8201 23.9768 13.9191 24.1172 15.0697C24.2576 16.2203 24.1184 17.3882 23.7116 18.4724C23.3048 19.5567 22.6426 20.5249 21.7821 21.2933C20.9216 22.0618 19.8887 22.6074 18.7727 22.8833C17.5489 23.1048 16.2954 23.0996 15.0736 22.8677C13.7334 22.5194 12.5231 21.7841 11.591 20.752C10.6589 19.72 10.0456 18.436 9.82619 17.0574C9.60679 15.6788 9.79088 14.2656 10.3559 12.9911C10.921 11.7165 11.8423 10.636 13.0072 9.882V8.69629C11.6376 9.33259 10.4801 10.3558 9.67507 11.6421C8.87001 12.9283 8.45186 14.4224 8.47122 15.9436Z"
              fill="url(#paint1_linear_3584_19277)"/>
        <path d="M20.8779 5.31889C23.1374 6.16595 25.0764 7.70735 26.4212 9.72561C27.4337 11.2542 28.0634 13.0078 28.2564 14.836C28.4492 16.6641 28.1995 18.5122 27.5286 20.2215C26.8578 21.9309 25.7857 23.4505 24.4046 24.6498C23.0235 25.8492 21.3745 26.6926 19.5992 27.1075C17.8066 27.4562 15.9636 27.4464 14.1747 27.0789C11.83 26.5 9.73098 25.1778 8.18626 23.3064C6.64152 21.435 5.73241 19.1131 5.5925 16.6818C5.4526 14.2506 6.08928 11.8382 7.40899 9.79901C8.7287 7.75987 10.6619 6.20146 12.9245 5.35276L12.9968 5.32931V4.23479L12.8263 4.28431C7.56715 5.96777 4.13421 10.583 4.13421 16.053C4.12582 18.9467 5.09014 21.7578 6.86971 24.0273C8.64389 26.2904 11.1308 27.8745 13.919 28.5174C14.8847 28.7064 15.8672 28.7937 16.8508 28.778C17.8502 28.7772 18.8479 28.6953 19.8343 28.533C22.6399 27.8857 25.1457 26.2995 26.9439 24.0325C28.7422 21.7655 29.7269 18.9512 29.7379 16.0477C29.7379 10.5256 25.6617 5.81402 21.2291 4.33382L20.8753 4.22437L20.8779 5.31889Z"
              fill="url(#paint2_linear_3584_19277)"/>
        <path d="M55.9771 13.5214C55.9771 12.6462 55.8178 11.8638 55.4991 11.1738C55.1971 10.467 54.7526 9.87808 54.1655 9.40689C53.5952 8.91885 52.8991 8.54863 52.0771 8.29621C51.2719 8.02696 50.3745 7.89233 49.3848 7.89233H42.7925V25.5619H44.7803V19.327H49.0577C49.997 19.327 50.8861 19.2092 51.7249 18.9737C52.5635 18.7213 53.2932 18.351 53.9139 17.863C54.5513 17.375 55.0546 16.7692 55.4236 16.0456C55.7926 15.3219 55.9771 14.4805 55.9771 13.5214ZM53.9642 13.5971C53.9642 14.1861 53.8468 14.7245 53.6119 15.2126C53.3939 15.6838 53.0668 16.0961 52.6306 16.4494C52.2113 16.786 51.6996 17.0468 51.0958 17.232C50.5087 17.4171 49.8545 17.5096 49.1332 17.5096H44.7803V9.73502H49.2338C50.6597 9.73502 51.8003 10.0631 52.6558 10.7195C53.528 11.3589 53.9642 12.3181 53.9642 13.5971Z"
              fill="white"/>
        <path d="M61.21 20.362C61.21 19.386 61.3442 18.5278 61.6125 17.7873C61.8809 17.03 62.2499 16.399 62.7197 15.8942C63.1893 15.3893 63.7345 15.0107 64.3551 14.7583C64.9926 14.5059 65.6635 14.3796 66.3681 14.3796H66.519V12.2845C65.8983 12.2677 65.3197 12.3434 64.7829 12.5117C64.2461 12.68 63.7512 12.9324 63.2983 13.269C62.8455 13.5887 62.4428 13.9757 62.0906 14.4301C61.7384 14.8845 61.4448 15.3809 61.21 15.9194V12.5117H59.2725V25.5619H61.21V20.362Z"
              fill="white"/>
        <path d="M81.6616 19.0243C81.6616 18.0988 81.4939 17.2236 81.1583 16.3991C80.8228 15.5745 80.3532 14.8593 79.7493 14.2535C79.1455 13.6308 78.4241 13.1428 77.5854 12.7894C76.7634 12.4192 75.8661 12.2341 74.8931 12.2341C73.9034 12.2341 72.9892 12.4192 72.1505 12.7894C71.3285 13.1428 70.6157 13.6308 70.0118 14.2535C69.4079 14.8761 68.9382 15.6082 68.6027 16.4496C68.2673 17.2741 68.0995 18.1492 68.0995 19.0748C68.0995 20.0003 68.2673 20.8754 68.6027 21.7C68.9382 22.5245 69.4079 23.2481 70.0118 23.8708C70.6157 24.4766 71.3285 24.9646 72.1505 25.3349C72.9725 25.6882 73.8699 25.8649 74.8428 25.8649C75.8157 25.8649 76.7215 25.6882 77.5603 25.3349C78.399 24.9646 79.1202 24.4682 79.7242 23.8455C80.3281 23.2229 80.7977 22.4993 81.1332 21.6747C81.4854 20.8333 81.6616 19.9498 81.6616 19.0243ZM79.6738 19.0748C79.6738 19.7815 79.5564 20.4462 79.3215 21.0689C79.0867 21.6747 78.7596 22.2048 78.3403 22.6592C77.9209 23.1135 77.4176 23.4754 76.8306 23.7445C76.2434 23.997 75.5976 24.1232 74.8931 24.1232C74.2053 24.1232 73.5679 23.9886 72.9809 23.7193C72.3937 23.4501 71.8822 23.0883 71.4459 22.6339C71.0267 22.1795 70.6911 21.6411 70.4395 21.0184C70.2047 20.3957 70.0873 19.731 70.0873 19.0243C70.0873 18.3175 70.2047 17.6612 70.4395 17.0553C70.6743 16.4327 70.9931 15.8943 71.3957 15.4399C71.815 14.9687 72.3183 14.6069 72.9053 14.3544C73.4925 14.0853 74.1383 13.9506 74.8428 13.9506C75.5306 13.9506 76.168 14.0853 76.7551 14.3544C77.3422 14.6237 77.8538 14.9939 78.29 15.4651C78.7261 15.9195 79.0616 16.458 79.2964 17.0806C79.548 17.7033 79.6738 18.3679 79.6738 19.0748Z"
              fill="white"/>
        <path d="M95.4878 14.8341C95.1348 14.0936 94.615 13.4794 93.9277 12.9913C93.2394 12.4865 92.3675 12.2341 91.3111 12.2341C90.7575 12.2341 90.2707 12.3015 89.8517 12.4361C89.4318 12.5706 89.0545 12.7558 88.719 12.9913C88.3836 13.2101 88.0816 13.471 87.8132 13.7739C87.5616 14.0768 87.3268 14.3881 87.1087 14.7079V12.5118H85.1713V25.562H87.1087V18.1155C87.1087 17.5098 87.201 16.9629 87.3854 16.4748C87.57 15.97 87.8215 15.5324 88.1403 15.1622C88.4757 14.792 88.8616 14.506 89.2981 14.3039C89.734 14.102 90.2119 14.0011 90.7316 14.0011C91.772 14.0011 92.5851 14.346 93.1726 15.036C93.7761 15.7091 94.0783 16.6599 94.0783 17.8884V25.562H95.9906V18.0398C95.9906 17.4003 96.0833 16.8282 96.2679 16.3234C96.4685 15.8185 96.7288 15.3979 97.0471 15.0613C97.3832 14.7079 97.7692 14.447 98.2051 14.2787C98.6411 14.0936 99.102 14.0011 99.5888 14.0011C100.645 14.0011 101.467 14.346 102.055 15.036C102.658 15.7091 102.96 16.6767 102.96 17.9388V25.562H104.898V17.4845C104.898 15.8522 104.47 14.5732 103.615 13.6477C102.759 12.7053 101.577 12.2341 100.067 12.2341C99.4969 12.2341 98.9763 12.3015 98.5065 12.4361C98.0536 12.5706 97.6426 12.7558 97.2735 12.9913C96.9053 13.227 96.5692 13.5046 96.2679 13.8244C95.9826 14.1441 95.7223 14.4806 95.4878 14.8341Z"
              fill="white"/>
        <path d="M110.262 19.7563H120.578C120.595 19.6385 120.603 19.5291 120.603 19.4281C120.603 19.3272 120.603 19.2346 120.603 19.1505C120.603 18.1913 120.469 17.291 120.2 16.4496C119.932 15.6082 119.538 14.8761 119.017 14.2535C118.498 13.6308 117.86 13.1428 117.105 12.7894C116.351 12.4192 115.495 12.2341 114.539 12.2341C113.634 12.2341 112.795 12.4108 112.023 12.7642C111.268 13.1176 110.614 13.6056 110.06 14.2282C109.507 14.8341 109.071 15.5577 108.752 16.3991C108.45 17.2236 108.299 18.1071 108.299 19.0495C108.299 20.0592 108.466 20.9848 108.803 21.8262C109.155 22.6676 109.625 23.3912 110.211 23.997C110.799 24.5859 111.486 25.0487 112.275 25.3853C113.063 25.7051 113.902 25.8649 114.791 25.8649C116.032 25.8649 117.072 25.6461 117.911 25.2087C118.749 24.7542 119.496 24.1569 120.151 23.4164L118.943 22.331C118.406 22.8864 117.81 23.3323 117.156 23.6688C116.519 24.0054 115.746 24.1737 114.841 24.1737C114.271 24.1737 113.725 24.0811 113.206 23.8961C112.686 23.694 112.216 23.408 111.796 23.0378C111.377 22.6507 111.033 22.188 110.765 21.6495C110.496 21.0941 110.329 20.4631 110.262 19.7563ZM110.262 18.3175C110.329 17.6781 110.479 17.0891 110.715 16.5505C110.949 16.012 111.252 15.5493 111.621 15.1622C111.99 14.7584 112.418 14.447 112.903 14.2282C113.39 13.9927 113.919 13.8749 114.489 13.8749C115.143 13.8749 115.714 14.0011 116.199 14.2535C116.703 14.4891 117.122 14.8088 117.458 15.2127C117.81 15.6165 118.079 16.0877 118.263 16.6263C118.465 17.1648 118.59 17.7285 118.64 18.3175H110.262Z"
              fill="white"/>
        <path d="M126.611 14.2282H130.738V12.5118H126.611V8.57397H124.674V12.5118H122.862V14.2282H124.674V22.1038C124.674 22.7601 124.767 23.3238 124.951 23.795C125.135 24.2662 125.387 24.6533 125.705 24.9561C126.042 25.2423 126.436 25.4526 126.888 25.5873C127.341 25.7218 127.827 25.7892 128.348 25.7892C128.818 25.7892 129.237 25.7387 129.606 25.6377C129.992 25.5535 130.352 25.419 130.687 25.2339V23.5678C130.352 23.7361 130.034 23.854 129.732 23.9213C129.446 23.9885 129.136 24.0222 128.801 24.0222C128.146 24.0222 127.618 23.8623 127.216 23.5426C126.813 23.2228 126.611 22.6592 126.611 21.8514V14.2282Z"
              fill="white"/>
        <path d="M136.105 18.0904C136.105 17.4846 136.197 16.9292 136.381 16.4244C136.583 15.9196 136.86 15.4904 137.212 15.137C137.564 14.7668 137.975 14.4892 138.445 14.304C138.931 14.1021 139.452 14.0011 140.005 14.0011C141.163 14.0011 142.051 14.3545 142.672 15.0613C143.292 15.7681 143.603 16.7273 143.603 17.9389V25.5621H145.541V17.4593C145.541 16.6852 145.423 15.9784 145.189 15.339C144.97 14.6995 144.643 14.1526 144.207 13.6982C143.788 13.2271 143.267 12.8652 142.647 12.6128C142.043 12.3604 141.347 12.2342 140.558 12.2342C139.435 12.2342 138.52 12.4866 137.816 12.9914C137.112 13.4795 136.541 14.0768 136.105 14.7837V7.13525H134.168V25.5621H136.105V18.0904Z"
              fill="white"/>
        <path d="M150.83 19.7563H161.146C161.163 19.6385 161.172 19.5291 161.172 19.4281C161.172 19.3272 161.172 19.2346 161.172 19.1505C161.172 18.1913 161.037 17.291 160.769 16.4496C160.5 15.6082 160.106 14.8761 159.586 14.2535C159.066 13.6308 158.428 13.1428 157.673 12.7894C156.919 12.4192 156.063 12.2341 155.107 12.2341C154.202 12.2341 153.363 12.4108 152.591 12.7642C151.837 13.1176 151.182 13.6056 150.629 14.2282C150.075 14.8341 149.639 15.5577 149.32 16.3991C149.018 17.2236 148.867 18.1071 148.867 19.0495C148.867 20.0592 149.035 20.9848 149.371 21.8262C149.723 22.6676 150.193 23.3912 150.779 23.997C151.367 24.5859 152.054 25.0487 152.843 25.3853C153.631 25.7051 154.47 25.8649 155.359 25.8649C156.6 25.8649 157.64 25.6461 158.479 25.2087C159.317 24.7542 160.064 24.1569 160.719 23.4164L159.511 22.331C158.974 22.8864 158.378 23.3323 157.724 23.6688C157.087 24.0054 156.315 24.1737 155.409 24.1737C154.839 24.1737 154.294 24.0811 153.774 23.8961C153.254 23.694 152.784 23.408 152.364 23.0378C151.945 22.6507 151.601 22.188 151.333 21.6495C151.065 21.0941 150.897 20.4631 150.83 19.7563ZM150.83 18.3175C150.897 17.6781 151.048 17.0891 151.283 16.5505C151.517 16.012 151.82 15.5493 152.189 15.1622C152.558 14.7584 152.985 14.447 153.472 14.2282C153.958 13.9927 154.486 13.8749 155.057 13.8749C155.711 13.8749 156.282 14.0011 156.767 14.2535C157.271 14.4891 157.69 14.8088 158.026 15.2127C158.378 15.6165 158.647 16.0877 158.831 16.6263C159.033 17.1648 159.159 17.7285 159.208 18.3175H150.83Z"
              fill="white"/>
        <path d="M173.797 19.9835C173.797 20.5892 173.696 21.1445 173.495 21.6494C173.294 22.1542 173.017 22.5918 172.665 22.962C172.33 23.3154 171.919 23.593 171.432 23.795C170.962 23.9801 170.45 24.0727 169.897 24.0727C168.74 24.0727 167.851 23.7192 167.23 23.0125C166.609 22.3057 166.299 21.3465 166.299 20.1349V12.5117H164.361V20.6145C164.361 21.3885 164.47 22.0954 164.689 22.7348C164.924 23.3742 165.25 23.9296 165.67 24.4008C166.106 24.8551 166.626 25.2086 167.23 25.461C167.851 25.7134 168.555 25.8396 169.343 25.8396C170.467 25.8396 171.382 25.5956 172.086 25.1075C172.791 24.6027 173.361 23.997 173.797 23.2901V25.562H175.709V12.5117H173.797V19.9835Z"
              fill="white"/>
        <path d="M189 21.9019V21.8515C189 21.2625 188.874 20.766 188.623 20.3622C188.388 19.9583 188.069 19.6133 187.666 19.3272C187.264 19.0412 186.811 18.8056 186.308 18.6205C185.821 18.4353 185.326 18.267 184.823 18.1156C184.387 17.981 183.967 17.8463 183.565 17.7117C183.162 17.5771 182.802 17.4256 182.483 17.2574C182.181 17.0891 181.938 16.8956 181.754 16.6768C181.569 16.4412 181.477 16.172 181.477 15.8691V15.8185C181.477 15.2801 181.703 14.8341 182.156 14.4807C182.609 14.1105 183.221 13.9254 183.993 13.9254C184.631 13.9254 185.276 14.0432 185.931 14.2788C186.601 14.4975 187.238 14.8004 187.843 15.1875L188.724 13.7235C188.052 13.2859 187.306 12.9409 186.484 12.6885C185.662 12.4193 184.848 12.2847 184.043 12.2847C183.406 12.2847 182.81 12.3772 182.257 12.5623C181.72 12.7306 181.25 12.983 180.848 13.3196C180.462 13.6394 180.16 14.0347 179.942 14.506C179.724 14.9603 179.615 15.4652 179.615 16.0205V16.071C179.615 16.6768 179.741 17.1817 179.992 17.5855C180.261 17.9894 180.596 18.326 180.999 18.5952C181.418 18.8644 181.88 19.0917 182.382 19.2767C182.902 19.445 183.414 19.6049 183.918 19.7563C184.337 19.8741 184.74 20.0003 185.126 20.135C185.528 20.2696 185.88 20.4295 186.182 20.6146C186.484 20.7829 186.719 20.9848 186.886 21.2204C187.071 21.456 187.164 21.7336 187.164 22.0534V22.1039C187.164 22.7434 186.911 23.2482 186.408 23.6184C185.906 23.9886 185.259 24.1738 184.471 24.1738C183.699 24.1738 182.928 24.0307 182.156 23.7446C181.401 23.4586 180.672 23.0462 179.967 22.5077L178.986 23.8961C179.724 24.485 180.571 24.9562 181.527 25.3097C182.483 25.6462 183.431 25.8145 184.37 25.8145C185.025 25.8145 185.628 25.7304 186.182 25.5621C186.753 25.3769 187.238 25.1161 187.641 24.7795C188.06 24.443 188.388 24.0391 188.623 23.5679C188.874 23.0799 189 22.5246 189 21.9019Z"
              fill="white"/>
    </g>
    <defs>
        <linearGradient id="paint0_linear_3584_19277" x1="16.9387" y1="0" x2="16.9387" y2="45.9324"
                        gradientUnits="userSpaceOnUse">
            <stop stop-color="#844AFF"/>
            <stop offset="1" stop-color="#00AAE0"/>
        </linearGradient>
        <linearGradient id="paint1_linear_3584_19277" x1="16.9386" y1="0.000104034" x2="16.9386" y2="45.9325"
                        gradientUnits="userSpaceOnUse">
            <stop stop-color="#844AFF"/>
            <stop offset="1" stop-color="#00AAE0"/>
        </linearGradient>
        <linearGradient id="paint2_linear_3584_19277" x1="16.9387" y1="6.19653e-05" x2="16.9387" y2="45.9325"
                        gradientUnits="userSpaceOnUse">
            <stop stop-color="#844AFF"/>
            <stop offset="1" stop-color="#00AAE0"/>
        </linearGradient>
        <clipPath id="clip0_3584_19277">
            <rect width="189" height="33" fill="white"/>
        </clipPath>
    </defs>
</svg>
