<svg width="24" height="24" viewBox="0 0 24 24" fill="none" xmlns="http://www.w3.org/2000/svg">
    <path d="M21.1004 3.69236C19.4521 1.80096 17.2365 0.504437 14.7907 0V0.845548C19.684 2.03634 22.8682 6.35268 22.8553 11.4223C22.8425 16.4919 19.2869 20.9616 14.4192 22.0157C11.5023 22.4828 9.52952 22.001 9.50577 21.9954C4.67463 20.9006 1.15744 16.4569 1.1428 11.4223C1.11779 9.00235 1.89942 6.64409 3.36225 4.726C4.82508 2.80794 6.88428 1.44134 9.20931 0.845548V0C6.77602 0.537372 4.57003 1.8283 2.89957 3.69236C1.00048 5.80877 -0.034999 8.57143 0.000903299 11.426C0.017373 17.0328 3.93899 21.9622 9.33373 23.1474C10.1871 23.3064 11.0535 23.3836 11.9213 23.3782C12.8087 23.3817 13.6949 23.3119 14.5711 23.1696C20.0207 22.0212 23.9826 17.0772 23.9991 11.4242C24.0358 8.56997 23.0002 5.80762 21.1004 3.69236Z"
          fill="white"/>
    <path d="M6.00137 11.295C5.99975 12.6275 6.44275 13.9218 7.25907 14.9693C8.07532 16.0169 9.2174 16.7568 10.5013 17.0698C10.9985 17.1693 11.5041 17.2194 12.011 17.2193C12.4901 17.2219 12.9683 17.1762 13.4384 17.0827C14.7377 16.7843 15.8976 16.0486 16.7274 14.9967C17.5572 13.9448 18.0075 12.6393 18.0041 11.295C18.0041 9.02599 16.8732 7.1281 14.7944 6.16072V7.00628C15.3768 7.35026 15.8683 7.83091 16.2272 8.40753C16.6915 9.08216 16.9861 9.86073 17.0855 10.6759C17.185 11.491 17.0864 12.3184 16.7982 13.0865C16.5101 13.8546 16.0409 14.5405 15.4313 15.0849C14.8217 15.6293 14.09 16.0159 13.2993 16.2113C12.4323 16.3683 11.5443 16.3645 10.6788 16.2003C9.7293 15.9535 8.87187 15.4326 8.21155 14.7015C7.55117 13.9703 7.11671 13.0607 6.96128 12.084C6.80585 11.1074 6.93627 10.1063 7.33656 9.20335C7.73686 8.30037 8.38959 7.53489 9.21481 7.00072V6.16072C8.24452 6.6115 7.42454 7.33636 6.85422 8.24761C6.28389 9.15887 5.98765 10.2173 6.00137 11.295Z"
          fill="white"/>
    <path d="M14.7907 3.76806C16.3914 4.36815 17.765 5.46014 18.7178 6.88995C19.435 7.97288 19.8812 9.21516 20.0179 10.5103C20.1545 11.8054 19.9776 13.1147 19.5023 14.3256C19.027 15.5366 18.2676 16.6132 17.2891 17.4628C16.3107 18.3125 15.1425 18.91 13.8848 19.2039C12.6149 19.451 11.3092 19.444 10.0419 19.1837C8.38077 18.7736 6.89378 17.8369 5.79944 16.5111C4.70508 15.1853 4.06104 13.5404 3.96192 11.818C3.86281 10.0956 4.31386 8.38661 5.24879 6.94195C6.18372 5.49735 7.55327 4.39331 9.15616 3.79206L9.20744 3.77545V3.00005L9.08662 3.03513C5.36083 4.22776 2.92881 7.49735 2.92881 11.3725C2.92287 13.4225 3.60603 15.414 4.86674 17.0218C6.12364 18.625 7.88548 19.7473 9.86074 20.2028C10.5449 20.3367 11.2409 20.3985 11.9378 20.3874C12.6458 20.3868 13.3526 20.3288 14.0513 20.2138C16.0389 19.7552 17.8142 18.6315 19.0881 17.0255C20.362 15.4195 21.0597 13.4257 21.0674 11.3688C21.0674 7.45672 18.1797 4.11883 15.0395 3.0702L14.7888 2.99266L14.7907 3.76806Z"
          fill="white"/>
</svg>
