<svg width="118" height="118" viewBox="0 0 118 118" fill="none" xmlns="http://www.w3.org/2000/svg">
<path d="M118 59C118 64.4786 114.049 68.6402 110.572 72.275C108.571 74.3295 106.516 76.4893 105.726 78.333C104.936 80.1768 104.988 82.9161 104.936 85.708C104.883 90.8179 104.778 96.6652 100.721 100.721C96.6652 104.778 90.8179 104.883 85.708 104.936C82.9161 104.988 80.0714 105.041 78.333 105.726C76.5946 106.411 74.3295 108.571 72.275 110.572C68.6402 114.049 64.4786 118 59 118C53.5214 118 49.3598 114.049 45.725 110.572C43.6705 108.571 41.5107 106.516 39.667 105.726C37.8232 104.936 35.0839 104.988 32.292 104.936C27.1821 104.883 21.3348 104.778 17.2786 100.721C13.2223 96.6652 13.117 90.8179 13.0643 85.708C13.0116 82.9161 12.9589 80.0714 12.2741 78.333C11.5893 76.5946 9.42946 74.3295 7.42768 72.275C3.95089 68.6402 0 64.4786 0 59C0 53.5214 3.95089 49.3598 7.42768 45.725C9.42946 43.6705 11.4839 41.5107 12.2741 39.667C13.0643 37.8232 13.0116 35.0839 13.0643 32.292C13.117 27.1821 13.2223 21.3348 17.2786 17.2786C21.3348 13.2223 27.1821 13.117 32.292 13.0643C35.0839 13.0116 37.9286 12.9589 39.667 12.2741C41.4054 11.5893 43.6705 9.42946 45.725 7.42768C49.3598 3.95089 53.5214 0 59 0C64.4786 0 68.6402 3.95089 72.275 7.42768C74.3295 9.42946 76.4893 11.4839 78.333 12.2741C80.1768 13.0643 82.9161 13.0116 85.708 13.0643C90.8179 13.117 96.6652 13.2223 100.721 17.2786C104.778 21.3348 104.883 27.1821 104.936 32.292C104.988 35.0839 105.041 37.9286 105.726 39.667C106.411 41.4054 108.571 43.6705 110.572 45.725C114.049 49.3598 118 53.5214 118 59Z" fill="#55C090"/>
<path d="M32.0623 61.1959C32.0623 58.1646 32.5972 55.5664 33.6671 53.4012C34.737 51.2105 36.2526 49.5293 38.214 48.3575C40.2009 47.1603 42.519 46.5617 45.1682 46.5617C47.8173 46.5617 50.1227 47.1603 52.0841 48.3575C54.0455 49.5293 55.5611 51.2105 56.631 53.4012C57.7009 55.5664 58.2358 58.1646 58.2358 61.1959C58.2358 63.8196 57.841 66.0867 57.0513 67.9972C56.2617 69.8822 55.1408 71.4488 53.6889 72.697C53.6125 72.7479 53.5742 72.8498 53.5742 73.0027C53.5742 73.2319 53.7653 73.5249 54.1474 73.8815C54.555 74.2126 55.0644 74.5183 55.6758 74.7985C56.2871 75.0787 56.924 75.2698 57.5863 75.3717C57.8155 75.3971 57.9556 75.4608 58.0066 75.5627C58.083 75.6901 58.1212 75.8047 58.1212 75.9066V79.1162C58.1212 79.5238 58.0066 79.7912 57.7773 79.9186C57.5735 80.046 57.2169 80.1096 56.7074 80.1096C55.1026 80.1096 53.6252 79.7275 52.2751 78.9634C50.9251 78.2246 49.6769 77.1166 48.5306 75.6391C48.4287 75.4608 48.2377 75.4099 47.9575 75.4863C47.4989 75.5372 47.0404 75.5754 46.5819 75.6009C46.1489 75.6519 45.6776 75.6773 45.1682 75.6773C42.4935 75.6773 40.1627 75.1042 38.1758 73.9579C36.2144 72.8116 34.6987 71.1559 33.6289 68.9907C32.5845 66.8 32.0623 64.2017 32.0623 61.1959ZM39.0546 61.2723C39.0546 64.7112 39.5386 67.1948 40.5066 68.7232C41.4746 70.2261 43.0284 70.9776 45.1682 70.9776C47.2569 70.9776 48.7853 70.2261 49.7533 68.7232C50.7213 67.1948 51.2053 64.6985 51.2053 61.2341C51.2053 57.7698 50.7213 55.2352 49.7533 53.6304C48.7853 52.0256 47.2569 51.2232 45.1682 51.2232C43.0539 51.2232 41.5 52.0256 40.5066 53.6304C39.5386 55.2352 39.0546 57.7825 39.0546 61.2723Z" fill="white"/>
<path d="M74.5662 46.5617C76.0436 46.5617 77.4192 46.7782 78.6928 47.2112C79.992 47.6188 81.151 48.2047 82.1699 48.9689C83.1888 49.7331 84.0167 50.6246 84.6535 51.6435C85.3158 52.6625 85.7489 53.7705 85.9526 54.9678C86.0545 55.3753 86.0673 55.6428 85.9909 55.7702C85.9399 55.8975 85.7998 55.974 85.5705 55.9994L80.4123 56.3433C80.183 56.3433 80.0302 56.3051 79.9537 56.2287C79.9028 56.1268 79.8519 55.974 79.8009 55.7702C79.5207 54.4456 78.973 53.363 78.1579 52.5224C77.3428 51.6563 76.2092 51.2232 74.7572 51.2232C72.8468 51.2232 71.3439 52.0002 70.2485 53.554C69.1787 55.0824 68.6437 57.566 68.6437 61.0049C68.6437 64.4183 69.1532 66.9019 70.1721 68.4557C71.2165 69.9841 72.7704 70.7483 74.8337 70.7483C76.3111 70.7483 77.5848 70.3789 78.6546 69.6402C79.7245 68.9015 80.6033 67.6406 81.2911 65.8575C81.393 65.6282 81.6732 65.5518 82.1317 65.6282L85.8762 66.4306C86.0036 66.4561 86.1182 66.5325 86.2201 66.6599C86.322 66.7618 86.3475 67.0038 86.2965 67.3859C86.1692 67.9208 85.9144 68.5449 85.5323 69.2581C85.1757 69.9714 84.6917 70.7101 84.0804 71.4743C83.469 72.213 82.7048 72.9008 81.7878 73.5376C80.8962 74.1744 79.8519 74.6966 78.6546 75.1042C77.4574 75.4863 76.0946 75.6773 74.5662 75.6773C71.9425 75.6773 69.6499 75.0533 67.6885 73.8051C65.7525 72.5569 64.2624 70.8247 63.218 68.6086C62.1736 66.3924 61.6514 63.8196 61.6514 60.8903C61.6514 57.9354 62.1736 55.4008 63.218 53.2866C64.2624 51.1468 65.7525 49.4911 67.6885 48.3193C69.6244 47.1476 71.917 46.5617 74.5662 46.5617Z" fill="white"/>
</svg>
