<svg width="117" height="117" viewBox="0 0 117 117" fill="none" xmlns="http://www.w3.org/2000/svg">
<path d="M117 58.5C117 63.9321 113.083 68.0585 109.635 71.6625C107.65 73.6996 105.613 75.8411 104.83 77.6692C104.046 79.4973 104.099 82.2134 104.046 84.9817C103.994 90.0482 103.89 95.846 99.8679 99.8679C95.846 103.89 90.0482 103.994 84.9817 104.046C82.2134 104.099 79.3929 104.151 77.6692 104.83C75.9455 105.509 73.6996 107.65 71.6625 109.635C68.0585 113.083 63.9321 117 58.5 117C53.0679 117 48.9415 113.083 45.3375 109.635C43.3004 107.65 41.1589 105.613 39.3308 104.83C37.5027 104.046 34.7866 104.099 32.0183 104.046C26.9518 103.994 21.154 103.89 17.1321 99.8679C13.1103 95.846 13.0058 90.0482 12.9536 84.9817C12.9013 82.2134 12.8491 79.3929 12.1701 77.6692C11.4911 75.9455 9.34955 73.6996 7.36473 71.6625C3.91741 68.0585 0 63.9321 0 58.5C0 53.0679 3.91741 48.9415 7.36473 45.3375C9.34955 43.3004 11.3866 41.1589 12.1701 39.3308C12.9536 37.5027 12.9013 34.7866 12.9536 32.0183C13.0058 26.9518 13.1103 21.154 17.1321 17.1321C21.154 13.1103 26.9518 13.0058 32.0183 12.9536C34.7866 12.9013 37.6071 12.8491 39.3308 12.1701C41.0545 11.4911 43.3004 9.34955 45.3375 7.36473C48.9415 3.91741 53.0679 0 58.5 0C63.9321 0 68.0585 3.91741 71.6625 7.36473C73.6996 9.34955 75.8411 11.3866 77.6692 12.1701C79.4973 12.9536 82.2134 12.9013 84.9817 12.9536C90.0482 13.0058 95.846 13.1103 99.8679 17.1321C103.89 21.154 103.994 26.9518 104.046 32.0183C104.099 34.7866 104.151 37.6071 104.83 39.3308C105.509 41.0545 107.65 43.3004 109.635 45.3375C113.083 48.9415 117 53.0679 117 58.5Z" fill="#55C090"/>
<path d="M31.9756 60.1202C31.9756 57.1651 32.506 54.6015 33.5668 52.4294C34.6276 50.232 36.1304 48.5524 38.0752 47.3906C40.0452 46.2035 42.3436 45.6099 44.9704 45.6099C47.5718 45.6099 49.845 46.2035 51.7898 47.3906C53.7598 48.5524 55.2753 50.232 56.3361 52.4294C57.3969 54.6015 57.9273 57.1651 57.9273 60.1202C57.9273 65.1969 56.4245 68.9981 53.4189 71.5238C53.3431 71.5743 53.3052 71.6753 53.3052 71.8269C53.3052 72.2057 53.722 72.6603 54.5554 73.1907C55.4142 73.6959 56.3234 74.0242 57.2832 74.1758C57.6368 74.201 57.8136 74.3778 57.8136 74.7062V77.8886C57.8136 78.2674 57.7126 78.52 57.5105 78.6463C57.3085 78.7978 56.9422 78.8736 56.4118 78.8736C53.28 78.8736 50.5774 77.3961 48.3043 74.441C48.178 74.2642 47.9886 74.2137 47.736 74.2894C46.7257 74.4157 45.8038 74.4789 44.9704 74.4789C42.3184 74.4789 40.0073 73.9106 38.0373 72.774C36.0925 71.6122 34.5897 69.9578 33.5289 67.811C32.4933 65.6389 31.9756 63.0753 31.9756 60.1202ZM38.9086 60.1959C38.9086 63.5804 39.3885 66.0303 40.3483 67.5458C41.3081 69.0612 42.8488 69.8189 44.9704 69.8189C47.0414 69.8189 48.5569 69.0612 49.5166 67.5458C50.5017 66.0303 50.9942 63.5678 50.9942 60.1581C50.9942 56.7483 50.5017 54.2479 49.5166 52.6567C48.5569 51.0402 47.0414 50.232 44.9704 50.232C42.874 50.232 41.3333 51.0402 40.3483 52.6567C39.3885 54.2479 38.9086 56.761 38.9086 60.1959Z" fill="white"/>
<path d="M85.2956 54.7404C85.2956 57.4682 84.3484 59.5898 82.4541 61.1052C80.5851 62.5954 78.1099 63.3405 75.0285 63.3405H69.3457C69.0678 63.3405 68.9289 63.4794 68.9289 63.7572V73.2286C68.9289 73.8095 68.6006 74.1 67.9439 74.1H63.0945C62.7914 74.1 62.5768 74.0369 62.4505 73.9106C62.3494 73.7843 62.2989 73.5949 62.2989 73.3423V46.7086C62.2989 46.2287 62.501 45.9888 62.9051 45.9888H74.2708C76.3672 45.9888 78.2362 46.3171 79.8779 46.9738C81.5449 47.6053 82.8582 48.5777 83.818 49.891C84.803 51.2044 85.2956 52.8209 85.2956 54.7404ZM78.4761 54.6267C78.4761 53.3386 78.0594 52.3662 77.2259 51.7095C76.3924 51.0529 75.2685 50.7245 73.8541 50.7245H69.6488C69.3962 50.7245 69.2068 50.775 69.0805 50.8761C68.9794 50.9771 68.9289 51.1539 68.9289 51.4065V57.8849C68.9289 58.1375 68.9668 58.3269 69.0426 58.4532C69.1184 58.5542 69.2573 58.6047 69.4593 58.6047H74.1193C75.4579 58.6047 76.5187 58.2511 77.3017 57.5439C78.0846 56.8367 78.4761 55.8643 78.4761 54.6267Z" fill="white"/>
</svg>
