<svg width="64" height="116" viewBox="0 0 64 116" fill="none" xmlns="http://www.w3.org/2000/svg">
<path d="M56.5889 116H6.42345C2.87066 116 0 113.135 0 109.589V6.41135C0 2.86525 2.87066 0 6.42345 0H56.5889C60.1133 0 63.0123 2.86525 63.0123 6.41135V109.589C63.0123 113.135 60.1417 116 56.5889 116ZM6.42345 1.16312C3.52437 1.16312 1.16532 3.51773 1.16532 6.41135V109.589C1.16532 112.482 3.52437 114.837 6.42345 114.837H56.5889C59.488 114.837 61.847 112.482 61.847 109.589V6.41135C61.847 3.51773 59.488 1.16312 56.5889 1.16312H6.42345Z" fill="#C3C3C3"/>
<path d="M60.0564 104.879H2.95588C2.64323 104.879 2.35901 104.624 2.35901 104.283V7.6309C2.35901 7.31884 2.61481 7.03516 2.95588 7.03516H60.0564C60.369 7.03516 60.6533 7.29048 60.6533 7.6309V104.283C60.6248 104.624 60.369 104.879 60.0564 104.879ZM3.52433 103.716H59.4595V8.22665H3.52433V103.716Z" fill="#C3C3C3"/>
<path d="M31.4919 6.18423C30.4403 6.18423 29.5876 5.33317 29.5876 4.28352C29.5876 3.23388 30.4403 2.38281 31.4919 2.38281C32.5436 2.38281 33.3962 3.23388 33.3962 4.28352C33.4247 5.33317 32.5436 6.18423 31.4919 6.18423ZM31.4919 3.54593C31.094 3.54593 30.753 3.88636 30.753 4.28352C30.753 4.68069 31.094 5.02111 31.4919 5.02111C31.8899 5.02111 32.2309 4.68069 32.2309 4.28352C32.2594 3.88636 31.9183 3.54593 31.4919 3.54593Z" fill="#C3C3C3"/>
<path d="M34.391 112.653H28.6213C27.1433 112.653 25.9211 111.433 25.9211 109.958C25.9211 108.426 27.1433 107.234 28.6213 107.234H34.391C35.869 107.234 37.0911 108.454 37.0911 109.929C37.0911 111.433 35.869 112.653 34.391 112.653ZM28.6213 108.397C27.7686 108.397 27.0865 109.078 27.0865 109.929C27.0865 110.809 27.7686 111.49 28.6213 111.49H34.391C35.2437 111.49 35.9258 110.809 35.9258 109.958C35.9258 109.078 35.2437 108.397 34.391 108.397H28.6213Z" fill="#C3C3C3"/>
<rect x="7.16052" y="12.8887" width="47.9753" height="19.3333" rx="8" fill="#714EFD"/>
</svg>
