<svg width="16" height="17" viewBox="0 0 16 17" fill="none" xmlns="http://www.w3.org/2000/svg">
<path d="M0.0625 15.9471V0.0720825H15.9375V15.9471H0.0625Z" stroke="#121212" stroke-width="0.125"/>
<path d="M0.0625 15.9471V0.0720825H15.9375V15.9471H0.0625Z" stroke="#544EFD" stroke-opacity="0.08" stroke-width="0.125"/>
<path d="M1.99963 6.50958H4.99963V13.0096H1.99963C1.86703 13.0096 1.73985 12.9569 1.64608 12.8631C1.55231 12.7694 1.49963 12.6422 1.49963 12.5096V7.00958C1.49963 6.87697 1.55231 6.7498 1.64608 6.65603C1.73985 6.56226 1.86703 6.50958 1.99963 6.50958Z" fill="#A5A1FF"/>
<path d="M1.99963 6.50958H4.99963V13.0096H1.99963C1.86703 13.0096 1.73985 12.9569 1.64608 12.8631C1.55231 12.7694 1.49963 12.6422 1.49963 12.5096V7.00958C1.49963 6.87697 1.55231 6.7498 1.64608 6.65603C1.73985 6.56226 1.86703 6.50958 1.99963 6.50958Z" stroke="#121212" stroke-linecap="round" stroke-linejoin="round"/>
<path d="M1.99963 6.50958H4.99963V13.0096H1.99963C1.86703 13.0096 1.73985 12.9569 1.64608 12.8631C1.55231 12.7694 1.49963 12.6422 1.49963 12.5096V7.00958C1.49963 6.87697 1.55231 6.7498 1.64608 6.65603C1.73985 6.56226 1.86703 6.50958 1.99963 6.50958Z" stroke="#544EFD" stroke-opacity="0.08" stroke-linecap="round" stroke-linejoin="round"/>
<path d="M4.99963 6.50958L7.49963 1.50958C7.76228 1.50958 8.02235 1.56131 8.265 1.66182C8.50765 1.76233 8.72813 1.90965 8.91385 2.09537C9.09956 2.28109 9.24688 2.50156 9.34739 2.74422C9.4479 2.98687 9.49963 3.24694 9.49963 3.50958V5.00958H13.3669C13.5086 5.00958 13.6488 5.03974 13.7781 5.09804C13.9073 5.15635 14.0227 5.24148 14.1165 5.34778C14.2104 5.45408 14.2805 5.57912 14.3224 5.7146C14.3642 5.85009 14.3767 5.99292 14.3591 6.13362L13.6091 12.1336C13.5789 12.3755 13.4614 12.598 13.2787 12.7593C13.0959 12.9206 12.8606 13.0096 12.6169 13.0096H4.99963" fill="#A5A1FF"/>
<path d="M4.99963 6.50958L7.49963 1.50958C7.76228 1.50958 8.02235 1.56131 8.265 1.66182C8.50765 1.76233 8.72813 1.90965 8.91385 2.09537C9.09956 2.28109 9.24688 2.50156 9.34739 2.74422C9.4479 2.98687 9.49963 3.24694 9.49963 3.50958V5.00958H13.3669C13.5086 5.00958 13.6488 5.03974 13.7781 5.09804C13.9073 5.15635 14.0227 5.24148 14.1165 5.34778C14.2104 5.45408 14.2805 5.57912 14.3224 5.7146C14.3642 5.85009 14.3767 5.99292 14.3591 6.13362L13.6091 12.1336C13.5789 12.3755 13.4614 12.598 13.2787 12.7593C13.0959 12.9206 12.8606 13.0096 12.6169 13.0096H4.99963" stroke="#121212" stroke-linecap="round" stroke-linejoin="round"/>
<path d="M4.99963 6.50958L7.49963 1.50958C7.76228 1.50958 8.02235 1.56131 8.265 1.66182C8.50765 1.76233 8.72813 1.90965 8.91385 2.09537C9.09956 2.28109 9.24688 2.50156 9.34739 2.74422C9.4479 2.98687 9.49963 3.24694 9.49963 3.50958V5.00958H13.3669C13.5086 5.00958 13.6488 5.03974 13.7781 5.09804C13.9073 5.15635 14.0227 5.24148 14.1165 5.34778C14.2104 5.45408 14.2805 5.57912 14.3224 5.7146C14.3642 5.85009 14.3767 5.99292 14.3591 6.13362L13.6091 12.1336C13.5789 12.3755 13.4614 12.598 13.2787 12.7593C13.0959 12.9206 12.8606 13.0096 12.6169 13.0096H4.99963" stroke="#544EFD" stroke-opacity="0.08" stroke-linecap="round" stroke-linejoin="round"/>
</svg>
