<svg width="19" height="16" viewBox="0 0 19 16" fill="none" xmlns="http://www.w3.org/2000/svg">
<path d="M18.6935 3.14173L16.1534 5.65005C15.6488 11.475 10.6864 16 4.7567 16C3.53712 16 2.52781 15.8083 1.76242 15.4333C1.14843 15.125 0.896101 14.8 0.828814 14.7C0.773142 14.6162 0.737268 14.5211 0.723866 14.4217C0.710463 14.3222 0.719877 14.2211 0.751406 14.1258C0.782935 14.0305 0.835767 13.9434 0.905965 13.8712C0.976163 13.7989 1.06192 13.7432 1.15684 13.7083C1.17366 13.7 3.15863 12.95 4.44549 11.5084C3.64742 10.9454 2.94596 10.2588 2.36801 9.47503C1.21571 7.92504 -0.00386399 5.23339 0.727883 1.21674C0.750886 1.09733 0.806011 0.986288 0.887435 0.895347C0.96886 0.804407 1.07356 0.736941 1.19048 0.700075C1.30777 0.662023 1.43337 0.656666 1.55353 0.684592C1.67369 0.712517 1.78378 0.772649 1.87176 0.858407C1.897 0.89174 4.69782 3.62506 8.12105 4.50839V4.00006C8.12435 3.47149 8.23271 2.94874 8.43992 2.46166C8.64714 1.97457 8.94916 1.5327 9.32874 1.16127C9.70831 0.789833 10.158 0.496111 10.6522 0.296873C11.1463 0.0976361 11.6752 -0.00321512 12.2087 7.81268e-05C12.9089 0.00997242 13.5946 0.199396 14.1989 0.549892C14.8033 0.900389 15.3057 1.40001 15.6572 2.00007H18.2141C18.347 1.99966 18.4769 2.03821 18.5877 2.11088C18.6985 2.18354 18.785 2.28707 18.8365 2.4084C18.885 2.53154 18.8973 2.66576 18.872 2.79554C18.8467 2.92531 18.7848 3.04534 18.6935 3.14173Z" fill="white"/>
</svg>
