<svg width="27" height="25" viewBox="0 0 27 25" fill="none" xmlns="http://www.w3.org/2000/svg">
<path d="M25.4792 7.78446L22.4608 10.6063C21.8611 17.1595 15.9643 22.2501 8.9181 22.2501C7.46888 22.2501 6.26953 22.0345 5.36002 21.6126C4.63041 21.2657 4.33057 20.9001 4.25062 20.7876C4.18446 20.6933 4.14183 20.5863 4.12591 20.4744C4.10998 20.3626 4.12117 20.2488 4.15863 20.1416C4.1961 20.0344 4.25888 19.9364 4.34229 19.8551C4.42571 19.7738 4.52761 19.7112 4.64041 19.672C4.6604 19.6626 7.01912 18.8188 8.5483 17.197C7.59995 16.5636 6.76641 15.7912 6.07963 14.9095C4.71037 13.1657 3.26115 10.1376 4.13068 5.61884C4.15802 5.4845 4.22352 5.35958 4.32028 5.25727C4.41703 5.15496 4.54145 5.07906 4.68038 5.03759C4.81976 4.99478 4.96901 4.98875 5.11179 5.02017C5.25458 5.05159 5.3854 5.11923 5.48995 5.21571C5.51993 5.25321 8.84814 8.32821 12.9159 9.32196V8.75009C12.9199 8.15544 13.0486 7.56735 13.2949 7.01938C13.5411 6.47141 13.9 5.9743 14.351 5.55643C14.8021 5.13857 15.3365 4.80813 15.9237 4.58398C16.5109 4.35984 17.1394 4.24638 17.7733 4.25009C18.6054 4.26122 19.4201 4.47432 20.1383 4.86863C20.8564 5.26294 21.4534 5.82502 21.8711 6.50009H24.9095C25.0673 6.49962 25.2218 6.543 25.3534 6.62475C25.485 6.7065 25.5879 6.82296 25.6491 6.95946C25.7067 7.098 25.7213 7.249 25.6912 7.395C25.6612 7.54099 25.5876 7.67602 25.4792 7.78446V7.78446Z" fill="white"/>
</svg>
