<svg width="10" height="10" viewBox="0 0 10 10" fill="none" xmlns="http://www.w3.org/2000/svg">
<path d="M9.8703 8.93758C9.17058 7.7322 8.05056 6.82751 6.72498 6.39696C7.36037 6.01913 7.85412 5.44314 8.13041 4.75747C8.40669 4.07181 8.45021 3.3144 8.25429 2.60161C8.05837 1.88881 7.63384 1.26005 7.04592 0.811925C6.458 0.363799 5.73922 0.121094 4.99998 0.121094C4.26075 0.121094 3.54196 0.363799 2.95405 0.811925C2.36613 1.26005 1.9416 1.88881 1.74568 2.60161C1.54976 3.3144 1.59328 4.07181 1.86956 4.75747C2.14584 5.44314 2.6396 6.01913 3.27498 6.39696C1.9494 6.82751 0.829391 7.7322 0.129671 8.93758C0.0953173 8.99409 0.0771484 9.05895 0.0771484 9.12508C0.0771484 9.19121 0.0953173 9.25607 0.129671 9.31258C0.161723 9.37005 0.208688 9.4178 0.265613 9.4508C0.322538 9.4838 0.387314 9.50082 0.453109 9.50008H9.54686C9.61265 9.50082 9.67743 9.4838 9.73436 9.4508C9.79128 9.4178 9.83825 9.37005 9.8703 9.31258C9.90465 9.25607 9.92282 9.19121 9.92282 9.12508C9.92282 9.05895 9.90465 8.99409 9.8703 8.93758Z" fill="white" fill-opacity="0.6"/>
</svg>
