<svg width="16" height="17" viewBox="0 0 16 17" fill="none" xmlns="http://www.w3.org/2000/svg">
<path d="M12.7784 8.96865C12.7745 7.65768 13.4045 6.66996 14.6761 5.9448C13.9684 4.98193 12.8968 4.45028 11.4802 4.34275C10.1391 4.239 8.67072 5.07435 8.13418 5.07286C7.56741 5.07128 6.26957 4.36396 5.24938 4.36112C3.14091 4.3874 0.895938 5.93858 0.887117 9.10701C0.884512 10.0429 1.06319 11.0102 1.42314 12.009C1.90314 13.3213 3.63984 16.541 5.46121 16.4925C6.41345 16.4738 7.08774 15.8577 8.32707 15.8611C9.52863 15.8645 10.1503 16.5056 11.212 16.5085C13.0485 16.4887 14.636 13.5711 15.1006 12.2579C12.6401 11.1544 12.7783 9.03652 12.7784 8.96865ZM10.6562 3.09737C11.6909 1.94289 11.5994 0.888866 11.5702 0.510143C10.6595 0.557617 9.60377 1.09049 9.00115 1.74965C8.33795 2.45508 7.94633 3.32915 8.02671 4.31527C9.01269 4.38946 9.9133 3.91331 10.6562 3.09737Z" fill="white" fill-opacity="0.87"/>
</svg>
