<svg width="20" height="20" viewBox="0 0 20 20" fill="none" xmlns="http://www.w3.org/2000/svg">
<path d="M4.21497 7.79999C4.21397 7.08867 4.35371 6.38419 4.62614 5.72711C4.89857 5.07003 5.29831 4.47334 5.80233 3.97141C6.30635 3.46948 6.9047 3.07223 7.5629 2.80253C8.22111 2.53284 8.92617 2.39603 9.63747 2.39999C12.6075 2.42249 14.985 4.88999 14.985 7.86749V8.39999C14.985 11.085 15.5475 12.645 16.0425 13.5C16.095 13.591 16.1228 13.6943 16.1229 13.7995C16.123 13.9046 16.0954 14.0079 16.043 14.0991C15.9906 14.1902 15.9151 14.266 15.8242 14.3188C15.7333 14.3716 15.6301 14.3996 15.525 14.4H3.67497C3.56983 14.3996 3.46663 14.3716 3.37571 14.3188C3.2848 14.266 3.20935 14.1902 3.15694 14.0991C3.10453 14.0079 3.07699 13.9046 3.07709 13.7995C3.07718 13.6943 3.1049 13.591 3.15747 13.5C3.65247 12.645 4.21497 11.085 4.21497 8.39999V7.79999Z" stroke="white" stroke-opacity="0.95" stroke-linecap="round" stroke-linejoin="round"/>
<path d="M7.20001 14.3999V14.9999C7.20001 15.6364 7.45287 16.2469 7.90296 16.697C8.35304 17.147 8.96349 17.3999 9.60001 17.3999C10.2365 17.3999 10.847 17.147 11.2971 16.697C11.7472 16.2469 12 15.6364 12 14.9999V14.3999" stroke="white" stroke-opacity="0.95" stroke-linecap="round" stroke-linejoin="round"/>
</svg>
