<svg width="16" height="16" viewBox="0 0 16 16" fill="none" xmlns="http://www.w3.org/2000/svg">
<path d="M6 6.5H10" stroke="#9F9F9E" stroke-linecap="round" stroke-linejoin="round"/>
<path d="M6 8.5H10" stroke="#9F9F9E" stroke-linecap="round" stroke-linejoin="round"/>
<path d="M9.35435 12.2427L8.42875 13.7854C8.38432 13.8594 8.32148 13.9207 8.24635 13.9632C8.17121 14.0058 8.08634 14.0281 8 14.0281C7.91366 14.0281 7.82879 14.0058 7.75365 13.9632C7.67852 13.9207 7.61568 13.8594 7.57125 13.7854L6.64565 12.2427C6.60123 12.1687 6.53839 12.1074 6.46325 12.0649C6.38812 12.0223 6.30325 12 6.21691 12H2.5C2.36739 12 2.24021 11.9473 2.14645 11.8535C2.05268 11.7598 2 11.6326 2 11.5V3.5C2 3.36739 2.05268 3.24021 2.14645 3.14645C2.24021 3.05268 2.36739 3 2.5 3H13.5C13.6326 3 13.7598 3.05268 13.8536 3.14645C13.9473 3.24021 14 3.36739 14 3.5V11.5C14 11.6326 13.9473 11.7598 13.8536 11.8536C13.7598 11.9473 13.6326 12 13.5 12L9.7831 12C9.69676 12 9.61188 12.0223 9.53675 12.0649C9.46161 12.1074 9.39877 12.1687 9.35435 12.2427V12.2427Z" stroke="#9F9F9E" stroke-linecap="round" stroke-linejoin="round"/>
</svg>
