<svg width="33" height="33" viewBox="0 0 33 33" fill="none" xmlns="http://www.w3.org/2000/svg">
<path d="M4.09277 12.2785V25.5803C4.09277 25.8516 4.20058 26.1119 4.39247 26.3038C4.58436 26.4957 4.84461 26.6035 5.11599 26.6035H27.6267C27.8981 26.6035 28.1583 26.4957 28.3502 26.3038C28.5421 26.1119 28.6499 25.8516 28.6499 25.5803V12.2785L16.3713 4.09277L4.09277 12.2785Z" stroke="#C3C3C3" stroke-width="0.5" stroke-linecap="round" stroke-linejoin="round"/>
<path d="M14.1331 19.4409L4.4126 26.3092" stroke="#C3C3C3" stroke-width="0.5" stroke-linecap="round" stroke-linejoin="round"/>
<path d="M28.3304 26.3092L18.6099 19.4409" stroke="#C3C3C3" stroke-width="0.5" stroke-linecap="round" stroke-linejoin="round"/>
<path d="M28.6499 12.2788L18.6096 19.4413H14.1331L4.09277 12.2788" stroke="#C3C3C3" stroke-width="0.5" stroke-linecap="round" stroke-linejoin="round"/>
<path d="M7.81592 14.8925V6.54834H25.0323V14.6812L18.5894 19.3286H14.1532L7.81592 14.8925Z" fill="#714EFD"/>
</svg>
