<svg width="16" height="17" viewBox="0 0 16 17" fill="none" xmlns="http://www.w3.org/2000/svg">
<path d="M14.8571 0.5H1.13929C0.510714 0.5 0 1.01786 0 1.65357V15.3464C0 15.9821 0.510714 16.5 1.13929 16.5H14.8571C15.4857 16.5 16 15.9821 16 15.3464V1.65357C16 1.01786 15.4857 0.5 14.8571 0.5ZM4.83571 14.2143H2.46429V6.57857H4.83929V14.2143H4.83571ZM3.65 5.53571C2.88929 5.53571 2.275 4.91786 2.275 4.16071C2.275 3.40357 2.88929 2.78571 3.65 2.78571C4.40714 2.78571 5.025 3.40357 5.025 4.16071C5.025 4.92143 4.41071 5.53571 3.65 5.53571ZM13.725 14.2143H11.3536V10.5C11.3536 9.61429 11.3357 8.475 10.1214 8.475C8.88571 8.475 8.69643 9.43929 8.69643 10.4357V14.2143H6.325V6.57857H8.6V7.62143H8.63214C8.95 7.02143 9.725 6.38929 10.8786 6.38929C13.2786 6.38929 13.725 7.97143 13.725 10.0286V14.2143Z" fill="white" fill-opacity="0.87"/>
</svg>
