<svg width="17" height="17" viewBox="0 0 17 17" fill="none" xmlns="http://www.w3.org/2000/svg">
<path d="M14.9904 0.539551H1.27259C0.644015 0.539551 0.133301 1.05741 0.133301 1.69312V15.386C0.133301 16.0217 0.644015 16.5396 1.27259 16.5396H14.9904C15.619 16.5396 16.1333 16.0217 16.1333 15.386V1.69312C16.1333 1.05741 15.619 0.539551 14.9904 0.539551ZM4.96902 14.2538H2.59759V6.61812H4.97259V14.2538H4.96902ZM3.7833 5.57527C3.02259 5.57527 2.4083 4.95741 2.4083 4.20027C2.4083 3.44312 3.02259 2.82527 3.7833 2.82527C4.54044 2.82527 5.1583 3.44312 5.1583 4.20027C5.1583 4.96098 4.54401 5.57527 3.7833 5.57527ZM13.8583 14.2538H11.4869V10.5396C11.4869 9.65384 11.469 8.51455 10.2547 8.51455C9.01902 8.51455 8.82973 9.47884 8.82973 10.4753V14.2538H6.4583V6.61812H8.7333V7.66098H8.76544C9.0833 7.06098 9.8583 6.42884 11.0119 6.42884C13.4119 6.42884 13.8583 8.01098 13.8583 10.0681V14.2538Z" fill="white" fill-opacity="0.87"/>
</svg>
