<svg width="308" height="297" viewBox="0 0 308 297" fill="none" xmlns="http://www.w3.org/2000/svg">
<path d="M76.7985 143.24C76.778 160.128 82.4585 176.532 92.9264 189.814C103.394 203.096 118.041 212.483 134.511 216.465C140.869 217.731 147.337 218.362 153.82 218.351C159.957 218.393 166.083 217.815 172.103 216.627C188.725 212.783 203.545 203.429 214.136 190.097C224.728 176.764 230.463 160.244 230.402 143.24C230.402 114.463 215.923 90.3957 189.322 78.1427V88.8593C197.546 93.5949 202.231 98.8585 207.656 106.628C213.617 115.179 217.4 125.047 218.681 135.381C219.961 145.715 218.7 156.203 215.005 165.943C211.31 175.683 205.294 184.38 197.474 191.286C189.654 198.192 180.265 203.098 170.118 205.582C159.02 207.561 147.653 207.511 136.573 205.436C124.365 202.326 113.34 195.719 104.86 186.432C96.3805 177.145 90.8179 165.585 88.8605 153.181C86.903 140.778 88.6364 128.075 93.8464 116.642C99.0564 105.21 107.218 95.4885 117.879 88.7948V78.1427C91.9652 90.5573 76.7985 114.909 76.7985 143.24Z" fill="url(#paint0_linear_3291_119807)"/>
<path d="M270.097 46.8274C248.847 23.2711 221.942 6.6676 189.326 0V10.7166C251.953 25.8324 292.711 80.5739 292.543 144.86C292.359 209.316 246.878 265.81 184.566 279.184C147.225 285.119 121.977 279.006 121.663 278.929C59.8247 265.055 14.8111 208.692 14.6273 144.86C14.4435 81.1675 56.3352 26.5338 117.882 10.7166V0C86.1018 6.93739 57.9102 23.7952 37.1035 46.8582C12.7358 73.837 -0.0989789 107.753 0.000574768 144.922C0.199682 216.023 50.4207 278.529 119.465 293.56C130.39 295.576 141.479 296.557 152.586 296.489C163.946 296.523 175.291 295.636 186.511 293.837C256.259 279.284 306.978 216.655 307.208 144.891C307.308 107.745 294.473 73.8293 270.097 46.8274Z" fill="url(#paint1_linear_3291_119807)"/>
<path d="M189.319 47.7796C208.52 54.7007 227.355 68.8624 239.591 87.2719C251.828 105.681 257.774 127.593 256.533 149.699C255.292 171.805 246.931 192.905 232.711 209.813C218.492 226.721 199.186 238.52 177.709 243.428C176.723 243.653 153.335 248.674 128.553 243.173C107.295 238.099 88.2341 226.264 74.2048 209.426C60.1755 192.588 51.9274 171.648 50.6872 149.72C49.447 127.791 55.281 106.046 67.3215 87.7184C79.362 69.3907 96.6568 55.4654 117.206 48.0028L117.875 47.7796V37.9561L116.313 38.4026C68.6362 53.5132 37.5015 94.9873 37.5015 144.14C37.432 170.159 46.1823 195.425 62.3102 215.775C78.4382 236.125 100.981 250.345 126.225 256.09C126.649 256.183 136.77 258.539 152.819 258.539C161.881 258.533 170.929 257.799 179.875 256.346C231.838 244.893 269.609 197.709 269.694 144.163C269.694 94.5688 232.711 52.2448 192.534 38.9479L189.319 37.9561V47.7796Z" fill="url(#paint2_linear_3291_119807)"/>
<defs>
<linearGradient id="paint0_linear_3291_119807" x1="76.7984" y1="218.353" x2="230.403" y2="218.353" gradientUnits="userSpaceOnUse">
<stop stop-color="#874AFF"/>
<stop offset="1" stop-color="#00AAE0"/>
</linearGradient>
<linearGradient id="paint1_linear_3291_119807" x1="0" y1="74.123" x2="307.209" y2="74.123" gradientUnits="userSpaceOnUse">
<stop stop-color="#844AFF"/>
<stop offset="1" stop-color="#00AAE0"/>
</linearGradient>
<linearGradient id="paint2_linear_3291_119807" x1="37.5011" y1="93.1018" x2="269.694" y2="93.1018" gradientUnits="userSpaceOnUse">
<stop stop-color="#844AFF"/>
<stop offset="1" stop-color="#00AAE0"/>
</linearGradient>
</defs>
</svg>
