<svg width="238" height="42" viewBox="0 0 238 42" fill="none" xmlns="http://www.w3.org/2000/svg">
<g clip-path="url(#clip0_3114_143778)">
<path d="M37.5063 6.63342C34.5764 3.23546 30.6381 0.906235 26.2907 0V1.51905C34.9886 3.65834 40.6485 11.4128 40.6257 20.5205C40.6029 29.6282 34.2828 37.658 25.6304 39.5517C20.4454 40.3909 16.9389 39.5253 16.8967 39.5153C8.30923 37.5485 2.05736 29.5652 2.03134 20.5205C1.98688 16.173 3.37626 11.9363 5.97645 8.49039C8.57666 5.04454 12.2369 2.5894 16.3697 1.51905V0C12.0445 0.965403 8.1233 3.28459 5.15403 6.63342C1.77838 10.4356 -0.0622113 15.3988 0.00160563 20.5271C0.0308807 30.6 7.00161 39.4556 16.5908 41.5849C18.1078 41.8705 19.6478 42.0093 21.1903 41.9995C22.7677 42.0058 24.3429 41.8805 25.9004 41.6247C35.5872 39.5617 42.6294 30.6796 42.6587 20.5238C42.7239 15.3962 40.8831 10.4335 37.5063 6.63342Z" fill="url(#paint0_linear_3114_143778)"/>
<path d="M10.6675 20.2922C10.6646 22.686 11.4521 25.0113 12.9031 26.8932C14.354 28.7753 16.3841 30.1045 18.6662 30.6668C19.5499 30.8456 20.4487 30.9356 21.3497 30.9354C22.2014 30.9401 23.0513 30.8579 23.8869 30.69C26.1964 30.1539 28.2582 28.8321 29.7332 26.9424C31.2082 25.0527 32.0085 22.7073 32.0026 20.2922C32.0026 16.2159 29.9924 12.8063 26.2972 11.0684V12.5874C27.3324 13.2054 28.2061 14.0689 28.8441 15.1048C29.6694 16.3168 30.193 17.7155 30.3698 19.18C30.5466 20.6444 30.3714 22.1307 29.8591 23.5107C29.3469 24.8907 28.513 26.1229 27.4294 27.1009C26.3458 28.079 25.0451 28.7734 23.6397 29.1245C22.0986 29.4065 20.5202 29.3998 18.9816 29.1047C17.294 28.6614 15.7699 27.7256 14.5961 26.412C13.4223 25.0985 12.65 23.4643 12.3738 21.7097C12.0975 19.9553 12.3293 18.1566 13.0408 16.5345C13.7524 14.9123 14.9126 13.5371 16.3794 12.5774V11.0684C14.6547 11.8782 13.1972 13.1804 12.1835 14.8175C11.1697 16.4546 10.6431 18.3562 10.6675 20.2922Z" fill="url(#paint1_linear_3114_143778)"/>
<path d="M26.2907 6.769C29.136 7.84709 31.5777 9.80886 33.2712 12.3776C34.5462 14.3231 35.3392 16.5549 35.5821 18.8817C35.825 21.2083 35.5105 23.5605 34.6657 25.7359C33.8209 27.9115 32.4709 29.8456 30.7318 31.372C28.9926 32.8985 26.9161 33.9719 24.6805 34.5C22.4232 34.9438 20.1024 34.9313 17.8497 34.4635C14.897 33.7268 12.2539 32.044 10.3087 29.6621C8.36342 27.2804 7.21862 24.3253 7.04244 21.2309C6.86627 18.1367 7.66801 15.0664 9.32987 12.471C10.9917 9.87571 13.4261 7.89228 16.2753 6.81212L16.3664 6.78227V5.38925L16.1517 5.45227C9.52903 7.59486 5.20607 13.4688 5.20607 20.4305C5.19551 24.1135 6.40983 27.6912 8.65077 30.5797C10.8849 33.46 14.0166 35.4761 17.5277 36.2944C18.7437 36.5349 19.981 36.6461 21.2196 36.6261C22.4781 36.6251 23.7344 36.5209 24.9765 36.3143C28.5095 35.4904 31.665 33.4715 33.9294 30.5864C36.1939 27.7011 37.4339 24.1193 37.4477 20.4238C37.4477 13.3958 32.3148 7.39917 26.733 5.51528L26.2874 5.37598L26.2907 6.769Z" fill="url(#paint2_linear_3114_143778)"/>
<path d="M70.4897 17.2091C70.4897 16.0954 70.289 15.0995 69.8877 14.2214C69.5075 13.3218 68.9477 12.5722 68.2083 11.9725C67.4902 11.3514 66.6136 10.8802 65.5785 10.5589C64.5646 10.2163 63.4345 10.0449 62.1883 10.0449H53.8868V32.5335H56.3899V24.5982H61.7764C62.9592 24.5982 64.0788 24.4482 65.135 24.1485C66.1911 23.8272 67.1099 23.356 67.8915 22.7349C68.6942 22.1137 69.3279 21.3427 69.7926 20.4218C70.2574 19.5008 70.4897 18.4299 70.4897 17.2091ZM67.955 17.3055C67.955 18.0552 67.807 18.7404 67.5113 19.3616C67.2367 19.9613 66.8248 20.4861 66.2756 20.9358C65.7475 21.3642 65.1032 21.6961 64.3429 21.9318C63.6035 22.1673 62.7797 22.2851 61.8714 22.2851H56.3899V12.3902H61.9981C63.7937 12.3902 65.23 12.8078 66.3073 13.6431C67.4056 14.4569 67.955 15.6777 67.955 17.3055Z" fill="white"/>
<path d="M77.0792 25.9152C77.0792 24.6729 77.2482 23.5807 77.5861 22.6383C77.9241 21.6745 78.3888 20.8714 78.9803 20.2289C79.5717 19.5863 80.2582 19.1044 81.0398 18.7832C81.8425 18.4619 82.6874 18.3012 83.5746 18.3012H83.7646V15.6348C82.9831 15.6133 82.2544 15.7097 81.5784 15.9239C80.9025 16.1381 80.2793 16.4593 79.709 16.8877C79.1387 17.2946 78.6317 17.7872 78.1882 18.3654C77.7446 18.9438 77.3749 19.5756 77.0792 20.261V15.9239H74.6394V32.5333H77.0792V25.9152Z" fill="white"/>
<path d="M102.833 24.2123C102.833 23.0344 102.622 21.9206 102.199 20.8712C101.777 19.8217 101.185 18.9115 100.425 18.1404C99.6646 17.3479 98.7563 16.7268 97.7001 16.277C96.6651 15.8059 95.535 15.5703 94.3099 15.5703C93.0635 15.5703 91.9123 15.8059 90.8562 16.277C89.8211 16.7268 88.9234 17.3479 88.1629 18.1404C87.4025 18.9328 86.8111 19.8645 86.3886 20.9354C85.9662 21.9848 85.7549 23.0986 85.7549 24.2766C85.7549 25.4545 85.9662 26.5683 86.3886 27.6177C86.8111 28.6672 87.4025 29.5881 88.1629 30.3806C88.9234 31.1516 89.8211 31.7728 90.8562 32.244C91.8912 32.6937 93.0213 32.9186 94.2464 32.9186C95.4716 32.9186 96.6123 32.6937 97.6685 32.244C98.7247 31.7728 99.6329 31.141 100.393 30.3484C101.154 29.556 101.745 28.635 102.168 27.5856C102.611 26.5147 102.833 25.3903 102.833 24.2123ZM100.33 24.2766C100.33 25.1761 100.182 26.0221 99.8864 26.8145C99.5907 27.5856 99.1788 28.2602 98.6507 28.8386C98.1226 29.4168 97.4888 29.8773 96.7496 30.2199C96.0102 30.5413 95.197 30.7019 94.3099 30.7019C93.4437 30.7019 92.6411 30.5305 91.9018 30.1878C91.1624 29.8452 90.5183 29.3847 89.9689 28.8064C89.441 28.2281 89.0184 27.5428 88.7016 26.7503C88.4059 25.9578 88.258 25.1118 88.258 24.2123C88.258 23.3127 88.4059 22.4775 88.7016 21.7064C88.9973 20.914 89.3986 20.2287 89.9056 19.6503C90.4337 19.0506 91.0674 18.5902 91.8067 18.2689C92.5461 17.9263 93.3593 17.7549 94.2464 17.7549C95.1125 17.7549 95.9152 17.9263 96.6545 18.2689C97.3939 18.6116 98.038 19.0828 98.5873 19.6825C99.1365 20.2608 99.559 20.9461 99.8547 21.7385C100.172 22.5311 100.33 23.377 100.33 24.2766Z" fill="white"/>
<path d="M120.244 18.8793C119.799 17.937 119.145 17.1552 118.279 16.534C117.413 15.8916 116.315 15.5703 114.984 15.5703C114.287 15.5703 113.674 15.656 113.147 15.8273C112.618 15.9986 112.143 16.2343 111.72 16.534C111.298 16.8125 110.918 17.1445 110.58 17.53C110.263 17.9155 109.967 18.3118 109.692 18.7187V15.9237H107.253V32.5331H109.692V23.0557C109.692 22.2848 109.809 21.5887 110.041 20.9675C110.273 20.3251 110.59 19.7682 110.991 19.297C111.414 18.8258 111.9 18.4617 112.449 18.2046C112.998 17.9476 113.6 17.8191 114.255 17.8191C115.565 17.8191 116.589 18.2582 117.328 19.1363C118.088 19.993 118.469 21.2031 118.469 22.7666V32.5331H120.877V22.9594C120.877 22.1455 120.994 21.4173 121.226 20.7748C121.479 20.1322 121.807 19.5969 122.207 19.1685C122.631 18.7187 123.117 18.3867 123.666 18.1725C124.215 17.937 124.795 17.8191 125.408 17.8191C126.738 17.8191 127.773 18.2582 128.513 19.1363C129.273 19.993 129.654 21.2245 129.654 22.8309V32.5331H132.093V22.2526C132.093 20.1751 131.555 18.5473 130.478 17.3694C129.4 16.17 127.912 15.5703 126.01 15.5703C125.292 15.5703 124.637 15.656 124.045 15.8273C123.475 15.9986 122.957 16.2343 122.493 16.534C122.029 16.8339 121.606 17.1873 121.226 17.5943C120.867 18.0012 120.539 18.4295 120.244 18.8793Z" fill="white"/>
<path d="M138.848 25.1439H151.838C151.86 24.9941 151.871 24.8548 151.871 24.7263C151.871 24.5978 151.871 24.48 151.871 24.3729C151.871 23.1521 151.701 22.0063 151.364 20.9354C151.026 19.8645 150.529 18.9328 149.874 18.1404C149.219 17.3479 148.417 16.7268 147.466 16.277C146.516 15.8059 145.438 15.5703 144.235 15.5703C143.094 15.5703 142.038 15.7952 141.066 16.2449C140.116 16.6947 139.292 17.3158 138.595 18.1082C137.897 18.8793 137.348 19.8003 136.947 20.8712C136.567 21.9206 136.376 23.0451 136.376 24.2444C136.376 25.5295 136.587 26.7075 137.011 27.7784C137.454 28.8492 138.046 29.7702 138.784 30.5413C139.524 31.2908 140.39 31.8798 141.383 32.3082C142.376 32.7152 143.432 32.9186 144.551 32.9186C146.114 32.9186 147.424 32.6401 148.481 32.0834C149.536 31.505 150.477 30.7447 151.301 29.8023L149.779 28.4208C149.104 29.1277 148.354 29.6953 147.53 30.1235C146.727 30.5519 145.755 30.7661 144.614 30.7661C143.897 30.7661 143.21 30.6483 142.555 30.4128C141.901 30.1557 141.309 29.7916 140.78 29.3204C140.253 28.8278 139.819 28.2389 139.481 27.5535C139.144 26.8466 138.933 26.0435 138.848 25.1439ZM138.848 23.3127C138.933 22.499 139.122 21.7493 139.419 21.0639C139.714 20.3785 140.094 19.7896 140.559 19.297C141.024 18.783 141.563 18.3867 142.175 18.1082C142.788 17.8085 143.453 17.6585 144.171 17.6585C144.995 17.6585 145.713 17.8191 146.325 18.1404C146.959 18.4403 147.487 18.8472 147.91 19.3612C148.354 19.8752 148.692 20.4749 148.924 21.1603C149.178 21.8457 149.336 22.5632 149.399 23.3127H138.848Z" fill="white"/>
<path d="M159.436 18.1084H164.633V15.9238H159.436V10.9121H156.997V15.9238H154.716V18.1084H156.997V28.1319C156.997 28.9672 157.114 29.6846 157.346 30.2843C157.577 30.884 157.895 31.3767 158.296 31.7622C158.719 32.1263 159.215 32.394 159.786 32.5654C160.356 32.7367 160.968 32.8224 161.623 32.8224C162.215 32.8224 162.743 32.7581 163.207 32.6296C163.693 32.5225 164.147 32.3512 164.569 32.1156V29.9952C164.147 30.2094 163.746 30.3594 163.366 30.4451C163.006 30.5306 162.616 30.5736 162.194 30.5736C161.37 30.5736 160.704 30.37 160.198 29.9631C159.69 29.5561 159.436 28.8387 159.436 27.8106V18.1084Z" fill="white"/>
<path d="M171.391 23.0239C171.391 22.2529 171.507 21.5461 171.739 20.9036C171.993 20.2611 172.342 19.7149 172.786 19.2651C173.229 18.794 173.747 18.4406 174.338 18.2049C174.95 17.9479 175.606 17.8194 176.303 17.8194C177.76 17.8194 178.879 18.2692 179.661 19.1688C180.442 20.0683 180.834 21.2891 180.834 22.8312V32.5334H183.273V22.2208C183.273 21.2355 183.125 20.336 182.83 19.5221C182.555 18.7082 182.143 18.0122 181.594 17.4339C181.066 16.8343 180.411 16.3737 179.629 16.0525C178.869 15.7312 177.993 15.5706 176.999 15.5706C175.585 15.5706 174.433 15.8919 173.546 16.5344C172.659 17.1555 171.94 17.9158 171.391 18.8154V9.08105H168.952V32.5334H171.391V23.0239Z" fill="white"/>
<path d="M189.934 25.1439H202.924C202.945 24.9941 202.957 24.8548 202.957 24.7263C202.957 24.5978 202.957 24.48 202.957 24.3729C202.957 23.1521 202.787 22.0063 202.449 20.9354C202.111 19.8645 201.615 18.9328 200.96 18.1404C200.305 17.3479 199.502 16.7268 198.551 16.277C197.602 15.8059 196.524 15.5703 195.321 15.5703C194.18 15.5703 193.124 15.7952 192.151 16.2449C191.202 16.6947 190.378 17.3158 189.68 18.1082C188.983 18.8793 188.434 19.8003 188.032 20.8712C187.653 21.9206 187.462 23.0451 187.462 24.2444C187.462 25.5295 187.673 26.7075 188.096 27.7784C188.54 28.8492 189.131 29.7702 189.87 30.5413C190.61 31.2908 191.475 31.8798 192.469 32.3082C193.461 32.7152 194.518 32.9186 195.637 32.9186C197.2 32.9186 198.51 32.6401 199.566 32.0834C200.622 31.505 201.562 30.7447 202.386 29.8023L200.865 28.4208C200.189 29.1277 199.439 29.6953 198.615 30.1235C197.813 30.5519 196.841 30.7661 195.7 30.7661C194.983 30.7661 194.296 30.6483 193.641 30.4128C192.987 30.1557 192.395 29.7916 191.866 29.3204C191.339 28.8278 190.905 28.2389 190.567 27.5535C190.229 26.8466 190.018 26.0435 189.934 25.1439ZM189.934 23.3127C190.018 22.499 190.208 21.7493 190.504 21.0639C190.8 20.3785 191.18 19.7896 191.645 19.297C192.11 18.783 192.648 18.3867 193.26 18.1082C193.873 17.8085 194.538 17.6585 195.257 17.6585C196.081 17.6585 196.799 17.8191 197.411 18.1404C198.045 18.4403 198.573 18.8472 198.996 19.3612C199.439 19.8752 199.777 20.4749 200.01 21.1603C200.264 21.8457 200.422 22.5632 200.485 23.3127H189.934Z" fill="white"/>
<path d="M218.856 25.4333C218.856 26.2043 218.729 26.911 218.475 27.5536C218.222 28.1961 217.873 28.753 217.43 29.2242C217.008 29.6739 216.49 30.0273 215.877 30.2843C215.286 30.52 214.641 30.6378 213.944 30.6378C212.487 30.6378 211.368 30.1879 210.586 29.2885C209.804 28.3889 209.413 27.1681 209.413 25.6261V15.9238H206.974V26.2364C206.974 27.2216 207.111 28.1212 207.386 28.9351C207.682 29.7489 208.093 30.4557 208.622 31.0554C209.171 31.6336 209.825 32.0835 210.586 32.4047C211.368 32.726 212.254 32.8866 213.247 32.8866C214.663 32.8866 215.814 32.576 216.701 31.9549C217.588 31.3124 218.307 30.5414 218.856 29.6418V32.5332H221.264V15.9238H218.856V25.4333Z" fill="white"/>
<path d="M238 27.8749V27.8107C238 27.061 237.842 26.4292 237.525 25.9152C237.229 25.4012 236.828 24.9622 236.321 24.598C235.814 24.234 235.244 23.9341 234.61 23.6985C233.997 23.4629 233.374 23.2487 232.74 23.0559C232.191 22.8846 231.663 22.7132 231.156 22.542C230.649 22.3705 230.195 22.1778 229.793 21.9637C229.413 21.7495 229.108 21.5032 228.875 21.2247C228.643 20.925 228.526 20.5823 228.526 20.1968V20.1324C228.526 19.4471 228.811 18.8796 229.381 18.4297C229.952 17.9586 230.723 17.723 231.695 17.723C232.498 17.723 233.311 17.8729 234.135 18.1727C234.979 18.4511 235.782 18.8366 236.543 19.3293L237.652 17.466C236.807 16.9091 235.867 16.47 234.832 16.1488C233.797 15.8061 232.772 15.6348 231.758 15.6348C230.955 15.6348 230.206 15.7526 229.508 15.9881C228.833 16.2023 228.241 16.5236 227.735 16.952C227.248 17.3589 226.868 17.8621 226.594 18.4619C226.319 19.0402 226.182 19.6827 226.182 20.3895V20.4538C226.182 21.2247 226.34 21.8673 226.657 22.3813C226.995 22.8953 227.417 23.3237 227.924 23.6664C228.452 24.009 229.033 24.2982 229.667 24.5338C230.321 24.748 230.966 24.9514 231.6 25.1441C232.127 25.2941 232.635 25.4547 233.121 25.6261C233.627 25.7974 234.071 26.0009 234.451 26.2365C234.832 26.4507 235.127 26.7077 235.338 27.0076C235.571 27.3074 235.687 27.6607 235.687 28.0677V28.1319C235.687 28.9458 235.37 29.5883 234.736 30.0595C234.103 30.5307 233.289 30.7663 232.297 30.7663C231.325 30.7663 230.354 30.5843 229.381 30.2201C228.431 29.8561 227.512 29.3313 226.625 28.6459L225.389 30.413C226.319 31.1625 227.385 31.7622 228.59 32.2121C229.793 32.6403 230.987 32.8545 232.17 32.8545C232.994 32.8545 233.754 32.7475 234.451 32.5333C235.17 32.2976 235.782 31.9657 236.289 31.5373C236.817 31.109 237.229 30.5949 237.525 29.9952C237.842 29.3742 238 28.6674 238 27.8749Z" fill="white"/>
</g>
<defs>
<linearGradient id="paint0_linear_3114_143778" x1="21.3302" y1="0" x2="21.3302" y2="58.4595" gradientUnits="userSpaceOnUse">
<stop stop-color="#844AFF"/>
<stop offset="1" stop-color="#00AAE0"/>
</linearGradient>
<linearGradient id="paint1_linear_3114_143778" x1="21.3302" y1="0.000486071" x2="21.3302" y2="58.4599" gradientUnits="userSpaceOnUse">
<stop stop-color="#844AFF"/>
<stop offset="1" stop-color="#00AAE0"/>
</linearGradient>
<linearGradient id="paint2_linear_3114_143778" x1="21.3302" y1="-0.000409297" x2="21.3302" y2="58.459" gradientUnits="userSpaceOnUse">
<stop stop-color="#844AFF"/>
<stop offset="1" stop-color="#00AAE0"/>
</linearGradient>
<clipPath id="clip0_3114_143778">
<rect width="238" height="42" fill="white"/>
</clipPath>
</defs>
</svg>
