<svg width="24" height="45" viewBox="0 0 24 45" fill="none" xmlns="http://www.w3.org/2000/svg">
<path d="M21.5535 44.1818H2.44655C1.09337 44.1818 0 43.0905 0 41.7399V2.44194C0 1.09131 1.09337 0 2.44655 0H21.5535C22.8958 0 24 1.09131 24 2.44194V41.7399C24 43.0905 22.9066 44.1818 21.5535 44.1818ZM2.44655 0.443007C1.34235 0.443007 0.443843 1.33983 0.443843 2.44194V41.7399C0.443843 42.842 1.34235 43.7388 2.44655 43.7388H21.5535C22.6576 43.7388 23.5562 42.842 23.5562 41.7399V2.44194C23.5562 1.33983 22.6576 0.443007 21.5535 0.443007H2.44655Z" fill="#C3C3C3"/>
<path d="M22.8741 39.9463H1.12577C1.00669 39.9463 0.898438 39.849 0.898438 39.7194V2.90659C0.898438 2.78774 0.995866 2.67969 1.12577 2.67969H22.8741C22.9932 2.67969 23.1014 2.77693 23.1014 2.90659V39.7194C23.0906 39.849 22.9932 39.9463 22.8741 39.9463ZM1.34228 39.5033H22.6467V3.1335H1.34228V39.5033Z" fill="#C3C3C3"/>
<path d="M11.9943 2.35559C11.5938 2.35559 11.269 2.03144 11.269 1.63165C11.269 1.23187 11.5938 0.907715 11.9943 0.907715C12.3949 0.907715 12.7197 1.23187 12.7197 1.63165C12.7305 2.03144 12.3949 2.35559 11.9943 2.35559ZM11.9943 1.35072C11.8428 1.35072 11.7129 1.48038 11.7129 1.63165C11.7129 1.78292 11.8428 1.91258 11.9943 1.91258C12.1459 1.91258 12.2758 1.78292 12.2758 1.63165C12.2866 1.48038 12.1567 1.35072 11.9943 1.35072Z" fill="#C3C3C3"/>
<path d="M13.099 42.907H10.9015C10.3385 42.907 9.87305 42.4424 9.87305 41.8805C9.87305 41.2971 10.3385 40.8433 10.9015 40.8433H13.099C13.6619 40.8433 14.1274 41.3079 14.1274 41.8697C14.1274 42.4424 13.6619 42.907 13.099 42.907ZM10.9015 41.2863C10.5767 41.2863 10.3169 41.5456 10.3169 41.8697C10.3169 42.2047 10.5767 42.464 10.9015 42.464H13.099C13.4238 42.464 13.6836 42.2047 13.6836 41.8805C13.6836 41.5456 13.4238 41.2863 13.099 41.2863H10.9015Z" fill="#C3C3C3"/>
<rect x="2.72754" y="4.90918" width="18.2727" height="7.36364" rx="3.68182" fill="#714EFD"/>
</svg>
