<svg width="20" height="21" viewBox="0 0 20 21" fill="none" xmlns="http://www.w3.org/2000/svg">
<path d="M12.4539 18.7125V13.8033C12.4539 13.5863 12.3677 13.3782 12.2143 13.2248C12.0609 13.0713 11.8528 12.9851 11.6358 12.9851H8.36304C8.14604 12.9851 7.93793 13.0713 7.7845 13.2248C7.63106 13.3782 7.54486 13.5863 7.54486 13.8033V18.7125C7.54486 18.9295 7.45867 19.1376 7.30525 19.291C7.15183 19.4444 6.94375 19.5307 6.72678 19.5307L1.81828 19.5313C1.71083 19.5313 1.60443 19.5102 1.50515 19.4691C1.40587 19.428 1.31566 19.3677 1.23968 19.2917C1.16369 19.2157 1.10341 19.1255 1.06229 19.0263C1.02117 18.927 1 18.8206 1 18.7131V9.25697C1 9.14298 1.02382 9.03025 1.06993 8.926C1.11604 8.82175 1.18342 8.72829 1.26776 8.65161L9.44902 1.21282C9.59962 1.07589 9.79586 1.00001 9.99941 1C10.203 0.999993 10.3992 1.07586 10.5498 1.21279L18.7322 8.6516C18.8165 8.72829 18.8839 8.82175 18.9301 8.92601C18.9762 9.03026 19 9.143 19 9.257V18.7131C19 18.8206 18.9788 18.927 18.9377 19.0263C18.8966 19.1256 18.8363 19.2158 18.7603 19.2917C18.6843 19.3677 18.5941 19.428 18.4949 19.4691C18.3956 19.5102 18.2892 19.5313 18.1817 19.5313L13.272 19.5307C13.055 19.5307 12.847 19.4444 12.6935 19.291C12.5401 19.1376 12.4539 18.9295 12.4539 18.7125V18.7125Z" stroke="#878786" stroke-linecap="round" stroke-linejoin="round"/>
</svg>
