<svg width="22" height="18" viewBox="0 0 22 18" fill="none" xmlns="http://www.w3.org/2000/svg">
<path d="M17.0497 4.00977H21.5" stroke="#878786" stroke-linecap="round" stroke-linejoin="round"/>
<path d="M17.7635 6.68945L21.472 6.68945" stroke="#878786" stroke-linecap="round" stroke-linejoin="round"/>
<path d="M17.0497 9.37012H21.5" stroke="#878786" stroke-linecap="round" stroke-linejoin="round"/>
<path d="M9.15476 12.1695C12.3082 12.1695 14.8645 9.61316 14.8645 6.45975C14.8645 3.30634 12.3082 0.75 9.15476 0.75C6.00135 0.75 3.44501 3.30634 3.44501 6.45975C3.44501 9.61316 6.00135 12.1695 9.15476 12.1695Z" stroke="#878786" stroke-linecap="round" stroke-linejoin="round"/>
<path d="M0.5 17.1641C1.37748 15.6453 2.63921 14.3841 4.15842 13.5073C5.67763 12.6305 7.40084 12.1689 9.15493 12.1689C10.909 12.169 12.6322 12.6306 14.1514 13.5074C15.6706 14.3843 16.9323 15.6455 17.8097 17.1643" stroke="#878786" stroke-linecap="round" stroke-linejoin="round"/>
</svg>
