<svg width="24" height="24" viewBox="0 0 24 24" fill="none" xmlns="http://www.w3.org/2000/svg">
<path d="M12.0198 15.9518C10.9043 15.9518 10 16.858 10 17.9759C10 19.0938 10.9043 20 12.0198 20C13.1353 20 14.0396 19.0938 14.0396 17.9759C14.0396 16.858 13.1353 15.9518 12.0198 15.9518Z" fill="white"/>
<path d="M12.0198 9.97575C10.9043 9.97575 10 10.882 10 11.9998C10 13.1177 10.9043 14.0239 12.0198 14.0239C13.1353 14.0239 14.0396 13.1177 14.0396 11.9998C14.0396 10.882 13.1353 9.97575 12.0198 9.97575Z" fill="white"/>
<path d="M12.0198 4.00017C10.9043 4.00017 10 4.90638 10 6.02425C10 7.14213 10.9043 8.04834 12.0198 8.04834C13.1353 8.04834 14.0396 7.14213 14.0396 6.02425C14.0396 4.90638 13.1353 4.00017 12.0198 4.00017Z" fill="white"/>
</svg>
