<svg width="309" height="129" viewBox="0 0 309 129" fill="none" xmlns="http://www.w3.org/2000/svg">
<path d="M182.939 11.5337C177.788 5.62557 170.864 1.57569 163.221 0V2.64121C178.513 6.36082 188.463 19.8437 188.423 35.6794C188.383 51.5152 177.272 65.4767 162.06 68.7695C152.944 70.2285 146.78 68.7234 146.705 68.7061C131.608 65.2864 120.617 51.4056 120.571 35.6794C120.493 28.1202 122.936 20.7538 127.507 14.7624C132.078 8.77105 138.513 4.50225 145.779 2.64121V0C138.175 1.67857 131.281 5.71099 126.061 11.5337C120.127 18.1446 116.891 26.7742 117.003 35.691C117.054 53.2048 129.309 68.6023 146.168 72.3046C148.835 72.801 151.542 73.0424 154.254 73.0255C157.027 73.0364 159.797 72.8184 162.535 72.3738C179.565 68.7868 191.946 53.3432 191.997 35.6852C192.112 26.7697 188.875 18.141 182.939 11.5337Z" fill="url(#paint0_linear_0_1)"/>
<path d="M135.754 35.2815C135.749 39.4438 137.134 43.4867 139.685 46.759C142.235 50.0313 145.804 52.3424 149.816 53.3202C151.37 53.6311 152.95 53.7876 154.534 53.7873C156.031 53.7953 157.526 53.6524 158.995 53.3605C163.055 52.4283 166.68 50.1302 169.273 46.8445C171.866 43.5587 173.273 39.4808 173.263 35.2815C173.263 28.1941 169.729 22.2658 163.232 19.2439V21.8852C165.052 22.9596 166.588 24.4611 167.71 26.2622C169.161 28.3696 170.081 30.8014 170.392 33.3477C170.703 35.8941 170.395 38.4784 169.494 40.8778C168.594 43.2772 167.128 45.4196 165.223 47.1201C163.318 48.8206 161.031 50.0282 158.56 50.6386C155.851 51.1289 153.076 51.1172 150.371 50.604C147.404 49.8333 144.725 48.2062 142.661 45.9224C140.597 43.6385 139.24 40.797 138.754 37.7464C138.268 34.6957 138.676 31.5685 139.927 28.748C141.178 25.9275 143.217 23.5364 145.796 21.8679V19.2439C142.764 20.652 140.202 22.9163 138.419 25.7627C136.637 28.609 135.711 31.9155 135.754 35.2815Z" fill="url(#paint1_linear_0_1)"/>
<path d="M163.221 11.7701C168.223 13.6446 172.516 17.0556 175.493 21.5218C177.735 24.9044 179.129 28.7851 179.556 32.8306C179.983 36.8761 179.43 40.9657 177.945 44.7484C176.46 48.5311 174.086 51.8938 171.029 54.548C167.971 57.2021 164.32 59.0684 160.39 59.9866C156.422 60.7582 152.341 60.7366 148.381 59.9232C143.19 58.6423 138.543 55.7162 135.123 51.575C131.704 47.4337 129.691 42.2956 129.381 36.9154C129.071 31.5353 130.481 26.1968 133.403 21.6843C136.324 17.1718 140.604 13.7232 145.613 11.8451L145.773 11.7932V9.37111L145.396 9.48068C133.753 13.2061 126.153 23.4191 126.153 35.5237C126.134 41.9273 128.269 48.1481 132.209 53.1702C136.136 58.1783 141.642 61.6838 147.815 63.1065C149.953 63.5248 152.128 63.7181 154.306 63.6832C156.518 63.6815 158.727 63.5003 160.911 63.1411C167.122 61.7087 172.669 58.1985 176.65 53.1818C180.631 48.1651 182.811 41.9374 182.836 35.5122C182.836 23.2923 173.812 12.8658 163.999 9.59025L163.215 9.34804L163.221 11.7701Z" fill="url(#paint2_linear_0_1)"/>
<path d="M6.41525 128L0.79925 111.2H3.27125L8.43125 126.704H7.18325L12.5353 111.2H14.7433L19.9753 126.704H18.7753L24.0073 111.2H26.2873L20.6713 128H18.1513L13.2552 113.624H13.9033L8.98325 128H6.41525ZM33.5902 128.144C32.2302 128.144 31.0302 127.864 29.9902 127.304C28.9662 126.744 28.1662 125.976 27.5902 125C27.0302 124.024 26.7502 122.904 26.7502 121.64C26.7502 120.376 27.0222 119.256 27.5662 118.28C28.1262 117.304 28.8862 116.544 29.8462 116C30.8222 115.44 31.9182 115.16 33.1342 115.16C34.3662 115.16 35.4542 115.432 36.3982 115.976C37.3422 116.52 38.0782 117.288 38.6062 118.28C39.1502 119.256 39.4222 120.4 39.4222 121.712C39.4222 121.808 39.4142 121.92 39.3982 122.048C39.3982 122.176 39.3902 122.296 39.3742 122.408H28.5502V120.752H38.1742L37.2382 121.328C37.2542 120.512 37.0862 119.784 36.7342 119.144C36.3822 118.504 35.8942 118.008 35.2702 117.656C34.6622 117.288 33.9502 117.104 33.1342 117.104C32.3342 117.104 31.6222 117.288 30.9982 117.656C30.3742 118.008 29.8862 118.512 29.5342 119.168C29.1822 119.808 29.0062 120.544 29.0062 121.376V121.76C29.0062 122.608 29.1982 123.368 29.5822 124.04C29.9822 124.696 30.5342 125.208 31.2382 125.576C31.9422 125.944 32.7502 126.128 33.6622 126.128C34.4142 126.128 35.0942 126 35.7022 125.744C36.3262 125.488 36.8702 125.104 37.3342 124.592L38.6062 126.08C38.0302 126.752 37.3102 127.264 36.4462 127.616C35.5982 127.968 34.6462 128.144 33.5902 128.144ZM42.6215 128V110.192H44.9255V128H42.6215ZM54.8686 128.144C53.5726 128.144 52.4126 127.864 51.3886 127.304C50.3806 126.744 49.5886 125.976 49.0126 125C48.4366 124.024 48.1486 122.904 48.1486 121.64C48.1486 120.376 48.4366 119.256 49.0126 118.28C49.5886 117.304 50.3806 116.544 51.3886 116C52.4126 115.44 53.5726 115.16 54.8686 115.16C56.0206 115.16 57.0446 115.392 57.9406 115.856C58.8526 116.304 59.5566 116.976 60.0526 117.872L58.3006 119C57.8846 118.376 57.3726 117.92 56.7646 117.632C56.1726 117.328 55.5326 117.176 54.8446 117.176C54.0126 117.176 53.2686 117.36 52.6126 117.728C51.9566 118.096 51.4366 118.616 51.0526 119.288C50.6686 119.944 50.4766 120.728 50.4766 121.64C50.4766 122.552 50.6686 123.344 51.0526 124.016C51.4366 124.688 51.9566 125.208 52.6126 125.576C53.2686 125.944 54.0126 126.128 54.8446 126.128C55.5326 126.128 56.1726 125.984 56.7646 125.696C57.3726 125.392 57.8846 124.928 58.3006 124.304L60.0526 125.408C59.5566 126.288 58.8526 126.968 57.9406 127.448C57.0446 127.912 56.0206 128.144 54.8686 128.144ZM68.2961 128.144C67.0161 128.144 65.8801 127.864 64.8881 127.304C63.8961 126.744 63.1121 125.976 62.5361 125C61.9601 124.008 61.6721 122.888 61.6721 121.64C61.6721 120.376 61.9601 119.256 62.5361 118.28C63.1121 117.304 63.8961 116.544 64.8881 116C65.8801 115.44 67.0161 115.16 68.2961 115.16C69.5601 115.16 70.6881 115.44 71.6801 116C72.6881 116.544 73.4721 117.304 74.0321 118.28C74.6081 119.24 74.8961 120.36 74.8961 121.64C74.8961 122.904 74.6081 124.024 74.0321 125C73.4721 125.976 72.6881 126.744 71.6801 127.304C70.6881 127.864 69.5601 128.144 68.2961 128.144ZM68.2961 126.128C69.1121 126.128 69.8401 125.944 70.4801 125.576C71.1361 125.208 71.6481 124.688 72.0161 124.016C72.3841 123.328 72.5681 122.536 72.5681 121.64C72.5681 120.728 72.3841 119.944 72.0161 119.288C71.6481 118.616 71.1361 118.096 70.4801 117.728C69.8401 117.36 69.1121 117.176 68.2961 117.176C67.4801 117.176 66.7521 117.36 66.1121 117.728C65.4721 118.096 64.9601 118.616 64.5761 119.288C64.1921 119.944 64.0001 120.728 64.0001 121.64C64.0001 122.536 64.1921 123.328 64.5761 124.016C64.9601 124.688 65.4721 125.208 66.1121 125.576C66.7521 125.944 67.4801 126.128 68.2961 126.128ZM93.9944 115.16C95.0184 115.16 95.9224 115.36 96.7064 115.76C97.4904 116.16 98.0984 116.768 98.5304 117.584C98.9784 118.4 99.2024 119.432 99.2024 120.68V128H96.8984V120.944C96.8984 119.712 96.6104 118.784 96.0344 118.16C95.4584 117.536 94.6504 117.224 93.6104 117.224C92.8424 117.224 92.1704 117.384 91.5944 117.704C91.0184 118.024 90.5704 118.496 90.2504 119.12C89.9464 119.744 89.7944 120.52 89.7944 121.448V128H87.4904V120.944C87.4904 119.712 87.2024 118.784 86.6264 118.16C86.0664 117.536 85.2584 117.224 84.2024 117.224C83.4504 117.224 82.7864 117.384 82.2104 117.704C81.6344 118.024 81.1864 118.496 80.8664 119.12C80.5464 119.744 80.3864 120.52 80.3864 121.448V128H78.0824V115.28H80.2904V118.664L79.9304 117.8C80.3304 116.968 80.9464 116.32 81.7784 115.856C82.6104 115.392 83.5784 115.16 84.6824 115.16C85.8984 115.16 86.9464 115.464 87.8264 116.072C88.7064 116.664 89.2824 117.568 89.5544 118.784L88.6184 118.4C89.0024 117.424 89.6744 116.64 90.6344 116.048C91.5944 115.456 92.7144 115.16 93.9944 115.16ZM109.106 128.144C107.746 128.144 106.546 127.864 105.506 127.304C104.482 126.744 103.682 125.976 103.106 125C102.546 124.024 102.266 122.904 102.266 121.64C102.266 120.376 102.538 119.256 103.082 118.28C103.642 117.304 104.402 116.544 105.362 116C106.338 115.44 107.434 115.16 108.65 115.16C109.882 115.16 110.97 115.432 111.914 115.976C112.858 116.52 113.594 117.288 114.122 118.28C114.666 119.256 114.938 120.4 114.938 121.712C114.938 121.808 114.93 121.92 114.914 122.048C114.914 122.176 114.906 122.296 114.89 122.408H104.066V120.752H113.69L112.754 121.328C112.77 120.512 112.602 119.784 112.25 119.144C111.898 118.504 111.41 118.008 110.786 117.656C110.178 117.288 109.466 117.104 108.65 117.104C107.85 117.104 107.138 117.288 106.514 117.656C105.89 118.008 105.402 118.512 105.05 119.168C104.698 119.808 104.522 120.544 104.522 121.376V121.76C104.522 122.608 104.714 123.368 105.098 124.04C105.498 124.696 106.05 125.208 106.754 125.576C107.458 125.944 108.266 126.128 109.178 126.128C109.93 126.128 110.61 126 111.218 125.744C111.842 125.488 112.386 125.104 112.85 124.592L114.122 126.08C113.546 126.752 112.826 127.264 111.962 127.616C111.114 127.968 110.162 128.144 109.106 128.144ZM128.95 128.144C127.67 128.144 126.678 127.8 125.974 127.112C125.27 126.424 124.918 125.44 124.918 124.16V112.496H127.222V124.064C127.222 124.752 127.39 125.28 127.726 125.648C128.078 126.016 128.574 126.2 129.214 126.2C129.934 126.2 130.534 126 131.014 125.6L131.734 127.256C131.382 127.56 130.958 127.784 130.462 127.928C129.982 128.072 129.478 128.144 128.95 128.144ZM122.758 117.176V115.28H130.87V117.176H122.758ZM139.546 128.144C138.266 128.144 137.13 127.864 136.138 127.304C135.146 126.744 134.362 125.976 133.786 125C133.21 124.008 132.922 122.888 132.922 121.64C132.922 120.376 133.21 119.256 133.786 118.28C134.362 117.304 135.146 116.544 136.138 116C137.13 115.44 138.266 115.16 139.546 115.16C140.81 115.16 141.938 115.44 142.93 116C143.938 116.544 144.722 117.304 145.282 118.28C145.858 119.24 146.146 120.36 146.146 121.64C146.146 122.904 145.858 124.024 145.282 125C144.722 125.976 143.938 126.744 142.93 127.304C141.938 127.864 140.81 128.144 139.546 128.144ZM139.546 126.128C140.362 126.128 141.09 125.944 141.73 125.576C142.386 125.208 142.898 124.688 143.266 124.016C143.634 123.328 143.818 122.536 143.818 121.64C143.818 120.728 143.634 119.944 143.266 119.288C142.898 118.616 142.386 118.096 141.73 117.728C141.09 117.36 140.362 117.176 139.546 117.176C138.73 117.176 138.002 117.36 137.362 117.728C136.722 118.096 136.21 118.616 135.826 119.288C135.442 119.944 135.25 120.728 135.25 121.64C135.25 122.536 135.442 123.328 135.826 124.016C136.21 124.688 136.722 125.208 137.362 125.576C138.002 125.944 138.73 126.128 139.546 126.128ZM156.114 128V111.2H162.666C164.138 111.2 165.394 111.432 166.434 111.896C167.474 112.36 168.274 113.032 168.834 113.912C169.394 114.792 169.674 115.84 169.674 117.056C169.674 118.272 169.394 119.32 168.834 120.2C168.274 121.064 167.474 121.736 166.434 122.216C165.394 122.68 164.138 122.912 162.666 122.912H157.434L158.514 121.784V128H156.114ZM158.514 122.024L157.434 120.824H162.594C164.13 120.824 165.29 120.496 166.074 119.84C166.874 119.184 167.274 118.256 167.274 117.056C167.274 115.856 166.874 114.928 166.074 114.272C165.29 113.616 164.13 113.288 162.594 113.288H157.434L158.514 112.088V122.024ZM172.629 128V115.28H174.837V118.736L174.621 117.872C174.973 116.992 175.565 116.32 176.397 115.856C177.229 115.392 178.253 115.16 179.469 115.16V117.392C179.373 117.376 179.277 117.368 179.181 117.368C179.101 117.368 179.021 117.368 178.941 117.368C177.709 117.368 176.733 117.736 176.013 118.472C175.293 119.208 174.933 120.272 174.933 121.664V128H172.629ZM187.64 128.144C186.36 128.144 185.224 127.864 184.232 127.304C183.24 126.744 182.456 125.976 181.88 125C181.304 124.008 181.016 122.888 181.016 121.64C181.016 120.376 181.304 119.256 181.88 118.28C182.456 117.304 183.24 116.544 184.232 116C185.224 115.44 186.36 115.16 187.64 115.16C188.904 115.16 190.032 115.44 191.024 116C192.032 116.544 192.816 117.304 193.376 118.28C193.952 119.24 194.24 120.36 194.24 121.64C194.24 122.904 193.952 124.024 193.376 125C192.816 125.976 192.032 126.744 191.024 127.304C190.032 127.864 188.904 128.144 187.64 128.144ZM187.64 126.128C188.456 126.128 189.184 125.944 189.824 125.576C190.48 125.208 190.992 124.688 191.36 124.016C191.728 123.328 191.912 122.536 191.912 121.64C191.912 120.728 191.728 119.944 191.36 119.288C190.992 118.616 190.48 118.096 189.824 117.728C189.184 117.36 188.456 117.176 187.64 117.176C186.824 117.176 186.096 117.36 185.456 117.728C184.816 118.096 184.304 118.616 183.92 119.288C183.536 119.944 183.344 120.728 183.344 121.64C183.344 122.536 183.536 123.328 183.92 124.016C184.304 124.688 184.816 125.208 185.456 125.576C186.096 125.944 186.824 126.128 187.64 126.128ZM213.338 115.16C214.362 115.16 215.266 115.36 216.05 115.76C216.834 116.16 217.442 116.768 217.874 117.584C218.322 118.4 218.546 119.432 218.546 120.68V128H216.242V120.944C216.242 119.712 215.954 118.784 215.378 118.16C214.802 117.536 213.994 117.224 212.954 117.224C212.186 117.224 211.514 117.384 210.938 117.704C210.362 118.024 209.914 118.496 209.594 119.12C209.29 119.744 209.138 120.52 209.138 121.448V128H206.834V120.944C206.834 119.712 206.546 118.784 205.97 118.16C205.41 117.536 204.602 117.224 203.546 117.224C202.794 117.224 202.13 117.384 201.554 117.704C200.978 118.024 200.53 118.496 200.21 119.12C199.89 119.744 199.73 120.52 199.73 121.448V128H197.426V115.28H199.634V118.664L199.274 117.8C199.674 116.968 200.29 116.32 201.122 115.856C201.954 115.392 202.922 115.16 204.026 115.16C205.242 115.16 206.29 115.464 207.17 116.072C208.05 116.664 208.626 117.568 208.898 118.784L207.962 118.4C208.346 117.424 209.018 116.64 209.978 116.048C210.938 115.456 212.058 115.16 213.338 115.16ZM228.45 128.144C227.09 128.144 225.89 127.864 224.85 127.304C223.826 126.744 223.026 125.976 222.45 125C221.89 124.024 221.61 122.904 221.61 121.64C221.61 120.376 221.882 119.256 222.426 118.28C222.986 117.304 223.746 116.544 224.706 116C225.682 115.44 226.778 115.16 227.994 115.16C229.226 115.16 230.314 115.432 231.258 115.976C232.202 116.52 232.938 117.288 233.466 118.28C234.01 119.256 234.282 120.4 234.282 121.712C234.282 121.808 234.274 121.92 234.258 122.048C234.258 122.176 234.25 122.296 234.234 122.408H223.41V120.752H233.034L232.098 121.328C232.114 120.512 231.946 119.784 231.594 119.144C231.242 118.504 230.754 118.008 230.13 117.656C229.522 117.288 228.81 117.104 227.994 117.104C227.194 117.104 226.482 117.288 225.858 117.656C225.234 118.008 224.746 118.512 224.394 119.168C224.042 119.808 223.866 120.544 223.866 121.376V121.76C223.866 122.608 224.058 123.368 224.442 124.04C224.842 124.696 225.394 125.208 226.098 125.576C226.802 125.944 227.61 126.128 228.522 126.128C229.274 126.128 229.954 126 230.562 125.744C231.186 125.488 231.73 125.104 232.194 124.592L233.466 126.08C232.89 126.752 232.17 127.264 231.306 127.616C230.458 127.968 229.506 128.144 228.45 128.144ZM241.849 128.144C240.569 128.144 239.577 127.8 238.873 127.112C238.169 126.424 237.817 125.44 237.817 124.16V112.496H240.121V124.064C240.121 124.752 240.289 125.28 240.625 125.648C240.977 126.016 241.473 126.2 242.113 126.2C242.833 126.2 243.433 126 243.913 125.6L244.633 127.256C244.281 127.56 243.857 127.784 243.361 127.928C242.881 128.072 242.377 128.144 241.849 128.144ZM235.657 117.176V115.28H243.769V117.176H235.657ZM254.21 115.16C255.25 115.16 256.162 115.36 256.946 115.76C257.746 116.16 258.37 116.768 258.818 117.584C259.266 118.4 259.49 119.432 259.49 120.68V128H257.186V120.944C257.186 119.712 256.882 118.784 256.274 118.16C255.682 117.536 254.842 117.224 253.754 117.224C252.938 117.224 252.226 117.384 251.618 117.704C251.01 118.024 250.538 118.496 250.202 119.12C249.882 119.744 249.722 120.52 249.722 121.448V128H247.418V110.192H249.722V118.712L249.266 117.8C249.682 116.968 250.322 116.32 251.186 115.856C252.05 115.392 253.058 115.16 254.21 115.16ZM269.418 128.144C268.058 128.144 266.858 127.864 265.818 127.304C264.794 126.744 263.994 125.976 263.418 125C262.858 124.024 262.578 122.904 262.578 121.64C262.578 120.376 262.85 119.256 263.394 118.28C263.954 117.304 264.714 116.544 265.674 116C266.65 115.44 267.746 115.16 268.962 115.16C270.194 115.16 271.282 115.432 272.226 115.976C273.17 116.52 273.906 117.288 274.434 118.28C274.978 119.256 275.25 120.4 275.25 121.712C275.25 121.808 275.242 121.92 275.226 122.048C275.226 122.176 275.218 122.296 275.202 122.408H264.378V120.752H274.002L273.066 121.328C273.082 120.512 272.914 119.784 272.562 119.144C272.21 118.504 271.722 118.008 271.098 117.656C270.49 117.288 269.778 117.104 268.962 117.104C268.162 117.104 267.45 117.288 266.826 117.656C266.202 118.008 265.714 118.512 265.362 119.168C265.01 119.808 264.834 120.544 264.834 121.376V121.76C264.834 122.608 265.026 123.368 265.41 124.04C265.81 124.696 266.362 125.208 267.066 125.576C267.77 125.944 268.578 126.128 269.49 126.128C270.242 126.128 270.922 126 271.53 125.744C272.154 125.488 272.698 125.104 273.162 124.592L274.434 126.08C273.858 126.752 273.138 127.264 272.274 127.616C271.426 127.968 270.474 128.144 269.418 128.144ZM283.802 128.144C282.714 128.144 281.754 127.944 280.922 127.544C280.106 127.144 279.466 126.536 279.002 125.72C278.554 124.888 278.33 123.848 278.33 122.6V115.28H280.634V122.336C280.634 123.584 280.93 124.52 281.522 125.144C282.13 125.768 282.978 126.08 284.066 126.08C284.866 126.08 285.562 125.92 286.154 125.6C286.746 125.264 287.202 124.784 287.522 124.16C287.842 123.52 288.002 122.752 288.002 121.856V115.28H290.306V128H288.122V124.568L288.482 125.48C288.066 126.328 287.442 126.984 286.61 127.448C285.778 127.912 284.842 128.144 283.802 128.144ZM298.34 128.144C297.284 128.144 296.276 128 295.316 127.712C294.372 127.424 293.628 127.072 293.084 126.656L294.044 124.832C294.588 125.2 295.26 125.512 296.06 125.768C296.86 126.024 297.676 126.152 298.508 126.152C299.58 126.152 300.348 126 300.812 125.696C301.292 125.392 301.532 124.968 301.532 124.424C301.532 124.024 301.388 123.712 301.1 123.488C300.812 123.264 300.428 123.096 299.948 122.984C299.484 122.872 298.964 122.776 298.388 122.696C297.812 122.6 297.236 122.488 296.66 122.36C296.084 122.216 295.556 122.024 295.076 121.784C294.596 121.528 294.212 121.184 293.924 120.752C293.636 120.304 293.492 119.712 293.492 118.976C293.492 118.208 293.708 117.536 294.14 116.96C294.572 116.384 295.18 115.944 295.964 115.64C296.764 115.32 297.708 115.16 298.796 115.16C299.628 115.16 300.468 115.264 301.316 115.472C302.18 115.664 302.884 115.944 303.428 116.312L302.444 118.136C301.868 117.752 301.268 117.488 300.644 117.344C300.02 117.2 299.396 117.128 298.772 117.128C297.764 117.128 297.012 117.296 296.516 117.632C296.02 117.952 295.772 118.368 295.772 118.88C295.772 119.312 295.916 119.648 296.204 119.888C296.508 120.112 296.892 120.288 297.356 120.416C297.836 120.544 298.364 120.656 298.94 120.752C299.516 120.832 300.092 120.944 300.668 121.088C301.244 121.216 301.764 121.4 302.228 121.64C302.708 121.88 303.092 122.216 303.38 122.648C303.684 123.08 303.836 123.656 303.836 124.376C303.836 125.144 303.612 125.808 303.164 126.368C302.716 126.928 302.084 127.368 301.268 127.688C300.452 127.992 299.476 128.144 298.34 128.144ZM307.267 128.144C306.819 128.144 306.435 127.992 306.115 127.688C305.795 127.368 305.635 126.968 305.635 126.488C305.635 126.008 305.795 125.616 306.115 125.312C306.435 125.008 306.819 124.856 307.267 124.856C307.699 124.856 308.067 125.008 308.371 125.312C308.691 125.616 308.851 126.008 308.851 126.488C308.851 126.968 308.691 127.368 308.371 127.688C308.067 127.992 307.699 128.144 307.267 128.144Z" fill="white"/>
<defs>
<linearGradient id="paint0_linear_0_1" x1="130.374" y1="73.0263" x2="229.5" y2="73.0263" gradientUnits="userSpaceOnUse">
<stop stop-color="#844AFF"/>
<stop offset="1" stop-color="#00AAE0"/>
</linearGradient>
<linearGradient id="paint1_linear_0_1" x1="130.374" y1="73.0263" x2="229.5" y2="73.0263" gradientUnits="userSpaceOnUse">
<stop stop-color="#844AFF"/>
<stop offset="1" stop-color="#00AAE0"/>
</linearGradient>
<linearGradient id="paint2_linear_0_1" x1="130.374" y1="73.0263" x2="229.5" y2="73.0263" gradientUnits="userSpaceOnUse">
<stop stop-color="#844AFF"/>
<stop offset="1" stop-color="#00AAE0"/>
</linearGradient>
</defs>
</svg>
