<svg width="32" height="32" viewBox="0 0 32 32" fill="none" xmlns="http://www.w3.org/2000/svg">
<circle cx="16" cy="16" r="15.5" fill="#A5A1FF" stroke="#544EFD"/>
<path d="M16 18.5C17.7259 18.5 19.125 17.1009 19.125 15.375C19.125 13.6491 17.7259 12.25 16 12.25C14.2741 12.25 12.875 13.6491 12.875 15.375C12.875 17.1009 14.2741 18.5 16 18.5Z" stroke="white" stroke-width="1.5" stroke-miterlimit="10"/>
<path d="M10.9844 21.5786C11.4546 20.6524 12.1722 19.8744 13.0575 19.331C13.9428 18.7876 14.9612 18.5 16 18.5C17.0388 18.5 18.0572 18.7876 18.9425 19.331C19.8278 19.8744 20.5454 20.6524 21.0156 21.5786" stroke="white" stroke-width="1.5" stroke-linecap="round" stroke-linejoin="round"/>
<path d="M19.75 10.375H23.5" stroke="white" stroke-width="1.5" stroke-linecap="round" stroke-linejoin="round"/>
<path d="M21.625 8.5V12.25" stroke="white" stroke-width="1.5" stroke-linecap="round" stroke-linejoin="round"/>
<path d="M23.4063 14.8203C23.4694 15.2104 23.5008 15.6049 23.5 16C23.5 17.4834 23.0601 18.9334 22.236 20.1668C21.4119 21.4002 20.2406 22.3615 18.8701 22.9291C17.4997 23.4968 15.9917 23.6453 14.5368 23.3559C13.082 23.0665 11.7456 22.3522 10.6967 21.3033C9.64781 20.2544 8.9335 18.918 8.64411 17.4632C8.35472 16.0083 8.50325 14.5003 9.07091 13.1299C9.63856 11.7594 10.5999 10.5881 11.8332 9.76399C13.0666 8.93988 14.5166 8.50001 16 8.50001C16.3951 8.49924 16.7897 8.53059 17.1797 8.59376" stroke="white" stroke-width="1.5" stroke-linecap="round" stroke-linejoin="round"/>
</svg>
