<svg width="32" height="32" viewBox="0 0 32 32" fill="none" xmlns="http://www.w3.org/2000/svg">
<circle cx="16" cy="16" r="15.5" fill="#A5A1FF" stroke="#544EFD"/>
<path d="M12.875 24.125H19.125" stroke="white" stroke-width="1.5" stroke-linecap="round" stroke-linejoin="round"/>
<path d="M16 21.625V17.25" stroke="white" stroke-width="1.5" stroke-linecap="round" stroke-linejoin="round"/>
<path d="M13.5 14.75L16 17.25L18.5 14.75" stroke="white" stroke-width="1.5" stroke-linecap="round" stroke-linejoin="round"/>
<path d="M12.1485 19.0467C11.4044 18.4681 10.8018 17.7278 10.3863 16.8818C9.97071 16.0359 9.75315 15.1064 9.75007 14.1639C9.73444 10.7732 12.461 7.95293 15.8516 7.8748C17.1639 7.8437 18.4526 8.22652 19.535 8.969C20.6175 9.71147 21.4387 10.7759 21.8822 12.0113C22.3257 13.2467 22.369 14.5904 22.0059 15.8518C21.6428 17.1132 20.8918 18.2283 19.8594 19.0389C19.6314 19.2152 19.4466 19.4412 19.3194 19.6999C19.1921 19.9585 19.1256 20.2428 19.1251 20.5311V20.9998C19.1251 21.1656 19.0592 21.3245 18.942 21.4417C18.8248 21.559 18.6658 21.6248 18.5001 21.6248H13.5001C13.3343 21.6248 13.1753 21.559 13.0581 21.4417C12.9409 21.3245 12.8751 21.1656 12.8751 20.9998V20.5311C12.8731 20.245 12.8068 19.963 12.681 19.706C12.5552 19.4491 12.3732 19.2237 12.1485 19.0467V19.0467Z" stroke="white" stroke-width="1.5" stroke-linecap="round" stroke-linejoin="round"/>
</svg>
