<svg width="390" height="292" viewBox="0 0 390 292" fill="none" xmlns="http://www.w3.org/2000/svg">
<path d="M223.439 89.0205C218.288 83.1124 211.364 79.0626 203.721 77.4869V80.1281C219.013 83.8477 228.963 97.3306 228.923 113.166C228.883 129.002 217.772 142.964 202.56 146.256C193.444 147.715 187.28 146.21 187.205 146.193C172.108 142.773 161.117 128.892 161.071 113.166C160.993 105.607 163.436 98.2407 168.007 92.2493C172.578 86.2579 179.013 81.9891 186.279 80.1281V77.4869C178.675 79.1654 171.781 83.1979 166.561 89.0205C160.627 95.6315 157.391 104.261 157.503 113.178C157.554 130.692 169.809 146.089 186.668 149.791C189.335 150.288 192.042 150.529 194.754 150.512C197.527 150.523 200.297 150.305 203.035 149.861C220.065 146.274 232.446 130.83 232.497 113.172C232.612 104.257 229.375 95.6279 223.439 89.0205Z" fill="url(#paint0_linear_36_3982)"/>
<path d="M176.254 112.768C176.249 116.931 177.634 120.974 180.185 124.246C182.735 127.518 186.304 129.829 190.316 130.807C191.87 131.118 193.45 131.274 195.034 131.274C196.531 131.282 198.026 131.139 199.495 130.847C203.555 129.915 207.18 127.617 209.773 124.331C212.366 121.046 213.773 116.968 213.763 112.768C213.763 105.681 210.229 99.7526 203.732 96.7308V99.372C205.552 100.447 207.088 101.948 208.21 103.749C209.661 105.856 210.581 108.288 210.892 110.835C211.203 113.381 210.895 115.965 209.994 118.365C209.094 120.764 207.628 122.906 205.723 124.607C203.818 126.308 201.531 127.515 199.06 128.125C196.351 128.616 193.576 128.604 190.871 128.091C187.904 127.32 185.225 125.693 183.161 123.409C181.097 121.125 179.74 118.284 179.254 115.233C178.768 112.183 179.176 109.055 180.427 106.235C181.678 103.414 183.717 101.023 186.296 99.3547V96.7308C183.264 98.1388 180.702 100.403 178.919 103.25C177.137 106.096 176.211 109.402 176.254 112.768Z" fill="url(#paint1_linear_36_3982)"/>
<path d="M203.721 89.257C208.723 91.1315 213.016 94.5425 215.993 99.0087C218.235 102.391 219.629 106.272 220.056 110.317C220.483 114.363 219.93 118.453 218.445 122.235C216.96 126.018 214.586 129.381 211.529 132.035C208.471 134.689 204.82 136.555 200.89 137.474C196.922 138.245 192.841 138.224 188.881 137.41C183.69 136.129 179.043 133.203 175.623 129.062C172.204 124.921 170.191 119.782 169.881 114.402C169.571 109.022 170.981 103.684 173.903 99.1712C176.824 94.6587 181.104 91.2101 186.113 89.332L186.273 89.2801V86.858L185.896 86.9676C174.253 90.6929 166.653 100.906 166.653 113.011C166.634 119.414 168.769 125.635 172.709 130.657C176.636 135.665 182.142 139.171 188.315 140.593C190.453 141.012 192.628 141.205 194.806 141.17C197.018 141.168 199.227 140.987 201.411 140.628C207.622 139.196 213.169 135.685 217.15 130.669C221.131 125.652 223.311 119.424 223.336 112.999C223.336 100.779 214.312 90.3527 204.499 87.0771L203.715 86.8349L203.721 89.257Z" fill="url(#paint2_linear_36_3982)"/>
<path d="M46.4153 205.513L40.7993 188.713H43.2713L48.4313 204.217H47.1833L52.5353 188.713H54.7433L59.9753 204.217H58.7753L64.0073 188.713H66.2873L60.6713 205.513H58.1513L53.2552 191.137H53.9033L48.9833 205.513H46.4153ZM73.5902 205.657C72.2302 205.657 71.0302 205.377 69.9902 204.817C68.9662 204.257 68.1662 203.489 67.5902 202.513C67.0302 201.537 66.7502 200.417 66.7502 199.153C66.7502 197.889 67.0222 196.769 67.5662 195.793C68.1262 194.817 68.8862 194.057 69.8462 193.513C70.8222 192.953 71.9182 192.673 73.1342 192.673C74.3662 192.673 75.4542 192.945 76.3982 193.489C77.3422 194.033 78.0782 194.801 78.6062 195.793C79.1502 196.769 79.4222 197.913 79.4222 199.225C79.4222 199.321 79.4142 199.433 79.3982 199.561C79.3982 199.689 79.3902 199.809 79.3742 199.921H68.5502V198.265H78.1742L77.2382 198.841C77.2542 198.025 77.0862 197.297 76.7342 196.657C76.3822 196.017 75.8942 195.521 75.2702 195.169C74.6622 194.801 73.9502 194.617 73.1342 194.617C72.3342 194.617 71.6222 194.801 70.9982 195.169C70.3742 195.521 69.8862 196.025 69.5342 196.681C69.1822 197.321 69.0062 198.057 69.0062 198.889V199.273C69.0062 200.121 69.1982 200.881 69.5822 201.553C69.9822 202.209 70.5342 202.721 71.2382 203.089C71.9422 203.457 72.7502 203.641 73.6622 203.641C74.4142 203.641 75.0942 203.513 75.7022 203.257C76.3262 203.001 76.8702 202.617 77.3342 202.105L78.6062 203.593C78.0302 204.265 77.3102 204.777 76.4462 205.129C75.5982 205.481 74.6462 205.657 73.5902 205.657ZM82.6215 205.513V187.705H84.9255V205.513H82.6215ZM94.8686 205.657C93.5726 205.657 92.4126 205.377 91.3886 204.817C90.3806 204.257 89.5886 203.489 89.0126 202.513C88.4366 201.537 88.1486 200.417 88.1486 199.153C88.1486 197.889 88.4366 196.769 89.0126 195.793C89.5886 194.817 90.3806 194.057 91.3886 193.513C92.4126 192.953 93.5726 192.673 94.8686 192.673C96.0206 192.673 97.0446 192.905 97.9406 193.369C98.8526 193.817 99.5566 194.489 100.053 195.385L98.3006 196.513C97.8846 195.889 97.3726 195.433 96.7646 195.145C96.1726 194.841 95.5326 194.689 94.8446 194.689C94.0126 194.689 93.2686 194.873 92.6126 195.241C91.9566 195.609 91.4366 196.129 91.0526 196.801C90.6686 197.457 90.4766 198.241 90.4766 199.153C90.4766 200.065 90.6686 200.857 91.0526 201.529C91.4366 202.201 91.9566 202.721 92.6126 203.089C93.2686 203.457 94.0126 203.641 94.8446 203.641C95.5326 203.641 96.1726 203.497 96.7646 203.209C97.3726 202.905 97.8846 202.441 98.3006 201.817L100.053 202.921C99.5566 203.801 98.8526 204.481 97.9406 204.961C97.0446 205.425 96.0206 205.657 94.8686 205.657ZM108.296 205.657C107.016 205.657 105.88 205.377 104.888 204.817C103.896 204.257 103.112 203.489 102.536 202.513C101.96 201.521 101.672 200.401 101.672 199.153C101.672 197.889 101.96 196.769 102.536 195.793C103.112 194.817 103.896 194.057 104.888 193.513C105.88 192.953 107.016 192.673 108.296 192.673C109.56 192.673 110.688 192.953 111.68 193.513C112.688 194.057 113.472 194.817 114.032 195.793C114.608 196.753 114.896 197.873 114.896 199.153C114.896 200.417 114.608 201.537 114.032 202.513C113.472 203.489 112.688 204.257 111.68 204.817C110.688 205.377 109.56 205.657 108.296 205.657ZM108.296 203.641C109.112 203.641 109.84 203.457 110.48 203.089C111.136 202.721 111.648 202.201 112.016 201.529C112.384 200.841 112.568 200.049 112.568 199.153C112.568 198.241 112.384 197.457 112.016 196.801C111.648 196.129 111.136 195.609 110.48 195.241C109.84 194.873 109.112 194.689 108.296 194.689C107.48 194.689 106.752 194.873 106.112 195.241C105.472 195.609 104.96 196.129 104.576 196.801C104.192 197.457 104 198.241 104 199.153C104 200.049 104.192 200.841 104.576 201.529C104.96 202.201 105.472 202.721 106.112 203.089C106.752 203.457 107.48 203.641 108.296 203.641ZM133.994 192.673C135.018 192.673 135.922 192.873 136.706 193.273C137.49 193.673 138.098 194.281 138.53 195.097C138.978 195.913 139.202 196.945 139.202 198.193V205.513H136.898V198.457C136.898 197.225 136.61 196.297 136.034 195.673C135.458 195.049 134.65 194.737 133.61 194.737C132.842 194.737 132.17 194.897 131.594 195.217C131.018 195.537 130.57 196.009 130.25 196.633C129.946 197.257 129.794 198.033 129.794 198.961V205.513H127.49V198.457C127.49 197.225 127.202 196.297 126.626 195.673C126.066 195.049 125.258 194.737 124.202 194.737C123.45 194.737 122.786 194.897 122.21 195.217C121.634 195.537 121.186 196.009 120.866 196.633C120.546 197.257 120.386 198.033 120.386 198.961V205.513H118.082V192.793H120.29V196.177L119.93 195.313C120.33 194.481 120.946 193.833 121.778 193.369C122.61 192.905 123.578 192.673 124.682 192.673C125.898 192.673 126.946 192.977 127.826 193.585C128.706 194.177 129.282 195.081 129.554 196.297L128.618 195.913C129.002 194.937 129.674 194.153 130.634 193.561C131.594 192.969 132.714 192.673 133.994 192.673ZM149.106 205.657C147.746 205.657 146.546 205.377 145.506 204.817C144.482 204.257 143.682 203.489 143.106 202.513C142.546 201.537 142.266 200.417 142.266 199.153C142.266 197.889 142.538 196.769 143.082 195.793C143.642 194.817 144.402 194.057 145.362 193.513C146.338 192.953 147.434 192.673 148.65 192.673C149.882 192.673 150.97 192.945 151.914 193.489C152.858 194.033 153.594 194.801 154.122 195.793C154.666 196.769 154.938 197.913 154.938 199.225C154.938 199.321 154.93 199.433 154.914 199.561C154.914 199.689 154.906 199.809 154.89 199.921H144.066V198.265H153.69L152.754 198.841C152.77 198.025 152.602 197.297 152.25 196.657C151.898 196.017 151.41 195.521 150.786 195.169C150.178 194.801 149.466 194.617 148.65 194.617C147.85 194.617 147.138 194.801 146.514 195.169C145.89 195.521 145.402 196.025 145.05 196.681C144.698 197.321 144.522 198.057 144.522 198.889V199.273C144.522 200.121 144.714 200.881 145.098 201.553C145.498 202.209 146.05 202.721 146.754 203.089C147.458 203.457 148.266 203.641 149.178 203.641C149.93 203.641 150.61 203.513 151.218 203.257C151.842 203.001 152.386 202.617 152.85 202.105L154.122 203.593C153.546 204.265 152.826 204.777 151.962 205.129C151.114 205.481 150.162 205.657 149.106 205.657ZM168.95 205.657C167.67 205.657 166.678 205.313 165.974 204.625C165.27 203.937 164.918 202.953 164.918 201.673V190.009H167.222V201.577C167.222 202.265 167.39 202.793 167.726 203.161C168.078 203.529 168.574 203.713 169.214 203.713C169.934 203.713 170.534 203.513 171.014 203.113L171.734 204.769C171.382 205.073 170.958 205.297 170.462 205.441C169.982 205.585 169.478 205.657 168.95 205.657ZM162.758 194.689V192.793H170.87V194.689H162.758ZM179.546 205.657C178.266 205.657 177.13 205.377 176.138 204.817C175.146 204.257 174.362 203.489 173.786 202.513C173.21 201.521 172.922 200.401 172.922 199.153C172.922 197.889 173.21 196.769 173.786 195.793C174.362 194.817 175.146 194.057 176.138 193.513C177.13 192.953 178.266 192.673 179.546 192.673C180.81 192.673 181.938 192.953 182.93 193.513C183.938 194.057 184.722 194.817 185.282 195.793C185.858 196.753 186.146 197.873 186.146 199.153C186.146 200.417 185.858 201.537 185.282 202.513C184.722 203.489 183.938 204.257 182.93 204.817C181.938 205.377 180.81 205.657 179.546 205.657ZM179.546 203.641C180.362 203.641 181.09 203.457 181.73 203.089C182.386 202.721 182.898 202.201 183.266 201.529C183.634 200.841 183.818 200.049 183.818 199.153C183.818 198.241 183.634 197.457 183.266 196.801C182.898 196.129 182.386 195.609 181.73 195.241C181.09 194.873 180.362 194.689 179.546 194.689C178.73 194.689 178.002 194.873 177.362 195.241C176.722 195.609 176.21 196.129 175.826 196.801C175.442 197.457 175.25 198.241 175.25 199.153C175.25 200.049 175.442 200.841 175.826 201.529C176.21 202.201 176.722 202.721 177.362 203.089C178.002 203.457 178.73 203.641 179.546 203.641ZM196.114 205.513V188.713H202.666C204.138 188.713 205.394 188.945 206.434 189.409C207.474 189.873 208.274 190.545 208.834 191.425C209.394 192.305 209.674 193.353 209.674 194.569C209.674 195.785 209.394 196.833 208.834 197.713C208.274 198.577 207.474 199.249 206.434 199.729C205.394 200.193 204.138 200.425 202.666 200.425H197.434L198.514 199.297V205.513H196.114ZM198.514 199.537L197.434 198.337H202.594C204.13 198.337 205.29 198.009 206.074 197.353C206.874 196.697 207.274 195.769 207.274 194.569C207.274 193.369 206.874 192.441 206.074 191.785C205.29 191.129 204.13 190.801 202.594 190.801H197.434L198.514 189.601V199.537ZM212.629 205.513V192.793H214.837V196.249L214.621 195.385C214.973 194.505 215.565 193.833 216.397 193.369C217.229 192.905 218.253 192.673 219.469 192.673V194.905C219.373 194.889 219.277 194.881 219.181 194.881C219.101 194.881 219.021 194.881 218.941 194.881C217.709 194.881 216.733 195.249 216.013 195.985C215.293 196.721 214.933 197.785 214.933 199.177V205.513H212.629ZM227.64 205.657C226.36 205.657 225.224 205.377 224.232 204.817C223.24 204.257 222.456 203.489 221.88 202.513C221.304 201.521 221.016 200.401 221.016 199.153C221.016 197.889 221.304 196.769 221.88 195.793C222.456 194.817 223.24 194.057 224.232 193.513C225.224 192.953 226.36 192.673 227.64 192.673C228.904 192.673 230.032 192.953 231.024 193.513C232.032 194.057 232.816 194.817 233.376 195.793C233.952 196.753 234.24 197.873 234.24 199.153C234.24 200.417 233.952 201.537 233.376 202.513C232.816 203.489 232.032 204.257 231.024 204.817C230.032 205.377 228.904 205.657 227.64 205.657ZM227.64 203.641C228.456 203.641 229.184 203.457 229.824 203.089C230.48 202.721 230.992 202.201 231.36 201.529C231.728 200.841 231.912 200.049 231.912 199.153C231.912 198.241 231.728 197.457 231.36 196.801C230.992 196.129 230.48 195.609 229.824 195.241C229.184 194.873 228.456 194.689 227.64 194.689C226.824 194.689 226.096 194.873 225.456 195.241C224.816 195.609 224.304 196.129 223.92 196.801C223.536 197.457 223.344 198.241 223.344 199.153C223.344 200.049 223.536 200.841 223.92 201.529C224.304 202.201 224.816 202.721 225.456 203.089C226.096 203.457 226.824 203.641 227.64 203.641ZM253.338 192.673C254.362 192.673 255.266 192.873 256.05 193.273C256.834 193.673 257.442 194.281 257.874 195.097C258.322 195.913 258.546 196.945 258.546 198.193V205.513H256.242V198.457C256.242 197.225 255.954 196.297 255.378 195.673C254.802 195.049 253.994 194.737 252.954 194.737C252.186 194.737 251.514 194.897 250.938 195.217C250.362 195.537 249.914 196.009 249.594 196.633C249.29 197.257 249.138 198.033 249.138 198.961V205.513H246.834V198.457C246.834 197.225 246.546 196.297 245.97 195.673C245.41 195.049 244.602 194.737 243.546 194.737C242.794 194.737 242.13 194.897 241.554 195.217C240.978 195.537 240.53 196.009 240.21 196.633C239.89 197.257 239.73 198.033 239.73 198.961V205.513H237.426V192.793H239.634V196.177L239.274 195.313C239.674 194.481 240.29 193.833 241.122 193.369C241.954 192.905 242.922 192.673 244.026 192.673C245.242 192.673 246.29 192.977 247.17 193.585C248.05 194.177 248.626 195.081 248.898 196.297L247.962 195.913C248.346 194.937 249.018 194.153 249.978 193.561C250.938 192.969 252.058 192.673 253.338 192.673ZM268.45 205.657C267.09 205.657 265.89 205.377 264.85 204.817C263.826 204.257 263.026 203.489 262.45 202.513C261.89 201.537 261.61 200.417 261.61 199.153C261.61 197.889 261.882 196.769 262.426 195.793C262.986 194.817 263.746 194.057 264.706 193.513C265.682 192.953 266.778 192.673 267.994 192.673C269.226 192.673 270.314 192.945 271.258 193.489C272.202 194.033 272.938 194.801 273.466 195.793C274.01 196.769 274.282 197.913 274.282 199.225C274.282 199.321 274.274 199.433 274.258 199.561C274.258 199.689 274.25 199.809 274.234 199.921H263.41V198.265H273.034L272.098 198.841C272.114 198.025 271.946 197.297 271.594 196.657C271.242 196.017 270.754 195.521 270.13 195.169C269.522 194.801 268.81 194.617 267.994 194.617C267.194 194.617 266.482 194.801 265.858 195.169C265.234 195.521 264.746 196.025 264.394 196.681C264.042 197.321 263.866 198.057 263.866 198.889V199.273C263.866 200.121 264.058 200.881 264.442 201.553C264.842 202.209 265.394 202.721 266.098 203.089C266.802 203.457 267.61 203.641 268.522 203.641C269.274 203.641 269.954 203.513 270.562 203.257C271.186 203.001 271.73 202.617 272.194 202.105L273.466 203.593C272.89 204.265 272.17 204.777 271.306 205.129C270.458 205.481 269.506 205.657 268.45 205.657ZM281.849 205.657C280.569 205.657 279.577 205.313 278.873 204.625C278.169 203.937 277.817 202.953 277.817 201.673V190.009H280.121V201.577C280.121 202.265 280.289 202.793 280.625 203.161C280.977 203.529 281.473 203.713 282.113 203.713C282.833 203.713 283.433 203.513 283.913 203.113L284.633 204.769C284.281 205.073 283.857 205.297 283.361 205.441C282.881 205.585 282.377 205.657 281.849 205.657ZM275.657 194.689V192.793H283.769V194.689H275.657ZM294.21 192.673C295.25 192.673 296.162 192.873 296.946 193.273C297.746 193.673 298.37 194.281 298.818 195.097C299.266 195.913 299.49 196.945 299.49 198.193V205.513H297.186V198.457C297.186 197.225 296.882 196.297 296.274 195.673C295.682 195.049 294.842 194.737 293.754 194.737C292.938 194.737 292.226 194.897 291.618 195.217C291.01 195.537 290.538 196.009 290.202 196.633C289.882 197.257 289.722 198.033 289.722 198.961V205.513H287.418V187.705H289.722V196.225L289.266 195.313C289.682 194.481 290.322 193.833 291.186 193.369C292.05 192.905 293.058 192.673 294.21 192.673ZM309.418 205.657C308.058 205.657 306.858 205.377 305.818 204.817C304.794 204.257 303.994 203.489 303.418 202.513C302.858 201.537 302.578 200.417 302.578 199.153C302.578 197.889 302.85 196.769 303.394 195.793C303.954 194.817 304.714 194.057 305.674 193.513C306.65 192.953 307.746 192.673 308.962 192.673C310.194 192.673 311.282 192.945 312.226 193.489C313.17 194.033 313.906 194.801 314.434 195.793C314.978 196.769 315.25 197.913 315.25 199.225C315.25 199.321 315.242 199.433 315.226 199.561C315.226 199.689 315.218 199.809 315.202 199.921H304.378V198.265H314.002L313.066 198.841C313.082 198.025 312.914 197.297 312.562 196.657C312.21 196.017 311.722 195.521 311.098 195.169C310.49 194.801 309.778 194.617 308.962 194.617C308.162 194.617 307.45 194.801 306.826 195.169C306.202 195.521 305.714 196.025 305.362 196.681C305.01 197.321 304.834 198.057 304.834 198.889V199.273C304.834 200.121 305.026 200.881 305.41 201.553C305.81 202.209 306.362 202.721 307.066 203.089C307.77 203.457 308.578 203.641 309.49 203.641C310.242 203.641 310.922 203.513 311.53 203.257C312.154 203.001 312.698 202.617 313.162 202.105L314.434 203.593C313.858 204.265 313.138 204.777 312.274 205.129C311.426 205.481 310.474 205.657 309.418 205.657ZM323.802 205.657C322.714 205.657 321.754 205.457 320.922 205.057C320.106 204.657 319.466 204.049 319.002 203.233C318.554 202.401 318.33 201.361 318.33 200.113V192.793H320.634V199.849C320.634 201.097 320.93 202.033 321.522 202.657C322.13 203.281 322.978 203.593 324.066 203.593C324.866 203.593 325.562 203.433 326.154 203.113C326.746 202.777 327.202 202.297 327.522 201.673C327.842 201.033 328.002 200.265 328.002 199.369V192.793H330.306V205.513H328.122V202.081L328.482 202.993C328.066 203.841 327.442 204.497 326.61 204.961C325.778 205.425 324.842 205.657 323.802 205.657ZM338.34 205.657C337.284 205.657 336.276 205.513 335.316 205.225C334.372 204.937 333.628 204.585 333.084 204.169L334.044 202.345C334.588 202.713 335.26 203.025 336.06 203.281C336.86 203.537 337.676 203.665 338.508 203.665C339.58 203.665 340.348 203.513 340.812 203.209C341.292 202.905 341.532 202.481 341.532 201.937C341.532 201.537 341.388 201.225 341.1 201.001C340.812 200.777 340.428 200.609 339.948 200.497C339.484 200.385 338.964 200.289 338.388 200.209C337.812 200.113 337.236 200.001 336.66 199.873C336.084 199.729 335.556 199.537 335.076 199.297C334.596 199.041 334.212 198.697 333.924 198.265C333.636 197.817 333.492 197.225 333.492 196.489C333.492 195.721 333.708 195.049 334.14 194.473C334.572 193.897 335.18 193.457 335.964 193.153C336.764 192.833 337.708 192.673 338.796 192.673C339.628 192.673 340.468 192.777 341.316 192.985C342.18 193.177 342.884 193.457 343.428 193.825L342.444 195.649C341.868 195.265 341.268 195.001 340.644 194.857C340.02 194.713 339.396 194.641 338.772 194.641C337.764 194.641 337.012 194.809 336.516 195.145C336.02 195.465 335.772 195.881 335.772 196.393C335.772 196.825 335.916 197.161 336.204 197.401C336.508 197.625 336.892 197.801 337.356 197.929C337.836 198.057 338.364 198.169 338.94 198.265C339.516 198.345 340.092 198.457 340.668 198.601C341.244 198.729 341.764 198.913 342.228 199.153C342.708 199.393 343.092 199.729 343.38 200.161C343.684 200.593 343.836 201.169 343.836 201.889C343.836 202.657 343.612 203.321 343.164 203.881C342.716 204.441 342.084 204.881 341.268 205.201C340.452 205.505 339.476 205.657 338.34 205.657ZM347.267 205.657C346.819 205.657 346.435 205.505 346.115 205.201C345.795 204.881 345.635 204.481 345.635 204.001C345.635 203.521 345.795 203.129 346.115 202.825C346.435 202.521 346.819 202.369 347.267 202.369C347.699 202.369 348.067 202.521 348.371 202.825C348.691 203.129 348.851 203.521 348.851 204.001C348.851 204.481 348.691 204.881 348.371 205.201C348.067 205.505 347.699 205.657 347.267 205.657Z" fill="white"/>
<defs>
<linearGradient id="paint0_linear_36_3982" x1="170.874" y1="150.513" x2="270" y2="150.513" gradientUnits="userSpaceOnUse">
<stop stop-color="#844AFF"/>
<stop offset="1" stop-color="#00AAE0"/>
</linearGradient>
<linearGradient id="paint1_linear_36_3982" x1="170.874" y1="150.513" x2="270" y2="150.513" gradientUnits="userSpaceOnUse">
<stop stop-color="#844AFF"/>
<stop offset="1" stop-color="#00AAE0"/>
</linearGradient>
<linearGradient id="paint2_linear_36_3982" x1="170.874" y1="150.513" x2="270" y2="150.513" gradientUnits="userSpaceOnUse">
<stop stop-color="#844AFF"/>
<stop offset="1" stop-color="#00AAE0"/>
</linearGradient>
</defs>
</svg>
